#N canvas 598 198 927 690 12;
#X obj 680 191 bng 15 250 50 0 empty empty empty 17 7 0 10 -262144
-1 -1;
#X obj 151 586 r \$0-p1;
#X floatatom 151 607 5 0 0 0 - - -;
#X floatatom 221 607 5 0 0 0 - - -;
#X floatatom 291 607 5 0 0 0 - - -;
#X obj 221 586 r \$0-p2;
#X obj 291 586 r \$0-p3;
#X floatatom 151 492 5 0 0 0 - - -;
#X floatatom 221 492 5 0 0 0 - - -;
#X floatatom 291 492 5 0 0 0 - - -;
#X obj 151 512 s \$0-p1-;
#X obj 221 512 s \$0-p2-;
#X obj 291 512 s \$0-p3-;
#X text 149 447 MANIPULAÇÃO DE DADOS NO PATCH - MÉTODOS "SET" E
"GET";
#X text 170 42 INTEFACES GRÁFICAS (GUI/GOP), f 18;
#X text 394 42 DECLARAÇÃO DE PARÂMETROS;
#X text 678 42 DECLARAÇÃO DA MEMÓRIA;
#X text 677 157 GESTOR GRÁFICO DE PRESETS;
#X symbolatom 402 492 10 0 0 0 - - -;
#X symbolatom 402 607 10 0 0 0 - - -;
#X symbolatom 485 492 10 0 0 0 - - -;
#X symbolatom 485 607 10 0 0 0 - - -;
#X obj 402 512 s \$0-p4-;
#X obj 402 586 r \$0-p4;
#X obj 485 512 s \$0-p5-;
#X obj 608 543 r \$0-p6;
#X obj 608 512 s \$0-p6-;
#X obj 485 586 r \$0-p5;
#X obj 608 564 list prepend set;
#X obj 608 585 list trim;
#X msg 608 606 uma lista qualquer;
#X text 48 220 SYMBOL;
#X text 48 123 FLOAT;
#X text 48 337 LIST;
#X obj 151 82 cnv 15 170 320 empty empty empty 20 12 0 14 -233017 -66577
0;
#X floatatom 177 92 5 0 0 0 P1 #0-p1_gui_set #0-p1_gui;
#X floatatom 177 123 5 0 0 0 P2 #0-p2_gui_set #0-p2_gui;
#X floatatom 177 154 5 0 0 0 P3 #0-p3_gui_set #0-p3_gui;
#X symbolatom 198 205 10 0 0 0 P4 #0-p4_gui_set #0-p4_gui;
#X symbolatom 198 236 10 0 0 0 P5 #0-p5_gui_set #0-p5_gui;
#X obj 171 306 r \$0-p6_gui_set;
#X msg 171 337 uma lista qualquer;
#X obj 171 368 s \$0-p6_gui;
#X text 48 42 TIPOS DE DADOS, f 8;
#X obj 680 92 memo \$0-memo 6 \$0-super;
#X text 96 512 SET;
#X text 96 586 GET;
#X obj 229 125 hsl 80 15 0 127 0 0 \$0-p2_gui \$0-p2_gui_set empty
-2 -8 0 10 -262144 -1 -1 622 1;
#X obj 226 95 hradio 14 1 0 6 \$0-p1_gui \$0-p1_gui_set empty 0 -8
0 10 -262144 -1 -1 1;
#X obj 226 156 nbx 5 15 -1e+37 1e+37 0 0 \$0-p3_gui \$0-p3_gui_set
empty 0 -8 0 10 -262144 -1 -1 100 256;
#X msg 608 491 digite aqui sua lista;
#X obj 397 205 param \$0-p4 \$0-memo 3 COMEMO;
#X obj 397 337 param \$0-p6 \$0-memo 5;
#X msg 397 306 uma lista qualquer;
#X obj 397 285 loadbang;
#X obj 397 236 param \$0-p5 \$0-memo 4 SISTEMA;
#X obj 397 154 param \$0-p3 \$0-memo 2 100;
#X obj 397 92 param \$0-p1 \$0-memo 0 1;
#X obj 397 123 param \$0-p2 \$0-memo 1 10;
#X obj 680 207 presets \$0-super;
#X connect 0 0 59 0;
#X connect 1 0 2 0;
#X connect 5 0 3 0;
#X connect 6 0 4 0;
#X connect 7 0 10 0;
#X connect 8 0 11 0;
#X connect 9 0 12 0;
#X connect 18 0 22 0;
#X connect 20 0 24 0;
#X connect 23 0 19 0;
#X connect 25 0 28 0;
#X connect 27 0 21 0;
#X connect 28 0 29 0;
#X connect 29 0 30 0;
#X connect 40 0 41 0;
#X connect 41 0 42 0;
#X connect 50 0 26 0;
#X connect 53 0 52 0;
#X connect 54 0 53 0;
