#N canvas 1261 210 584 616 10;
#X obj 51 126 cnv 15 165 208 \$0-bg \$0-bg_set empty 20 12 0 14 #000000 #404040 0;
#X obj 76 153 bng 15 250 50 0 \$0-click1 \$0-click1_set empty 17 7 0 10 #fcfcfc #000000 #000000;
#X obj 96 153 bng 15 250 50 0 \$0-click2 \$0-click2_set empty 17 7 0 10 #fcfcfc #000000 #000000;
#X obj 116 153 bng 15 250 50 0 \$0-click3 \$0-click3_set empty 17 7 0 10 #fcfcfc #000000 #000000;
#X obj 136 153 bng 15 250 50 0 \$0-click4 \$0-click4_set empty 17 7 0 10 #fcfcfc #000000 #000000;
#X obj 156 153 bng 15 250 50 0 \$0-click5 \$0-click5_set empty 17 7 0 10 #fcfcfc #000000 #000000;
#X obj 176 153 bng 15 250 50 0 \$0-click6 \$0-click6_set empty 17 7 0 10 #fcfcfc #000000 #000000;
#X obj 196 153 bng 15 250 50 0 \$0-click7 \$0-click7_set empty 17 7 0 10 #fcfcfc #000000 #000000;
#X obj 56 153 bng 15 250 50 0 \$0-click0 \$0-click0_set empty 17 7 0 10 #fcfcfc #000000 #000000;
#X obj 56 153 cnv 15 15 15 \$0-canvas0 \$0-canvas0_set 0 5 8 0 10 #a0a0a0 #404040 0;
#X obj 76 153 cnv 15 15 15 \$0-canvas1 \$0-canvas1_set 1 5 8 0 10 #fcfcfc #404040 0;
#X obj 96 153 cnv 15 15 15 \$0-canvas2 \$0-canvas2_set 2 5 8 0 10 #fcfcfc #404040 0;
#X obj 116 153 cnv 15 15 15 \$0-canvas3 \$0-canvas3_set 3 5 8 0 10 #fcfcfc #404040 0;
#X obj 136 153 cnv 15 15 15 \$0-canvas4 \$0-canvas4_set 4 5 8 0 10 #fcfcfc #404040 0;
#X obj 156 153 cnv 15 15 15 \$0-canvas5 \$0-canvas5_set 5 5 8 0 10 #fcfcfc #404040 0;
#X obj 176 153 cnv 15 15 15 \$0-canvas6 \$0-canvas6_set 6 5 8 0 10 #fcfcfc #404040 0;
#X obj 196 153 cnv 15 15 15 \$0-canvas7 \$0-canvas7_set 7 5 8 0 10 #fcfcfc #404040 0;
#X obj 57 131 cnv 15 110 15 \$0-bg2 \$0-bg2_set empty 20 12 0 14 #b8b8b8 #404040 0;
#X symbolatom 57 131 18 0 0 0 - \$0-fileName \$0-dead 0;
#X obj 56 314 bng 15 250 50 0 \$0-load \$0-load_set L 5 8 0 10 #dcdcdc #000000 #000000;
#X obj 76 314 bng 15 250 50 0 \$0-save \$0-save_set S 5 8 0 10 #dcdcdc #000000 #000000;
#X obj 106 314 bng 15 250 50 0 \$0-clear \$0-clear_set C 5 8 0 10 #dcdcdc #000000 #000000;
#X obj 126 314 bng 15 250 50 0 \$0-reset \$0-reset_set R 5 8 0 10 #7c7c7c #000000 #fcfcfc;
#X obj 176 314 bng 15 250 50 0 \$0-dump \$0-dump_set D 5 8 0 10 #dcdcdc #000000 #000000;
#X obj 156 314 bng 15 250 50 0 \$0-edit \$0-edit_set E 5 8 0 10 #dcdcdc #000000 #000000;
#X obj 51 455 r \$0-out;
#X obj 51 474 t a a;
#X obj 51 493 spigot 1;
#X obj 111 493 spigot 0;
#X obj 96 474 == 0;
#X obj 111 512 list trim;
#X obj 51 530 t a;
#N canvas 993 287 320 391 RESET 0;
#X obj 106 263 text set \$0-listBox;
#X obj 106 206 until;
#X obj 106 225 t b b;
#X obj 133 244 f;
#X obj 156 244 + 1;
#X msg 148 225 0;
#X obj 75 82 r \$0-reset;
#X obj 90 282 s \$0-setColor;
#X text 59 14 ** (RE)INICIALIZA [text];
#X obj 138 139 s \$0-fileName;
#X msg 138 120 set .;
#X obj 75 63 r \$0-lb;
#X obj 75 330 s \$0-slotSet;
#X msg 75 311 0;
#X obj 75 101 t b b b b b;
#X obj 106 187 f 1;
#X obj 121 168 r \$0-totalSlots;
#X connect 1 0 2 0;
#X connect 2 0 0 0;
#X connect 2 1 3 0;
#X connect 3 0 4 0;
#X connect 3 0 0 1;
#X connect 4 0 3 1;
#X connect 5 0 3 1;
#X connect 6 0 14 0;
#X connect 10 0 9 0;
#X connect 11 0 14 0;
#X connect 13 0 12 0;
#X connect 14 0 13 0;
#X connect 14 1 7 0;
#X connect 14 2 15 0;
#X connect 14 3 5 0;
#X connect 14 4 10 0;
#X connect 15 0 1 0;
#X connect 16 0 15 1;
#X restore 226 417 pd RESET;
#X obj 461 530 r \$0-slotOut;
#X obj 51 549 outlet LIST;
#X obj 461 549 outlet SLOT;
#N canvas 1094 145 430 590 COLORS 0;
#X obj 50 50 r \$0-setColor;
#X obj 50 136 until;
#X obj 50 174 f;
#X obj 73 174 + 1;
#X msg 65 155 0;
#X obj 50 69 t b b;
#X obj 50 222 text get \$0-listBox;
#X obj 50 241 route bang;
#X msg 120 407 \; \$1-canvas\$2_set color \$3;
#X obj 120 388 pack \$0 f -9.88184e+06;
#X text 262 388 RGB 150 200 240;
#X text 61 14 ** GERENCIA CORES DOS SLOTS - ATIVO \, VAZIO \, CHEIO;
#X obj 179 222 array get \$0-activeSlot 0 1;
#X obj 120 278 f;
#X obj 120 259 bang;
#X obj 120 297 sel 0 1;
#X msg 139 356 \; \$1-canvas\$2_set color \$3;
#X obj 179 241 t f f;
#X obj 50 278 f;
#X obj 50 297 sel 0 1;
#X msg 50 510 \; \$1-canvas\$2_set color \$3;
#X obj 50 491 pack \$0 f 0;
#X msg 121 478 \; \$1-canvas\$2_set color \$3;
#X obj 50 193 t f f f f f f;
#X obj 121 459 pack \$0 f 1;
#X obj 139 337 pack \$0 f -3.96047e+06;
#X text 281 338 RGB 60 110 150;
#X obj 65 98 r \$0-totalSlots;
#X obj 50 117 f 1;
#X connect 0 0 5 0;
#X connect 1 0 2 0;
#X connect 2 0 3 0;
#X connect 2 0 23 0;
#X connect 3 0 2 1;
#X connect 4 0 2 1;
#X connect 5 0 28 0;
#X connect 5 1 4 0;
#X connect 6 0 7 0;
#X connect 7 0 18 0;
#X connect 7 1 14 0;
#X connect 9 0 8 0;
#X connect 12 0 17 0;
#X connect 13 0 15 0;
#X connect 14 0 13 0;
#X connect 15 0 9 0;
#X connect 15 1 25 0;
#X connect 17 0 18 1;
#X connect 17 1 13 1;
#X connect 18 0 19 0;
#X connect 19 0 21 0;
#X connect 19 1 24 0;
#X connect 21 0 20 0;
#X connect 23 0 6 0;
#X connect 23 1 21 1;
#X connect 23 2 24 1;
#X connect 23 3 9 1;
#X connect 23 4 25 1;
#X connect 23 5 12 0;
#X connect 24 0 22 0;
#X connect 25 0 16 0;
#X connect 27 0 28 1;
#X connect 28 0 1 0;
#X restore 51 398 pd COLORS;
#N canvas 364 678 309 246 SLOT_SAVE 0;
#X obj 130 157 text set \$0-listBox;
#X obj 167 138 r \$0-slot;
#X obj 91 62 r \$0-list;
#X obj 91 119 list;
#X obj 91 100 spigot;
#X obj 22 101 r \$0-save;
#X text 31 14 ** GERENCIA ESCRITA DE SLOTS NO [text];
#X obj 110 176 s \$0-setColor;
#X obj 91 81 t b a;
#X obj 91 138 t b b l;
#X obj 91 195 s \$0-next;
#X obj 136 101 r \$0-reset;
#X obj 136 82 r \$0-autoSave;
#X connect 1 0 0 1;
#X connect 2 0 8 0;
#X connect 3 0 9 0;
#X connect 4 0 3 0;
#X connect 5 0 3 0;
#X connect 8 0 4 0;
#X connect 8 1 3 1;
#X connect 9 0 10 0;
#X connect 9 1 7 0;
#X connect 9 2 0 0;
#X connect 11 0 3 1;
#X connect 12 0 4 1;
#X restore 226 360 pd SLOT_SAVE;
#N canvas 322 544 296 220 SLOT_LOAD 0;
#X obj 98 131 text get \$0-listBox;
#X obj 98 93 spigot;
#X obj 39 93 r \$0-load;
#X obj 98 55 r \$0-slot;
#X obj 98 74 t b f;
#X obj 98 112 f;
#X obj 155 169 s \$0-out;
#X obj 98 150 route bang;
#X text 31 14 ** GERENCIA LEITURA DE SLOTS DO [text];
#X obj 143 74 r \$0-autoLoad;
#X connect 0 0 7 0;
#X connect 1 0 5 0;
#X connect 2 0 5 0;
#X connect 3 0 4 0;
#X connect 4 0 1 0;
#X connect 4 1 5 1;
#X connect 5 0 0 0;
#X connect 7 1 6 0;
#X connect 9 0 1 1;
#X restore 226 379 pd SLOT_LOAD;
#X obj 461 511 r \$0-slot;
#N canvas 354 606 285 162 SLOT_CLEAR 0;
#X obj 100 95 text set \$0-listBox;
#X obj 137 76 r \$0-slot;
#X text 46 14 ** APAGA SLOT ATIVO NO [text];
#X obj 73 57 r \$0-clear;
#X obj 73 114 s \$0-setColor;
#X obj 73 76 t b b;
#X connect 1 0 0 1;
#X connect 3 0 5 0;
#X connect 5 0 4 0;
#X connect 5 1 0 0;
#X restore 226 398 pd SLOT_CLEAR;
#X obj 176 549 send;
#X text 209 550 SAÍDA REMOTA;
#N canvas 1102 268 615 424 SLOT_CLICK_SET_NEXT 0;
#X obj 60 156 r \$0-slotSet;
#X obj 60 261 pack f \$0;
#X msg 60 280 \; \$2-click\$1_set bang;
#X text 58 133 DEFINIÇÃO EXTERNA;
#X obj 293 108 r \$0-autoNext;
#X obj 260 127 spigot;
#X obj 275 146 r \$0-slot;
#X obj 260 165 f;
#X obj 260 184 + 1;
#X obj 260 261 text get \$0-listBox;
#X obj 260 280 route bang;
#X obj 260 358 s \$0-slotSet;
#X text 286 185 LÊ PRÓXIMO SLOT PARA VER SE TEM CONTEÚDO;
#X obj 260 339 f;
#X text 286 340 SE ESTIVER VAZIO VIRA NOVO SLOT ATIVO;
#X obj 317 299 bang;
#X obj 260 242 t f f f;
#X obj 317 318 f;
#X text 344 319 SE TIVER CONTEÚDO VAI PRO PRÓXIMO;
#X text 98 24 ** GERENCIA CLIQUES \, DEFINIÇÃO EXTERNA E AUTO-AVANÇO DO SLOT ATIVO, f 66;
#X text 258 66 AUTO-AVANÇO;
#N canvas 339 247 1357 657 ACTIVE_SLOT 0;
#X obj 39 73 r \$0-click0;
#X msg 39 92 0;
#X obj 119 73 r \$0-click1;
#X obj 199 73 r \$0-click2;
#X obj 279 73 r \$0-click3;
#X obj 359 73 r \$0-click4;
#X obj 439 73 r \$0-click5;
#X obj 519 73 r \$0-click6;
#X obj 599 73 r \$0-click7;
#X obj 679 73 r \$0-click8;
#X obj 759 73 r \$0-click9;
#X obj 839 73 r \$0-click10;
#X obj 919 73 r \$0-click11;
#X obj 999 73 r \$0-click12;
#X obj 1079 73 r \$0-click13;
#X obj 1159 73 r \$0-click14;
#X obj 1239 73 r \$0-click15;
#X msg 1239 92 15;
#X msg 1159 92 14;
#X msg 1079 92 13;
#X msg 999 92 12;
#X msg 919 92 11;
#X msg 839 92 10;
#X msg 759 92 9;
#X msg 679 92 8;
#X msg 599 92 7;
#X msg 519 92 6;
#X msg 439 92 5;
#X msg 359 92 4;
#X msg 279 92 3;
#X msg 199 92 2;
#X msg 119 92 1;
#X obj 39 140 r \$0-click16;
#X obj 119 140 r \$0-click17;
#X obj 199 140 r \$0-click18;
#X obj 279 140 r \$0-click19;
#X obj 359 140 r \$0-click20;
#X obj 439 140 r \$0-click21;
#X obj 519 140 r \$0-click22;
#X obj 599 140 r \$0-click23;
#X obj 679 140 r \$0-click24;
#X obj 759 140 r \$0-click25;
#X obj 839 140 r \$0-click26;
#X obj 919 140 r \$0-click27;
#X obj 999 140 r \$0-click28;
#X obj 1079 140 r \$0-click29;
#X obj 1159 140 r \$0-click30;
#X obj 1239 140 r \$0-click31;
#X obj 39 207 r \$0-click32;
#X obj 119 207 r \$0-click33;
#X obj 199 207 r \$0-click34;
#X obj 279 207 r \$0-click35;
#X obj 359 207 r \$0-click36;
#X obj 439 207 r \$0-click37;
#X obj 519 207 r \$0-click38;
#X obj 599 207 r \$0-click39;
#X obj 679 207 r \$0-click40;
#X obj 759 207 r \$0-click41;
#X obj 839 207 r \$0-click42;
#X obj 919 207 r \$0-click43;
#X obj 999 207 r \$0-click44;
#X obj 1079 207 r \$0-click45;
#X obj 1159 207 r \$0-click46;
#X obj 1239 207 r \$0-click47;
#X obj 39 274 r \$0-click48;
#X obj 119 274 r \$0-click49;
#X obj 199 274 r \$0-click50;
#X obj 279 274 r \$0-click51;
#X obj 359 274 r \$0-click52;
#X obj 439 274 r \$0-click53;
#X obj 519 274 r \$0-click54;
#X obj 599 274 r \$0-click55;
#X obj 679 274 r \$0-click56;
#X obj 759 274 r \$0-click57;
#X obj 839 274 r \$0-click58;
#X obj 919 274 r \$0-click59;
#X obj 999 274 r \$0-click60;
#X obj 1079 274 r \$0-click61;
#X obj 1159 274 r \$0-click62;
#X obj 1239 274 r \$0-click63;
#X msg 39 159 16;
#X msg 119 159 17;
#X msg 199 159 18;
#X msg 279 159 19;
#X msg 359 159 20;
#X msg 439 159 21;
#X msg 519 159 22;
#X msg 599 159 23;
#X msg 679 159 24;
#X msg 759 159 25;
#X msg 839 159 26;
#X msg 919 159 27;
#X msg 999 159 28;
#X msg 1079 159 29;
#X msg 1159 159 30;
#X msg 1239 159 31;
#X msg 39 226 32;
#X msg 119 226 33;
#X msg 199 226 34;
#X msg 279 226 35;
#X msg 359 226 36;
#X msg 439 226 37;
#X msg 519 226 38;
#X msg 599 226 39;
#X msg 679 226 40;
#X msg 759 226 41;
#X msg 839 226 42;
#X msg 919 226 43;
#X msg 999 226 44;
#X msg 1079 226 45;
#X msg 1159 226 46;
#X msg 1239 226 47;
#X msg 39 293 48;
#X msg 119 293 49;
#X msg 199 293 50;
#X msg 279 293 51;
#X msg 359 293 52;
#X msg 439 293 53;
#X msg 519 293 54;
#X msg 599 293 55;
#X msg 679 293 56;
#X msg 759 293 57;
#X msg 839 293 58;
#X msg 919 293 59;
#X msg 999 293 60;
#X msg 1079 293 61;
#X msg 1159 293 62;
#X msg 1239 293 63;
#X obj 39 111 s \$0-clickId;
#X obj 39 178 s \$0-clickId;
#X obj 39 245 s \$0-clickId;
#X obj 39 312 s \$0-clickId;
#X msg 126 465 const 0;
#X obj 126 484 s \$0-activeSlot;
#X obj 59 561 array set \$0-activeSlot;
#X msg 59 542 1;
#X obj 39 590 s \$0-setColor;
#X obj 126 513 t f f;
#X obj 153 532 s \$0-slot;
#N canvas 5 139 273 229 2_CLICK 0;
#X obj 103 71 inlet;
#X obj 103 100 t b b;
#X obj 103 119 timer;
#X obj 103 157 sel 1;
#X obj 103 138 < 200;
#X obj 103 176 s \$0-load;
#X text 36 16 ** LÊ SLOT ATUAL QUANDO RECEBE DUPLO CLIQUE (< 200ms), f 30;
#X connect 0 0 1 0;
#X connect 1 0 2 0;
#X connect 1 1 2 1;
#X connect 2 0 4 0;
#X connect 3 0 5 0;
#X connect 4 0 3 0;
#X restore 126 436 pd 2_CLICK;
#X obj 39 399 r \$0-clickId;
#X obj 39 418 t b b f b b;
#X text 220 532 SLOT ATIVO;
#X text 36 40 CONVERTE BANGS NOS SLOTS DA INTERFACE NUM ID NUMÉRICO;
#X text 36 366 CONVERTE ID NUMÉRICO DO CLIQUE NO SLOT ATIVO;
#X text 260 423 ARRAY QUE ARMAZENA SLOT ATIVO;
#X obj 261 484 array define \$0-activeSlot;
#X obj 261 446 r \$0-totalSlots;
#X msg 261 465 resize \$1;
#X connect 0 0 1 0;
#X connect 1 0 128 0;
#X connect 2 0 31 0;
#X connect 3 0 30 0;
#X connect 4 0 29 0;
#X connect 5 0 28 0;
#X connect 6 0 27 0;
#X connect 7 0 26 0;
#X connect 8 0 25 0;
#X connect 9 0 24 0;
#X connect 10 0 23 0;
#X connect 11 0 22 0;
#X connect 12 0 21 0;
#X connect 13 0 20 0;
#X connect 14 0 19 0;
#X connect 15 0 18 0;
#X connect 16 0 17 0;
#X connect 17 0 128 0;
#X connect 18 0 128 0;
#X connect 19 0 128 0;
#X connect 20 0 128 0;
#X connect 21 0 128 0;
#X connect 22 0 128 0;
#X connect 23 0 128 0;
#X connect 24 0 128 0;
#X connect 25 0 128 0;
#X connect 26 0 128 0;
#X connect 27 0 128 0;
#X connect 28 0 128 0;
#X connect 29 0 128 0;
#X connect 30 0 128 0;
#X connect 31 0 128 0;
#X connect 32 0 80 0;
#X connect 33 0 81 0;
#X connect 34 0 82 0;
#X connect 35 0 83 0;
#X connect 36 0 84 0;
#X connect 37 0 85 0;
#X connect 38 0 86 0;
#X connect 39 0 87 0;
#X connect 40 0 88 0;
#X connect 41 0 89 0;
#X connect 42 0 90 0;
#X connect 43 0 91 0;
#X connect 44 0 92 0;
#X connect 45 0 93 0;
#X connect 46 0 94 0;
#X connect 47 0 95 0;
#X connect 48 0 96 0;
#X connect 49 0 97 0;
#X connect 50 0 98 0;
#X connect 51 0 99 0;
#X connect 52 0 100 0;
#X connect 53 0 101 0;
#X connect 54 0 102 0;
#X connect 55 0 103 0;
#X connect 56 0 104 0;
#X connect 57 0 105 0;
#X connect 58 0 106 0;
#X connect 59 0 107 0;
#X connect 60 0 108 0;
#X connect 61 0 109 0;
#X connect 62 0 110 0;
#X connect 63 0 111 0;
#X connect 64 0 112 0;
#X connect 65 0 113 0;
#X connect 66 0 114 0;
#X connect 67 0 115 0;
#X connect 68 0 116 0;
#X connect 69 0 117 0;
#X connect 70 0 118 0;
#X connect 71 0 119 0;
#X connect 72 0 120 0;
#X connect 73 0 121 0;
#X connect 74 0 122 0;
#X connect 75 0 123 0;
#X connect 76 0 124 0;
#X connect 77 0 125 0;
#X connect 78 0 126 0;
#X connect 79 0 127 0;
#X connect 80 0 129 0;
#X connect 81 0 129 0;
#X connect 82 0 129 0;
#X connect 83 0 129 0;
#X connect 84 0 129 0;
#X connect 85 0 129 0;
#X connect 86 0 129 0;
#X connect 87 0 129 0;
#X connect 88 0 129 0;
#X connect 89 0 129 0;
#X connect 90 0 129 0;
#X connect 91 0 129 0;
#X connect 92 0 129 0;
#X connect 93 0 129 0;
#X connect 94 0 129 0;
#X connect 95 0 129 0;
#X connect 96 0 130 0;
#X connect 97 0 130 0;
#X connect 98 0 130 0;
#X connect 99 0 130 0;
#X connect 100 0 130 0;
#X connect 101 0 130 0;
#X connect 102 0 130 0;
#X connect 103 0 130 0;
#X connect 104 0 130 0;
#X connect 105 0 130 0;
#X connect 106 0 130 0;
#X connect 107 0 130 0;
#X connect 108 0 130 0;
#X connect 109 0 130 0;
#X connect 110 0 130 0;
#X connect 111 0 130 0;
#X connect 112 0 131 0;
#X connect 113 0 131 0;
#X connect 114 0 131 0;
#X connect 115 0 131 0;
#X connect 116 0 131 0;
#X connect 117 0 131 0;
#X connect 118 0 131 0;
#X connect 119 0 131 0;
#X connect 120 0 131 0;
#X connect 121 0 131 0;
#X connect 122 0 131 0;
#X connect 123 0 131 0;
#X connect 124 0 131 0;
#X connect 125 0 131 0;
#X connect 126 0 131 0;
#X connect 127 0 131 0;
#X connect 132 0 133 0;
#X connect 135 0 134 0;
#X connect 137 0 134 1;
#X connect 137 1 138 0;
#X connect 140 0 141 0;
#X connect 141 0 136 0;
#X connect 141 1 135 0;
#X connect 141 2 137 0;
#X connect 141 3 132 0;
#X connect 141 4 139 0;
#X connect 147 0 148 0;
#X connect 148 0 146 0;
#X restore 60 89 pd ACTIVE_SLOT;
#X text 58 66 CLIQUE NA INTERFACE;
#X obj 105 185 r \$0-totalSlots;
#X obj 105 223 - 1;
#X obj 60 242 clip 0 1;
#X obj 105 204 t f f;
#X obj 260 223 moses;
#X obj 260 89 r \$0-next;
#X connect 0 0 25 0;
#X connect 1 0 2 0;
#X connect 4 0 5 1;
#X connect 5 0 7 0;
#X connect 6 0 7 1;
#X connect 7 0 8 0;
#X connect 8 0 27 0;
#X connect 9 0 10 0;
#X connect 10 0 13 0;
#X connect 10 1 15 0;
#X connect 13 0 11 0;
#X connect 15 0 17 0;
#X connect 16 0 9 0;
#X connect 16 1 13 1;
#X connect 16 2 17 1;
#X connect 17 0 8 0;
#X connect 23 0 26 0;
#X connect 24 0 25 2;
#X connect 25 0 1 0;
#X connect 26 0 24 0;
#X connect 26 1 27 1;
#X connect 27 0 16 0;
#X connect 28 0 5 0;
#X restore 51 379 pd SLOT_CLICK_SET_NEXT;
#N canvas 5 61 500 348 INFO 0;
#X text 50 43 RECURSOS;
#X text 50 73 - [list trim] interno ON/OFF - na saída da lista;
#X text 50 183 - DUMP - envia todas as listas existentes em sequência;
#X text 50 93 - Auto-Write ON/OFF - escreve slot atual assim que entra uma lista;
#X text 50 153 - Auto-Next ON/OFF - vai para próximo slot vazio assim que escreve slot atual;
#X text 50 123 - Auto-Read ON/OFF - lê o slot assim que é selecionado com clique \, se tiver conteúdo;
#X text 50 203 - [send] interno na saída - opcional \, declarável como 5 argumento (symbol), f 65;
#X text 50 233 - Copy/Move - comando externo para copiar ou mover uma lista entre os slots - Sintaxe: comando origem destino(s) - ex:;
#X msg 52 269 cp 2 4;
#X msg 102 269 cp 2 5 6 7;
#X msg 182 269 cp 0 all;
#X msg 262 269 mv 2 4;
#X msg 312 269 mv 2 5 6 7;
#X msg 392 269 mv 0 all;
#X restore 361 123 pd INFO;
#X obj 197 511 r \$0-lb;
#N canvas 707 192 584 616 COPY 0;
#X obj 106 405 text get \$0-listBox;
#X obj 169 492 text set \$0-listBox;
#X obj 142 511 s \$0-setColor;
#X obj 142 473 t b l;
#X obj 79 96 list split 1;
#X obj 142 348 list split 1;
#X text 62 29 ** MECANISMO PARA COPIAR UM SLOT PARA OUTRO(S);
#X obj 142 454 list;
#X obj 142 367 t b f b;
#X obj 181 386 list;
#X obj 142 171 route all;
#X obj 142 152 list trim;
#X obj 142 133 list;
#X obj 79 115 t b f;
#X obj 79 77 r \$0-cp;
#X obj 391 38 r \$0-totalSlots;
#X obj 408 76 until;
#X obj 408 114 f;
#X obj 431 114 + 1;
#X msg 423 95 0;
#N canvas 5 61 373 243 LISTMAKER 0;
#X obj 147 110 list prepend;
#X obj 147 129 list;
#X obj 238 94 bng 15 250 50 0 empty empty empty 17 7 0 10 #fcfcfc #000000 #000000;
#X obj 37 47 inlet TRIGGER;
#X obj 147 47 inlet LIST;
#X obj 238 47 inlet RESET;
#X obj 126 148 list;
#X obj 126 94 bng 15 250 50 0 empty empty empty 17 7 0 10 #fcfcfc #000000 #000000;
#X obj 126 177 outlet LIST;
#X connect 0 0 1 0;
#X connect 1 0 0 1;
#X connect 1 0 6 1;
#X connect 2 0 0 1;
#X connect 3 0 7 0;
#X connect 4 0 0 0;
#X connect 5 0 2 0;
#X connect 6 0 8 0;
#X connect 7 0 6 0;
#X restore 391 133 pd LISTMAKER;
#X obj 391 57 t b f b b;
#X obj 391 152 list prepend set;
#X obj 391 171 list trim;
#X msg 142 190 0 1 2 3 4 5 6 7 8 9 10 11 12 13 14 15 16 17 18 19 20 21 22 23 24 25 26 27 28 29 30 31 32 33 34 35 36 37 38 39 40 41 42 43 44 45 46 47 48 49 50 51 52 53 54 55 56 57 58 59 60 61 62 63;
#X connect 0 0 7 1;
#X connect 3 0 2 0;
#X connect 3 1 1 0;
#X connect 4 0 13 0;
#X connect 4 1 12 1;
#X connect 5 0 8 0;
#X connect 5 1 9 1;
#X connect 7 0 3 0;
#X connect 8 0 7 0;
#X connect 8 1 1 1;
#X connect 8 2 9 0;
#X connect 9 0 5 0;
#X connect 10 0 24 0;
#X connect 10 1 5 0;
#X connect 11 0 10 0;
#X connect 12 0 11 0;
#X connect 13 0 12 0;
#X connect 13 1 0 0;
#X connect 14 0 4 0;
#X connect 15 0 21 0;
#X connect 16 0 17 0;
#X connect 17 0 18 0;
#X connect 17 0 20 1;
#X connect 18 0 17 1;
#X connect 19 0 17 1;
#X connect 20 0 22 0;
#X connect 21 0 20 0;
#X connect 21 1 16 0;
#X connect 21 2 19 0;
#X connect 21 3 20 2;
#X connect 22 0 23 0;
#X connect 23 0 24 0;
#X connect 24 0 5 0;
#X restore 329 379 pd COPY;
#N canvas 543 334 541 644 MOVE 0;
#X obj 78 422 text get \$0-listBox;
#X obj 59 113 list split 1;
#X obj 114 365 list split 1;
#X obj 114 480 list;
#X obj 114 384 t b f b;
#X obj 153 403 list;
#X obj 153 528 text set \$0-listBox;
#X obj 114 566 s \$0-setColor;
#X obj 114 509 t b b l;
#X obj 133 547 text set \$0-listBox;
#X obj 114 150 list;
#X obj 59 132 t b f f;
#X obj 114 188 route all;
#X obj 114 169 list trim;
#X obj 59 94 r \$0-mv;
#X msg 114 207 0 1 2 3 4 5 6 7 8 9 10 11 12 13 14 15 16 17 18 19 20 21 22 23 24 25 26 27 28 29 30 31 32 33 34 35 36 37 38 39 40 41 42 43 44 45 46 47 48 49 50 51 52 53 54 55 56 57 58 59 60 61 62 63;
#X obj 341 55 r \$0-totalSlots;
#X obj 358 93 until;
#X obj 358 131 f;
#X obj 381 131 + 1;
#X msg 373 112 0;
#N canvas 5 61 373 243 LISTMAKER 0;
#X obj 147 110 list prepend;
#X obj 147 129 list;
#X obj 238 94 bng 15 250 50 0 empty empty empty 17 7 0 10 #fcfcfc #000000 #000000;
#X obj 37 47 inlet TRIGGER;
#X obj 147 47 inlet LIST;
#X obj 238 47 inlet RESET;
#X obj 126 148 list;
#X obj 126 94 bng 15 250 50 0 empty empty empty 17 7 0 10 #fcfcfc #000000 #000000;
#X obj 126 177 outlet LIST;
#X connect 0 0 1 0;
#X connect 1 0 0 1;
#X connect 1 0 6 1;
#X connect 2 0 0 1;
#X connect 3 0 7 0;
#X connect 4 0 0 0;
#X connect 5 0 2 0;
#X connect 6 0 8 0;
#X connect 7 0 6 0;
#X restore 341 150 pd LISTMAKER;
#X obj 341 74 t b f b b;
#X obj 341 169 list prepend set;
#X obj 341 188 list trim;
#X text 43 32 ** MECANISMO PARA MOVER UM SLOT (COPIA CONTEÚDO PARA DESTINO(S) E APAGA SLOT DE ORIGEM), f 38;
#X obj 78 441 route bang;
#X connect 0 0 26 0;
#X connect 1 0 11 0;
#X connect 1 1 10 1;
#X connect 2 0 4 0;
#X connect 2 1 5 1;
#X connect 3 0 8 0;
#X connect 4 0 3 0;
#X connect 4 1 6 1;
#X connect 4 2 5 0;
#X connect 5 0 2 0;
#X connect 8 0 7 0;
#X connect 8 1 9 0;
#X connect 8 2 6 0;
#X connect 10 0 13 0;
#X connect 11 0 10 0;
#X connect 11 1 0 0;
#X connect 11 2 9 1;
#X connect 12 0 15 0;
#X connect 12 1 2 0;
#X connect 13 0 12 0;
#X connect 14 0 1 0;
#X connect 15 0 2 0;
#X connect 16 0 22 0;
#X connect 17 0 18 0;
#X connect 18 0 19 0;
#X connect 18 0 21 1;
#X connect 19 0 18 1;
#X connect 20 0 18 1;
#X connect 21 0 23 0;
#X connect 22 0 21 0;
#X connect 22 1 17 0;
#X connect 22 2 20 0;
#X connect 22 3 21 2;
#X connect 23 0 24 0;
#X connect 24 0 15 0;
#X connect 26 0 3 1;
#X connect 26 1 3 1;
#X restore 329 398 pd MOVE;
#X text 359 21 ARGUMENTOS:;
#X text 359 79 4 - Auto-Next (0-1);
#X obj 197 530 symbol \$5;
#X text 359 37 1 - [list trim] interno (0-1);
#X obj 76 173 bng 15 250 50 0 \$0-click9 \$0-click9_set empty 17 7 0 10 #fcfcfc #000000 #000000;
#X obj 96 173 bng 15 250 50 0 \$0-click10 \$0-click10_set empty 17 7 0 10 #fcfcfc #000000 #000000;
#X obj 116 173 bng 15 250 50 0 \$0-click11 \$0-click11_set empty 17 7 0 10 #fcfcfc #000000 #000000;
#X obj 136 173 bng 15 250 50 0 \$0-click12 \$0-click12_set empty 17 7 0 10 #fcfcfc #000000 #000000;
#X obj 156 173 bng 15 250 50 0 \$0-click13 \$0-click13_set empty 17 7 0 10 #fcfcfc #000000 #000000;
#X obj 176 173 bng 15 250 50 0 \$0-click14 \$0-click14_set empty 17 7 0 10 #fcfcfc #000000 #000000;
#X obj 196 173 bng 15 250 50 0 \$0-click15 \$0-click15_set empty 17 7 0 10 #fcfcfc #000000 #000000;
#X obj 56 173 bng 15 250 50 0 \$0-click8 \$0-click8_set empty 17 7 0 10 #fcfcfc #000000 #000000;
#X obj 56 173 cnv 15 15 15 \$0-canvas8 \$0-canvas8_set 8 5 8 0 10 #fcfcfc #404040 0;
#X obj 76 173 cnv 15 15 15 \$0-canvas9 \$0-canvas9_set 9 5 8 0 10 #fcfcfc #404040 0;
#X obj 96 173 cnv 15 15 15 \$0-canvas10 \$0-canvas10_set 10 2 8 0 10 #fcfcfc #404040 0;
#X obj 116 173 cnv 15 15 15 \$0-canvas11 \$0-canvas11_set 11 2 8 0 10 #fcfcfc #404040 0;
#X obj 136 173 cnv 15 15 15 \$0-canvas12 \$0-canvas12_set 12 2 8 0 10 #fcfcfc #404040 0;
#X obj 156 173 cnv 15 15 15 \$0-canvas13 \$0-canvas13_set 13 2 8 0 10 #fcfcfc #404040 0;
#X obj 176 173 cnv 15 15 15 \$0-canvas14 \$0-canvas14_set 14 2 8 0 10 #fcfcfc #404040 0;
#X obj 196 173 cnv 15 15 15 \$0-canvas15 \$0-canvas15_set 15 2 8 0 10 #fcfcfc #404040 0;
#X obj 76 193 bng 15 250 50 0 \$0-click17 \$0-click17_set empty 17 7 0 10 #fcfcfc #000000 #000000;
#X obj 96 193 bng 15 250 50 0 \$0-click18 \$0-click18_set empty 17 7 0 10 #fcfcfc #000000 #000000;
#X obj 116 193 bng 15 250 50 0 \$0-click19 \$0-click19_set empty 17 7 0 10 #fcfcfc #000000 #000000;
#X obj 136 193 bng 15 250 50 0 \$0-click20 \$0-click20_set empty 17 7 0 10 #fcfcfc #000000 #000000;
#X obj 156 193 bng 15 250 50 0 \$0-click21 \$0-click21_set empty 17 7 0 10 #fcfcfc #000000 #000000;
#X obj 176 193 bng 15 250 50 0 \$0-click22 \$0-click22_set empty 17 7 0 10 #fcfcfc #000000 #000000;
#X obj 196 193 bng 15 250 50 0 \$0-click23 \$0-click23_set empty 17 7 0 10 #fcfcfc #000000 #000000;
#X obj 56 193 bng 15 250 50 0 \$0-click16 \$0-click16_set empty 17 7 0 10 #fcfcfc #000000 #000000;
#X obj 56 193 cnv 15 15 15 \$0-canvas16 \$0-canvas16_set 16 2 8 0 10 #fcfcfc #404040 0;
#X obj 76 193 cnv 15 15 15 \$0-canvas17 \$0-canvas17_set 17 2 8 0 10 #fcfcfc #404040 0;
#X obj 96 193 cnv 15 15 15 \$0-canvas18 \$0-canvas18_set 18 2 8 0 10 #fcfcfc #404040 0;
#X obj 116 193 cnv 15 15 15 \$0-canvas19 \$0-canvas19_set 19 2 8 0 10 #fcfcfc #404040 0;
#X obj 136 193 cnv 15 15 15 \$0-canvas20 \$0-canvas20_set 20 2 8 0 10 #fcfcfc #404040 0;
#X obj 156 193 cnv 15 15 15 \$0-canvas21 \$0-canvas21_set 21 2 8 0 10 #fcfcfc #404040 0;
#X obj 176 193 cnv 15 15 15 \$0-canvas22 \$0-canvas22_set 22 2 8 0 10 #fcfcfc #404040 0;
#X obj 196 193 cnv 15 15 15 \$0-canvas23 \$0-canvas23_set 23 2 8 0 10 #fcfcfc #404040 0;
#X obj 76 213 bng 15 250 50 0 \$0-click25 \$0-click25_set empty 17 7 0 10 #fcfcfc #000000 #000000;
#X obj 96 213 bng 15 250 50 0 \$0-click26 \$0-click26_set empty 17 7 0 10 #fcfcfc #000000 #000000;
#X obj 116 213 bng 15 250 50 0 \$0-click27 \$0-click27_set empty 17 7 0 10 #fcfcfc #000000 #000000;
#X obj 136 213 bng 15 250 50 0 \$0-click28 \$0-click28_set empty 17 7 0 10 #fcfcfc #000000 #000000;
#X obj 156 213 bng 15 250 50 0 \$0-click29 \$0-click29_set empty 17 7 0 10 #fcfcfc #000000 #000000;
#X obj 176 213 bng 15 250 50 0 \$0-click30 \$0-click30_set empty 17 7 0 10 #fcfcfc #000000 #000000;
#X obj 196 213 bng 15 250 50 0 \$0-click31 \$0-click31_set empty 17 7 0 10 #fcfcfc #000000 #000000;
#X obj 56 213 bng 15 250 50 0 \$0-click24 \$0-click24_set empty 17 7 0 10 #fcfcfc #000000 #000000;
#X obj 56 213 cnv 15 15 15 \$0-canvas24 \$0-canvas24_set 24 2 8 0 10 #fcfcfc #404040 0;
#X obj 76 213 cnv 15 15 15 \$0-canvas25 \$0-canvas25_set 25 2 8 0 10 #fcfcfc #404040 0;
#X obj 96 213 cnv 15 15 15 \$0-canvas26 \$0-canvas26_set 26 2 8 0 10 #fcfcfc #404040 0;
#X obj 116 213 cnv 15 15 15 \$0-canvas27 \$0-canvas27_set 27 2 8 0 10 #fcfcfc #404040 0;
#X obj 136 213 cnv 15 15 15 \$0-canvas28 \$0-canvas28_set 28 2 8 0 10 #fcfcfc #404040 0;
#X obj 156 213 cnv 15 15 15 \$0-canvas29 \$0-canvas29_set 29 2 8 0 10 #fcfcfc #404040 0;
#X obj 176 213 cnv 15 15 15 \$0-canvas30 \$0-canvas30_set 30 2 8 0 10 #fcfcfc #404040 0;
#X obj 196 213 cnv 15 15 15 \$0-canvas31 \$0-canvas31_set 31 2 8 0 10 #fcfcfc #404040 0;
#X obj 76 233 bng 15 250 50 0 \$0-click33 \$0-click33_set empty 17 7 0 10 #fcfcfc #000000 #000000;
#X obj 96 233 bng 15 250 50 0 \$0-click34 \$0-click34_set empty 17 7 0 10 #fcfcfc #000000 #000000;
#X obj 116 233 bng 15 250 50 0 \$0-click35 \$0-click35_set empty 17 7 0 10 #fcfcfc #000000 #000000;
#X obj 136 233 bng 15 250 50 0 \$0-click36 \$0-click36_set empty 17 7 0 10 #fcfcfc #000000 #000000;
#X obj 156 233 bng 15 250 50 0 \$0-click37 \$0-click37_set empty 17 7 0 10 #fcfcfc #000000 #000000;
#X obj 176 233 bng 15 250 50 0 \$0-click38 \$0-click38_set empty 17 7 0 10 #fcfcfc #000000 #000000;
#X obj 196 233 bng 15 250 50 0 \$0-click39 \$0-click39_set empty 17 7 0 10 #fcfcfc #000000 #000000;
#X obj 56 233 bng 15 250 50 0 \$0-click32 \$0-click32_set empty 17 7 0 10 #fcfcfc #000000 #000000;
#X obj 56 233 cnv 15 15 15 \$0-canvas32 \$0-canvas32_set 32 2 8 0 10 #fcfcfc #404040 0;
#X obj 76 233 cnv 15 15 15 \$0-canvas33 \$0-canvas33_set 33 2 8 0 10 #fcfcfc #404040 0;
#X obj 96 233 cnv 15 15 15 \$0-canvas34 \$0-canvas34_set 34 2 8 0 10 #fcfcfc #404040 0;
#X obj 116 233 cnv 15 15 15 \$0-canvas35 \$0-canvas35_set 35 2 8 0 10 #fcfcfc #404040 0;
#X obj 136 233 cnv 15 15 15 \$0-canvas36 \$0-canvas36_set 36 2 8 0 10 #fcfcfc #404040 0;
#X obj 156 233 cnv 15 15 15 \$0-canvas37 \$0-canvas37_set 37 2 8 0 10 #fcfcfc #404040 0;
#X obj 176 233 cnv 15 15 15 \$0-canvas38 \$0-canvas38_set 38 2 8 0 10 #fcfcfc #404040 0;
#X obj 196 233 cnv 15 15 15 \$0-canvas39 \$0-canvas39_set 39 2 8 0 10 #fcfcfc #404040 0;
#X obj 76 253 bng 15 250 50 0 \$0-click41 \$0-click41_set empty 17 7 0 10 #fcfcfc #000000 #000000;
#X obj 96 253 bng 15 250 50 0 \$0-click42 \$0-click42_set empty 17 7 0 10 #fcfcfc #000000 #000000;
#X obj 116 253 bng 15 250 50 0 \$0-click43 \$0-click43_set empty 17 7 0 10 #fcfcfc #000000 #000000;
#X obj 136 253 bng 15 250 50 0 \$0-click44 \$0-click44_set empty 17 7 0 10 #fcfcfc #000000 #000000;
#X obj 156 253 bng 15 250 50 0 \$0-click45 \$0-click45_set empty 17 7 0 10 #fcfcfc #000000 #000000;
#X obj 176 253 bng 15 250 50 0 \$0-click46 \$0-click46_set empty 17 7 0 10 #fcfcfc #000000 #000000;
#X obj 196 253 bng 15 250 50 0 \$0-click47 \$0-click47_set empty 17 7 0 10 #fcfcfc #000000 #000000;
#X obj 56 253 bng 15 250 50 0 \$0-click40 \$0-click40_set empty 17 7 0 10 #fcfcfc #000000 #000000;
#X obj 56 253 cnv 15 15 15 \$0-canvas40 \$0-canvas40_set 40 2 8 0 10 #fcfcfc #404040 0;
#X obj 76 253 cnv 15 15 15 \$0-canvas41 \$0-canvas41_set 41 2 8 0 10 #fcfcfc #404040 0;
#X obj 96 253 cnv 15 15 15 \$0-canvas42 \$0-canvas42_set 42 2 8 0 10 #fcfcfc #404040 0;
#X obj 116 253 cnv 15 15 15 \$0-canvas43 \$0-canvas43_set 43 2 8 0 10 #fcfcfc #404040 0;
#X obj 136 253 cnv 15 15 15 \$0-canvas44 \$0-canvas44_set 44 2 8 0 10 #fcfcfc #404040 0;
#X obj 156 253 cnv 15 15 15 \$0-canvas45 \$0-canvas45_set 45 2 8 0 10 #fcfcfc #404040 0;
#X obj 176 253 cnv 15 15 15 \$0-canvas46 \$0-canvas46_set 46 2 8 0 10 #fcfcfc #404040 0;
#X obj 196 253 cnv 15 15 15 \$0-canvas47 \$0-canvas47_set 47 2 8 0 10 #fcfcfc #404040 0;
#X obj 76 273 bng 15 250 50 0 \$0-click49 \$0-click49_set empty 17 7 0 10 #fcfcfc #000000 #000000;
#X obj 96 273 bng 15 250 50 0 \$0-click50 \$0-click50_set empty 17 7 0 10 #fcfcfc #000000 #000000;
#X obj 116 273 bng 15 250 50 0 \$0-click51 \$0-click51_set empty 17 7 0 10 #fcfcfc #000000 #000000;
#X obj 136 273 bng 15 250 50 0 \$0-click52 \$0-click52_set empty 17 7 0 10 #fcfcfc #000000 #000000;
#X obj 156 273 bng 15 250 50 0 \$0-click53 \$0-click53_set empty 17 7 0 10 #fcfcfc #000000 #000000;
#X obj 176 273 bng 15 250 50 0 \$0-click54 \$0-click54_set empty 17 7 0 10 #fcfcfc #000000 #000000;
#X obj 196 273 bng 15 250 50 0 \$0-click55 \$0-click55_set empty 17 7 0 10 #fcfcfc #000000 #000000;
#X obj 56 273 bng 15 250 50 0 \$0-click48 \$0-click48_set empty 17 7 0 10 #fcfcfc #000000 #000000;
#X obj 56 273 cnv 15 15 15 \$0-canvas48 \$0-canvas48_set 48 2 8 0 10 #fcfcfc #404040 0;
#X obj 76 273 cnv 15 15 15 \$0-canvas49 \$0-canvas49_set 49 2 8 0 10 #fcfcfc #404040 0;
#X obj 96 273 cnv 15 15 15 \$0-canvas50 \$0-canvas50_set 50 2 8 0 10 #fcfcfc #404040 0;
#X obj 116 273 cnv 15 15 15 \$0-canvas51 \$0-canvas51_set 51 2 8 0 10 #fcfcfc #404040 0;
#X obj 136 273 cnv 15 15 15 \$0-canvas52 \$0-canvas52_set 52 2 8 0 10 #fcfcfc #404040 0;
#X obj 156 273 cnv 15 15 15 \$0-canvas53 \$0-canvas53_set 53 2 8 0 10 #fcfcfc #404040 0;
#X obj 176 273 cnv 15 15 15 \$0-canvas54 \$0-canvas54_set 54 2 8 0 10 #fcfcfc #404040 0;
#X obj 196 273 cnv 15 15 15 \$0-canvas55 \$0-canvas55_set 55 2 8 0 10 #fcfcfc #404040 0;
#X obj 76 293 bng 15 250 50 0 \$0-click57 \$0-click57_set empty 17 7 0 10 #fcfcfc #000000 #000000;
#X obj 96 293 bng 15 250 50 0 \$0-click58 \$0-click58_set empty 17 7 0 10 #fcfcfc #000000 #000000;
#X obj 116 293 bng 15 250 50 0 \$0-click59 \$0-click59_set empty 17 7 0 10 #fcfcfc #000000 #000000;
#X obj 136 293 bng 15 250 50 0 \$0-click60 \$0-click60_set empty 17 7 0 10 #fcfcfc #000000 #000000;
#X obj 156 293 bng 15 250 50 0 \$0-click61 \$0-click61_set empty 17 7 0 10 #fcfcfc #000000 #000000;
#X obj 176 293 bng 15 250 50 0 \$0-click62 \$0-click62_set empty 17 7 0 10 #fcfcfc #000000 #000000;
#X obj 196 293 bng 15 250 50 0 \$0-click63 \$0-click63_set empty 17 7 0 10 #fcfcfc #000000 #000000;
#X obj 56 293 bng 15 250 50 0 \$0-click56 \$0-click56_set empty 17 7 0 10 #fcfcfc #000000 #000000;
#X obj 56 293 cnv 15 15 15 \$0-canvas56 \$0-canvas56_set 56 2 8 0 10 #fcfcfc #404040 0;
#X obj 76 293 cnv 15 15 15 \$0-canvas57 \$0-canvas57_set 57 2 8 0 10 #fcfcfc #404040 0;
#X obj 96 293 cnv 15 15 15 \$0-canvas58 \$0-canvas58_set 58 2 8 0 10 #fcfcfc #404040 0;
#X obj 116 293 cnv 15 15 15 \$0-canvas59 \$0-canvas59_set 59 2 8 0 10 #fcfcfc #404040 0;
#X obj 136 293 cnv 15 15 15 \$0-canvas60 \$0-canvas60_set 60 2 8 0 10 #fcfcfc #404040 0;
#X obj 156 293 cnv 15 15 15 \$0-canvas61 \$0-canvas61_set 61 2 8 0 10 #fcfcfc #404040 0;
#X obj 176 293 cnv 15 15 15 \$0-canvas62 \$0-canvas62_set 62 2 8 0 10 #fcfcfc #404040 0;
#X obj 196 293 cnv 15 15 15 \$0-canvas63 \$0-canvas63_set 63 2 8 0 10 #fcfcfc #404040 0;
#X obj 276 180 loadbang;
#X obj 276 218 s \$0-lb;
#X obj 333 237 s \$0-totalSlots;
#X text 331 261 DETERMINA EM VÁRIOS PONTOS DO PATCH O NÚMERO TOTAL DE SLOTS, f 29;
#X obj 276 199 t b b;
#X msg 333 218 64;
#N canvas 672 551 345 314 SWITCH 0;
#X obj 140 151 text get \$0-listBox;
#X obj 57 189 list;
#X obj 84 227 text set \$0-listBox;
#X obj 57 246 s \$0-setColor;
#X obj 57 84 r \$0-sw;
#X obj 76 151 s \$0-mv;
#X msg 76 132 \$2 \$1;
#X obj 57 208 t b l;
#X text 43 32 ** MECANISMO PARA INVERTER DOIS SLOTS (UTILIZA MECANISMO DO MOVE), f 37;
#X obj 57 103 t b a a;
#X obj 140 122 unpack f f;
#X connect 0 0 1 1;
#X connect 1 0 7 0;
#X connect 4 0 9 0;
#X connect 6 0 5 0;
#X connect 7 0 3 0;
#X connect 7 1 2 0;
#X connect 9 0 1 0;
#X connect 9 1 6 0;
#X connect 9 2 10 0;
#X connect 10 0 0 0;
#X connect 10 1 2 1;
#X restore 329 417 pd SWITCH;
#X obj 156 456 r \$0-autoTrim;
#X obj 196 314 bng 15 250 50 0 \$0-extras \$0-extras_set + 4 8 0 13 #9c9c9c #fcfcfc #000000;
#N canvas 481 163 464 261 TERMINAL 0;
#X obj 43 104 route cp mv sw;
#X obj 43 190 s \$0-cp;
#X obj 70 171 s \$0-mv;
#X obj 97 152 s \$0-sw;
#X obj 124 123 print LISTBOX_TERMINAL;
#X obj 43 85 list trim;
#X obj 43 66 r \$0-terminal;
#X text 41 30 ** GERENCIA DADOS INSERIDOS NO TERMINAL VIRTUAL DE EDIÇÃO;
#X obj 316 66 r \$0-extras;
#X msg 316 85 vis 1;
#X obj 316 104 s pd-\$0-EXTRAS;
#X text 314 128 VISIBILIDADE DA JANELA EXTRAS, f 15;
#X connect 0 0 1 0;
#X connect 0 1 2 0;
#X connect 0 2 3 0;
#X connect 0 3 4 0;
#X connect 5 0 0 0;
#X connect 6 0 5 0;
#X connect 8 0 9 0;
#X connect 9 0 10 0;
#X restore 329 436 pd TERMINAL;
#N canvas 912 456 334 108 \$0-EXTRAS 0;
#X obj 1 1 cnv 15 331 105 empty empty empty 20 12 0 14 #000000 #404040 0;
#X obj 6 6 cnv 15 100 95 empty empty empty 20 12 0 14 #9c9c9c #404040 0;
#X obj 112 6 cnv 15 215 95 empty empty empty 20 12 0 14 #9c9c9c #404040 0;
#X obj 122 30 cnv 15 170 17 empty empty empty 20 12 0 14 #fcfcfc #404040 0;
#X obj 301 31 bng 15 250 50 0 \$0-terminal_set \$0-null empty 17 7 0 10 #fcfcfc #000000 #000000;
#X obj 16 16 tgl 15 0 \$0-autoTrim_gui \$0-autoTrim_gui_set empty 5 8 0 10 #fcfcfc #000000 #000000 0 1;
#X obj 16 56 tgl 15 0 \$0-autoLoad_gui \$0-autoLoad_gui_set empty 17 7 0 10 #fcfcfc #000000 #000000 0 1;
#X obj 16 36 tgl 15 0 \$0-autoSave_gui \$0-autoSave_gui_set empty 17 7 0 10 #fcfcfc #000000 #000000 0 1;
#X obj 16 76 tgl 15 0 \$0-autoNext_gui \$0-autoNext_gui_set empty 17 7 0 10 #fcfcfc #000000 #000000 0 1;
#X text 35 75 AUTO NEXT;
#X text 35 15 AUTO TRIM;
#X text 120 12 TERMINAL;
#X text 120 53 COPY: cp X Y (Z W...) / cp X all;
#X text 120 67 MOVE: mv X Y (Z W...) / mv X all;
#X text 120 81 SWITCH: sw X Y;
#X text 35 55 AUTO LOAD;
#X text 35 35 AUTO SAVE;
#X listbox 122 30 28 0 0 0 - \$0-terminal_set \$0-terminal 0;
#X restore 406 360 pd \$0-EXTRAS;
#X text 359 51 2 - Auto-Save (0-1);
#X text 359 65 3 - Auto-Load (0-1);
#X text 359 93 5 - ID Local (symbol);
#X obj 196 131 bng 15 250 50 0 \$0-read \$0-read_set R 5 8 0 10 #dcdcdc #fcfcfc #000000;
#X obj 176 131 bng 15 250 50 0 \$0-write \$0-write_set W 5 8 0 10 #7c7c7c #fcfcfc #fcfcfc;
#X obj 331 530 r \$0-superList;
#X text 328 494 LISTA COMPLETA NO DUMP, f 14;
#N canvas 386 361 339 193 DUMP 0;
#X obj 99 56 r \$0-dump;
#X text 37 14 ** ENVIA TODO CONTEÚDO DO [text] PARA SAÍDA;
#X obj 99 113 s \$0-superList;
#X text 96 137 ENVIA O BANCO TODO COMO LISTA PARA SAÍDA, f 23;
#X obj 99 75 t b;
#X obj 99 94 text tolist \$0-listBox;
#X connect 0 0 4 0;
#X connect 4 0 5 0;
#X connect 5 0 2 0;
#X restore 329 360 pd DUMP;
#X obj 331 549 outlet SUPERLIST;
#X obj 278 25 inlet SLOT;
#N canvas 525 240 1066 424 EXTERNAL_CONTROL 0;
#X obj 44 28 inlet;
#X obj 44 105 s \$0-write;
#X obj 44 86 route bang;
#X obj 109 86 symbol;
#X obj 208 86 route bang;
#X obj 273 86 symbol;
#X obj 208 105 s \$0-read;
#X obj 273 105 s \$0-readFile;
#X obj 109 105 s \$0-writeFile;
#X text 689 18 ** GERENCIA ENTRADA DE CONTROLES EXTERNOS;
#X obj 366 105 s \$0-slotSet;
#X obj 453 105 s \$0-load_set;
#X obj 546 105 s \$0-save_set;
#X obj 639 105 s \$0-clear_set;
#X obj 738 105 s \$0-reset_set;
#X obj 837 105 s \$0-edit_set;
#X obj 930 105 s \$0-dump_set;
#X obj 44 239 clip 0 1;
#X obj 106 239 clip 0 1;
#X obj 168 239 clip 0 1;
#X obj 230 239 clip 0 1;
#X obj 44 258 int;
#X obj 106 258 int;
#X obj 168 258 int;
#X obj 230 258 int;
#X obj 44 182 s \$0-cp;
#X obj 101 182 s \$0-mv;
#X obj 215 182 s \$0-next;
#X obj 353 239 s \$0-list;
#X text 420 239 O QUE NÃO FOR COMANDO INTERNO É LISTA PARA MEMÓRIA;
#X obj 109 28 r \$5-;
#X text 150 28 ENTRADA REMOTA ( 5_ARG - );
#X obj 284 182 s \$0-setColor;
#X obj 284 163 bang;
#X obj 44 67 route write read slot load save clear reset edit dump;
#X obj 158 182 s \$0-sw;
#X obj 353 307 memo \$0-memo 4 \$5;
#X obj 44 307 param \$0-autoTrim \$0-memo 0 \$1;
#X obj 44 364 param \$0-autoNext \$0-memo 3 \$4;
#X text 350 331 CONTEXTO SUPERIOR DE MEMÓRIA UTILIZA 5 ARGUMENTO;
#X obj 44 220 route autoTrim autoSave autoLoad autoNext;
#X obj 44 326 param \$0-autoSave \$0-memo 1 \$2;
#X obj 44 345 param \$0-autoLoad \$0-memo 2 \$3;
#X obj 387 28 inlet SUPERLIST;
#X obj 502 28 inlet SLOT;
#X obj 44 144 route cp mv sw next refresh superList;
#X obj 414 181 text fromlist \$0-listBox;
#X text 570 181 ENVIA SUPERLISTA DIRETO PRA MEMÓRIA LOCAL;
#X obj 387 162 t b a;
#X connect 0 0 34 0;
#X connect 2 0 1 0;
#X connect 2 1 3 0;
#X connect 3 0 8 0;
#X connect 4 0 6 0;
#X connect 4 1 5 0;
#X connect 5 0 7 0;
#X connect 17 0 21 0;
#X connect 18 0 22 0;
#X connect 19 0 23 0;
#X connect 20 0 24 0;
#X connect 21 0 37 0;
#X connect 22 0 41 0;
#X connect 23 0 42 0;
#X connect 24 0 38 0;
#X connect 30 0 34 0;
#X connect 33 0 32 0;
#X connect 34 0 2 0;
#X connect 34 1 4 0;
#X connect 34 2 10 0;
#X connect 34 3 11 0;
#X connect 34 4 12 0;
#X connect 34 5 13 0;
#X connect 34 6 14 0;
#X connect 34 7 15 0;
#X connect 34 8 16 0;
#X connect 34 9 45 0;
#X connect 40 0 17 0;
#X connect 40 1 18 0;
#X connect 40 2 19 0;
#X connect 40 3 20 0;
#X connect 40 4 28 0;
#X connect 43 0 48 0;
#X connect 44 0 10 0;
#X connect 45 0 25 0;
#X connect 45 1 26 0;
#X connect 45 2 35 0;
#X connect 45 3 27 0;
#X connect 45 4 33 0;
#X connect 45 5 48 0;
#X connect 45 6 40 0;
#X connect 48 0 32 0;
#X connect 48 1 46 0;
#X restore 50 54 pd EXTERNAL_CONTROL;
#X obj 50 25 inlet LIST/CONTROL;
#X obj 173 25 inlet SUPERLIST;
#N canvas 242 113 893 631 DEFINE_EDIT_READ_WRITE 0;
#X obj 46 261 text define \$0-listBox;
#X msg 46 202 click;
#X text 86 202 EDITAR;
#X obj 46 68 r \$0-edit;
#X text 172 24 ** DEFINE [text] \, GERENCIA EDIÇÃO MANUAL E ESCRITA/LEITURA EM ARQUIVO, f 69;
#X obj 202 367 text size \$0-listBox;
#X obj 202 463 abs;
#X obj 202 482 until;
#X obj 417 481 text delete \$0-listBox;
#X obj 390 443 t b b;
#X obj 390 500 text size \$0-listBox;
#X obj 390 538 sel 1;
#X obj 432 556 t b;
#X text 451 434 SE FOR MAIOR QUE NÚMERO DE SLOTS \, ENTRA EM LOOP APAGANDO AS LINHAS EXCEDENTES, f 33;
#X text 200 525 SE FOR MENOR QUE NÚMERO DE SLOTS \, INSERE LINHAS VAZIAS NO FIM DO [text] ATÉ IGUALAR SLOTS, f 27;
#X obj 202 501 text set \$0-listBox 1e+06;
#X obj 175 280 bang;
#X obj 175 318 s \$0-setColor;
#X text 209 253 ATUALIZA CORES APÓS EDIÇÃO MANUAL E LEITURA DE ARQUIVO, f 19;
#X obj 381 368 r \$0-totalSlots;
#X obj 229 406 + 1;
#X obj 202 425 moses;
#X obj 381 387 t f f f f;
#X obj 417 462 f;
#X obj 390 519 >;
#X obj 202 444 -;
#X obj 175 299 t b b;
#X obj 175 126 symbol;
#X obj 175 145 openpanel;
#X obj 466 201 file splitname;
#X obj 466 220 list split 1;
#X text 569 297 ARMAZENA ÚLTIMA PASTA NAVEGADA;
#X obj 175 164 symbol;
#X obj 553 106 pdcontrol;
#X msg 553 87 dir 99;
#X obj 553 68 loadbang;
#N canvas 23 61 520 543 LONG_NAME_CUT 0;
#X obj 47 100 list fromsymbol;
#X obj 47 32 inlet;
#X obj 47 475 outlet FILENAME;
#X obj 104 147 list length;
#X obj 47 129 t l l;
#X obj 47 295 spigot;
#X obj 147 295 spigot;
#X obj 239 399 t l;
#X obj 168 399 list append;
#X obj 147 418 list;
#X obj 147 314 t b l b l b;
#X obj 104 259 <= 22;
#X obj 204 259 > 22;
#X obj 194 380 list split 7;
#X obj 168 342 list split 9;
#X text 180 148 TESTA POR NÚMERO DE CARACTERES;
#X obj 47 436 list tosymbol;
#X text 135 437 CONVERTE LISTA DE CARACTERES ASCII EM SYMBOL;
#X obj 104 166 t l l l;
#X obj 179 211 sel 0;
#X obj 206 230 t f f f;
#X text 301 254 CASO MAIS CARACTERES DO QUE PONTO DE CORTE \, SEPARA EM INICIO...FIM DO NOME, f 27;
#X msg 178 361 46 46 46;
#X text 236 359 ... (ASCII);
#X text 213 192 LIMITE;
#X obj 179 192 f 18;
#X obj 263 259 - 5;
#X obj 237 314 - 9;
#X obj 179 173 r \$0-lb;
#X text 149 100 CONVERTE SYMBOL EM LISTA DE CARACTERES ASCII;
#X obj 47 71 symbol;
#X connect 0 0 4 0;
#X connect 1 0 30 0;
#X connect 3 0 18 0;
#X connect 4 0 6 0;
#X connect 4 0 5 0;
#X connect 4 1 3 0;
#X connect 5 0 16 0;
#X connect 6 0 10 0;
#X connect 7 0 8 1;
#X connect 8 0 7 0;
#X connect 8 0 9 1;
#X connect 9 0 16 0;
#X connect 10 0 9 0;
#X connect 10 1 14 0;
#X connect 10 2 22 0;
#X connect 10 3 13 0;
#X connect 10 4 8 1;
#X connect 11 0 5 1;
#X connect 12 0 6 1;
#X connect 13 1 8 0;
#X connect 14 0 8 0;
#X connect 16 0 2 0;
#X connect 18 0 11 0;
#X connect 18 1 12 0;
#X connect 18 2 26 0;
#X connect 19 1 20 0;
#X connect 20 0 11 1;
#X connect 20 1 12 1;
#X connect 20 2 27 0;
#X connect 22 0 8 0;
#X connect 25 0 19 0;
#X connect 26 0 13 1;
#X connect 27 0 14 1;
#X connect 28 0 25 0;
#X connect 30 0 0 0;
#X restore 500 249 pd LONG_NAME_CUT;
#X text 608 249 CORTA NOMES MUITO GRANDES PARA EXIBIÇÃO;
#X obj 500 268 s \$0-fileName;
#X obj 175 68 r \$0-read;
#X obj 244 68 r \$0-readFile;
#X obj 175 87 bang;
#X msg 194 202 read \$1;
#X obj 434 108 r \$0-lastFolder;
#X obj 553 135 s \$0-lastFolder;
#X obj 466 297 s \$0-lastFolder;
#X text 620 77 OBTÉM CAMINHO DO NÍVEL MAIS ALTO ONDE A ABSTRAÇÃO FOI INSTANCIADA E INICIALIZA PASTA ATIVA, f 32;
#X obj 359 68 r \$0-write;
#X obj 434 68 r \$0-writeFile;
#X obj 359 126 symbol;
#X obj 359 164 symbol;
#X obj 359 87 bang;
#X obj 359 183 t s s;
#X obj 359 145 savepanel;
#X msg 359 202 write \$1;
#X obj 175 183 t b s s;
#X connect 0 1 16 0;
#X connect 1 0 0 0;
#X connect 3 0 1 0;
#X connect 5 0 21 0;
#X connect 6 0 7 0;
#X connect 7 0 15 0;
#X connect 9 0 10 0;
#X connect 9 1 23 0;
#X connect 10 0 24 0;
#X connect 11 0 12 0;
#X connect 12 0 9 0;
#X connect 16 0 26 0;
#X connect 19 0 22 0;
#X connect 20 0 21 1;
#X connect 21 0 25 0;
#X connect 21 1 9 0;
#X connect 22 0 20 0;
#X connect 22 1 25 1;
#X connect 22 2 24 1;
#X connect 22 3 23 1;
#X connect 23 0 8 0;
#X connect 24 0 11 0;
#X connect 25 0 6 0;
#X connect 26 0 17 0;
#X connect 26 1 5 0;
#X connect 27 0 28 0;
#X connect 28 0 32 0;
#X connect 29 0 30 0;
#X connect 30 0 45 0;
#X connect 30 1 36 0;
#X connect 32 0 55 0;
#X connect 33 0 44 0;
#X connect 34 0 33 0;
#X connect 35 0 34 0;
#X connect 36 0 38 0;
#X connect 39 0 41 0;
#X connect 40 0 32 0;
#X connect 41 0 27 0;
#X connect 42 0 0 0;
#X connect 43 0 27 1;
#X connect 43 0 49 1;
#X connect 47 0 51 0;
#X connect 48 0 50 0;
#X connect 49 0 53 0;
#X connect 50 0 52 0;
#X connect 51 0 49 0;
#X connect 52 0 54 0;
#X connect 52 1 29 0;
#X connect 53 0 50 0;
#X connect 54 0 0 0;
#X connect 55 0 16 0;
#X connect 55 1 42 0;
#X connect 55 2 29 0;
#X restore 51 360 pd DEFINE_EDIT_READ_WRITE;
#X connect 25 0 26 0;
#X connect 26 0 27 0;
#X connect 26 1 28 0;
#X connect 27 0 31 0;
#X connect 28 0 30 0;
#X connect 29 0 27 1;
#X connect 30 0 31 0;
#X connect 31 0 34 0;
#X connect 31 0 41 0;
#X connect 33 0 35 0;
#X connect 39 0 35 0;
#X connect 45 0 50 0;
#X connect 50 0 41 1;
#X connect 164 0 168 0;
#X connect 168 0 165 0;
#X connect 168 1 169 0;
#X connect 169 0 166 0;
#X connect 171 0 29 0;
#X connect 171 0 28 1;
#X connect 180 0 183 0;
#X connect 184 0 185 2;
#X connect 186 0 185 0;
#X connect 187 0 185 1;
#X coords 0 -1 1 1 167 225 1 50 110;
