#N canvas 1243 145 508 643 10;
#X obj 53 233 list split 1;
#X obj 53 271 list;
#X obj 53 290 list split 1;
#X obj 173 385 list;
#X obj 173 404 list split 1;
#X obj 66 319 list;
#X msg 338 461 symbol;
#X obj 194 232 list;
#X obj 66 338 route bang;
#X obj 53 252 t b f f;
#X text 90 548 TAMANHO DE CADA [memo] DESEMPACOTADO, f 22;
#X obj 173 461 makefilename %s_memo_load;
#X obj 152 500 send;
#X obj 53 367 t b a b;
#X obj 173 423 symbol;
#X text 188 500 ENVIA LISTA PARA CADA [memo];
#X obj 92 584 outlet MEMO_SIZE;
#X obj 53 214 t a b b;
#X obj 53 386 del 0;
#X text 50 410 EVITA STACK OVERFLOW, f 8;
#X text 102 319 LOOP;
#X text 231 232 ARMAZENA LISTA DE [memo];
#N canvas 73 126 505 316 CONTEXT 0;
#X obj 137 106 sel symbol;
#X obj 137 68 t b f;
#X obj 212 87 makefilename $%d-;
#X obj 234 137 bang;
#X msg 137 49 1;
#X obj 137 87 symbol \$1-;
#X obj 234 156 list append \$1;
#X obj 234 175 makefilename %s;
#X obj 137 232 makefilename;
#X obj 234 194 makefilename %s-%%s;
#X msg 234 213 set \$1;
#X msg 137 213 set %s;
#X obj 137 30 loadbang;
#X obj 137 271 outlet SYMBOL;
#X obj 40 30 inlet SYMBOL;
#X text 270 137 COM ARGUMENTO;
#X text 336 175 FORÇA COMO SYMBOL;
#X text 361 195 USA COMO PREFIXO;
#X text 218 25 ** SE HOUVER 1 ARGUMENTO \, USA COMO PREFIXO PARA DESIGNAR CONTEXTO DOS [memo] \, SENÃO MANTÉM NOME DOS [memo] COMO NA ENTRADA, f 42;
#X connect 0 0 11 0;
#X connect 0 1 3 0;
#X connect 1 0 5 0;
#X connect 1 1 2 0;
#X connect 2 0 0 1;
#X connect 3 0 6 0;
#X connect 4 0 1 0;
#X connect 5 0 0 0;
#X connect 6 0 7 0;
#X connect 7 0 9 0;
#X connect 8 0 13 0;
#X connect 9 0 10 0;
#X connect 10 0 8 0;
#X connect 11 0 8 0;
#X connect 12 0 4 0;
#X connect 14 0 8 0;
#X restore 173 442 pd CONTEXT;
#X text 270 548 BANG QUANDO TERMINA DE ENVIAR CONTEÚDOS, f 19;
#X text 138 338 IDENTIFICA FIM DO LOOP;
#X obj 272 584 outlet DONE_BANG;
#X obj 53 185 inlet MEMOPACK_LIST;
#X obj 215 185 inlet MEMO_LIST;
#X obj 42 59 cnv 15 425 95 empty empty empty 20 12 0 14 #dcdcdc #404040 0;
#X obj 42 30 cnv 15 425 28 empty empty empty 20 12 0 14 #e0c4fc #404040 0;
#X text 69 118 $CONTEXT (OPCIONAL) = ADICIONA $CONTEXT COMO PREFIXO NOS NOMES DE [memo] PASSADOS NA ENTRADA, f 64;
#X text 49 35 ABSTRAÇÃO [memounpack], f 67;
#X text 49 65 RECEBE LISTA GERADA POR [memopack] E LISTA DOS [memo] PARA ONDE MANDAR OS CONTEÚDOS DESEMPACOTADOS, f 67;
#X text 49 98 ARGUMENTOS: [memounpack $CONTEXT], f 67;
#X connect 0 0 9 0;
#X connect 0 1 1 1;
#X connect 1 0 2 0;
#X connect 2 0 13 0;
#X connect 2 1 5 1;
#X connect 3 0 4 0;
#X connect 4 0 14 0;
#X connect 4 1 3 1;
#X connect 5 0 8 0;
#X connect 6 0 12 1;
#X connect 7 0 3 1;
#X connect 8 0 25 0;
#X connect 8 1 0 0;
#X connect 9 0 1 0;
#X connect 9 1 2 1;
#X connect 9 2 16 0;
#X connect 11 0 12 1;
#X connect 13 0 18 0;
#X connect 13 1 12 0;
#X connect 13 2 3 0;
#X connect 14 0 22 0;
#X connect 17 0 0 0;
#X connect 17 1 6 0;
#X connect 17 2 7 0;
#X connect 18 0 5 0;
#X connect 22 0 11 0;
#X connect 26 0 17 0;
#X connect 27 0 7 1;
