#N canvas 567 110 1003 812 10;
#X obj 42 449 cnv 15 115 38 empty empty empty 20 12 0 14 -232576 -66577
0;
#X obj 558 599 r \$0-memo_bus;
#X obj 558 638 print PARAM_OUT;
#X symbolatom 139 498 18 0 0 0 - - -;
#X msg 139 382 dump;
#X msg 139 411 reset;
#X msg 139 264 write;
#X msg 139 283 read;
#X msg 139 350 edit;
#X text 187 411 REINICIA VALORES DE TODOS OS PARÂMETROS;
#X text 257 498 NOME DO ARQUIVO DE TEXTO ATUAL;
#X text 187 350 EDITA CONTEÚDO DE TODOS OS PARÂMETROS MANUALMENTE
(CTRL+S PARA GUARDAR ALTERAÇÕES), f 49;
#X obj 52 459 memo \$0-memo 10;
#X obj 52 548 list prepend set;
#X obj 52 567 list trim;
#X msg 72 674 0 1 0 1 1 0.2 2 1 0.5 3 1 0.7 4 1 1 5 1 1.02 6 1 2.34
7 1 4.56 8 1 6.78 9 1 8.9;
#X msg 92 716 0 1 68 1 1 29 2 1 60 3 1 -13 4 1 -241 5 1 144 6 1 160
7 1 108 8 1 37 9 1 47;
#X text 187 382 ENVIA CONTEÚDO INTERNO NA SAÍDA ESQUERDA;
#X text 161 548 SISTEMA SIMPLES PARA ARMAZENAR PRESETS COM MÉTODO
DUMP;
#X obj 52 758 s TO_MEMO;
#X obj 52 411 r TO_MEMO;
#X obj 558 144 param \$0-1 \$0-memo 0 10;
#X obj 558 163 param \$0-2 \$0-memo 1 20;
#X obj 558 182 param \$0-3 \$0-memo 2 30;
#X obj 558 201 param \$0-4 \$0-memo 3 40;
#X obj 558 220 param \$0-5 \$0-memo 4 50;
#X obj 558 239 param \$0-6 \$0-memo 5 60;
#X obj 558 258 param \$0-7 \$0-memo 6 70;
#X obj 558 277 param \$0-8 \$0-memo 7 80;
#X obj 558 296 param \$0-9 \$0-memo 8 90;
#X obj 558 315 param \$0-10 \$0-memo 9 100;
#X obj 558 95 route 1 2 3 4 5 6 7 8 9 10;
#X msg 558 66 1 \$1;
#X obj 561 40 hsl 128 15 0 127 0 0 empty empty empty -2 -8 0 10 -262144
-1 -1 0 1;
#X text 186 651 CLIQUE PARA CARREGAR DIFERENTES PRESETS;
#X text 165 459 DECLARAÇÃO DA MEMÓRIA \$0-memo COM 10 PARÂMETROS
;
#X text 609 60 EXEMPLO SIMPLES DE ROTEAMENTO DE CONTROLE EXTERNO PARA
PARÂMETROS, f 33;
#X obj 755 175 cnv 15 160 118 empty empty empty 20 12 0 14 -232576
-66577 0;
#X floatatom 765 185 5 0 0 1 - #0-1_gui_set #0-1_gui;
#X text 801 185 P.1;
#X floatatom 765 205 5 0 0 1 - #0-2_gui_set #0-2_gui;
#X floatatom 765 225 5 0 0 1 - #0-3_gui_set #0-3_gui;
#X floatatom 765 245 5 0 0 1 - #0-4_gui_set #0-4_gui;
#X floatatom 765 265 5 0 0 1 - #0-5_gui_set #0-5_gui;
#X floatatom 845 185 5 0 0 1 - #0-6_gui_set #0-6_gui;
#X floatatom 845 205 5 0 0 1 - #0-7_gui_set #0-7_gui;
#X floatatom 845 225 5 0 0 1 - #0-8_gui_set #0-8_gui;
#X floatatom 845 245 5 0 0 1 - #0-9_gui_set #0-9_gui;
#X floatatom 845 265 5 0 0 1 - #0-10_gui_set #0-10_gui;
#X text 801 205 P.2;
#X text 801 225 P.3;
#X text 801 245 P.4;
#X text 801 265 P.5;
#X text 881 185 P.6;
#X text 881 205 P.7;
#X text 881 225 P.8;
#X text 881 245 P.9;
#X text 881 265 P.10;
#X text 762 139 INTERFACE REMOTA (GUI) DOS PARÂMETROS, f 22;
#X text 657 599 [r $MEMO_bus] - RECEBE TODOS PARÂMETROS / VALORES
;
#X obj 558 440 s \$0-memo_load;
#X obj 558 424 bng 15 250 50 0 empty empty empty 17 7 0 10 -262144
-1 -1;
#X msg 139 313 load;
#X text 663 440 [s $MEMO_load] - FORÇA SAÍDA DOS VALORES DE TODOS
OS PARÂMETROS ORDENADOS POR ÍNDICE, f 43;
#X text 260 216 GRAVA MEMÓRIA EM ARQUIVO;
#X text 260 234 CARREGA MEMÓRIA A PARTIR DE ARQUIVO;
#X msg 89 216 writeFile store/teste1.txt;
#X msg 89 235 readFile store/teste1.txt;
#X text 187 264 GRAVA MEMÓRIA EM ARQUIVO (NAVEGADOR);
#X text 187 283 CARREGA MEMÓRIA A PARTIR DE ARQUIVO (NAVEGADOR);
#X text 187 313 FORÇA SAÍDA DOS VALORES DE TODOS OS PARÂMETROS ORDENADOS
POR ÍNDICE, f 35;
#X text 556 396 MÉTODOS REMOTOS;
#X text 139 188 MÉTODOS LOCAIS;
#X obj 558 514 bng 15 250 50 0 empty empty empty 17 7 0 10 -262144
-1 -1;
#X obj 558 530 s \$0-memo_reset;
#X text 662 529 [s $MEMO_reset] - REINICIA MEMÓRIA, f 43;
#X obj 558 469 bng 15 250 50 0 empty empty empty 17 7 0 10 -262144
-1 -1;
#X obj 558 485 s \$0-memo_dump;
#X text 662 484 [s $MEMO_dump] - MÉTODO DUMP REMOTO, f 43;
#X msg 52 606;
#X obj 42 59 cnv 15 425 105 empty empty empty 20 12 0 14 -228856 -66577
0;
#X obj 42 30 cnv 15 425 28 empty empty empty 20 12 0 14 -232576 -66577
0;
#X text 49 35 ABSTRAÇÃO [memo], f 67;
#X text 49 85 ARGUMENTOS: [memo $MEMO $NUM $CONTEXT], f 67;
#X text 69 105 $MEMO = NOME DA MEMÓRIA (symbol), f 64;
#X text 69 135 $CONTEXT (OPCIONAL) = CONTEXTO SUPERIOR DE AGRUPAMENTO
(symbol), f 64;
#X text 49 65 DECLARA MEMÓRIA DE UM CONJUNTO DE PARÂMETROS [param]
, f 67;
#X text 69 120 $NUM = NÚMERO DE PARÂMETROS GERENCIADOS (float),
f 64;
#X connect 1 0 2 0;
#X connect 4 0 12 1;
#X connect 5 0 12 1;
#X connect 6 0 12 1;
#X connect 7 0 12 1;
#X connect 8 0 12 1;
#X connect 12 0 13 0;
#X connect 12 1 3 0;
#X connect 13 0 14 0;
#X connect 14 0 79 0;
#X connect 15 0 19 0;
#X connect 16 0 19 0;
#X connect 20 0 12 0;
#X connect 31 0 21 0;
#X connect 31 1 22 0;
#X connect 31 2 23 0;
#X connect 31 3 24 0;
#X connect 31 4 25 0;
#X connect 31 5 26 0;
#X connect 31 6 27 0;
#X connect 31 7 28 0;
#X connect 31 8 29 0;
#X connect 31 9 30 0;
#X connect 32 0 31 0;
#X connect 33 0 32 0;
#X connect 61 0 60 0;
#X connect 66 0 12 1;
#X connect 67 0 12 1;
#X connect 73 0 74 0;
#X connect 76 0 77 0;
#X connect 79 0 19 0;
