#N canvas 398 167 984 723 10;
#X obj 62 340 list split 1;
#X obj 62 378 list;
#X obj 89 561 text set \$1;
#X obj 62 359 t b f;
#X text 174 311 RECEBE DADOS DOS [param];
#X text 167 562 ESCREVE NA MEMÓRIA;
#X obj 385 291 until;
#X obj 385 329 f;
#X obj 420 329 + 1;
#X msg 400 310 0;
#X obj 385 386 route bang;
#X obj 385 348 t f f;
#X obj 385 272 text size \$1;
#X obj 368 507 list;
#X obj 385 367 text get \$1;
#X obj 405 489 list prepend;
#X obj 474 508 list;
#X obj 43 195 inlet MEMO_LIST;
#X obj 368 662 outlet MEMO_LIST;
#X obj 405 414 t l l;
#X obj 474 432 list length;
#X obj 405 470 list prepend;
#X obj 405 451 list prepend;
#X obj 62 397 list split 1;
#X obj 62 435 list;
#X obj 62 454 list split 1;
#X text 147 521 LOOP SE FOR MEMO_LIST;
#X obj 75 502 list;
#X obj 62 473 t b l;
#X obj 75 521 route bang;
#X obj 388 224 r \$1_dump;
#X text 410 536 LISTA COM ÍNDICE / NÚM. ÍTENS / ÍTENS DE CADA LINHA DO [text], f 61;
#X obj 368 536 t l l;
#X obj 395 565 s \$1_memoList;
#X text 485 565 ENVIA MEMO_LIST DA INSTÂNCIA;
#X obj 82 311 r \$1_memo_set;
#X obj 63 224 r \$1_memo_load;
#X text 160 224 RECEBE LISTA DO [memounpack];
#X obj 593 195 loadbang;
#X obj 43 253 t b l b;
#X obj 82 272 s \$0_reset;
#X text 155 272 REINICIA MEMÓRIA LOCAL;
#X obj 593 233 s \$1_bang;
#X text 591 257 RECEBE VALOR DOS [param] SE MEMÓRIA FOR RECRIADA, f 24;
#X obj 593 214 del 10;
#X obj 593 643 r \$0-fileName;
#X obj 593 662 outlet ACTIVE_FILE;
#X text 591 307 DEFINE MEMÓRIA E GERENCIA ESCRITA/LEITURA DE ARQUIVO;
#X obj 776 195 inlet EXTERNAL_CONTROL;
#N canvas 302 440 774 171 EXTERNAL_CONTROL 0;
#X obj 47 27 inlet;
#X obj 47 114 s \$0-dump;
#X obj 191 114 s \$0-edit;
#X obj 260 114 s \$0-write;
#X obj 260 95 route bang;
#X obj 325 95 symbol;
#X obj 424 95 route bang;
#X obj 489 95 symbol;
#X obj 424 114 s \$0-read;
#X obj 489 114 s \$0-readFile;
#X obj 325 114 s \$0-writeFile;
#X obj 116 114 s \$1_reset;
#X obj 582 114 s \$1_load;
#X obj 47 76 route dump reset edit write read load get;
#X obj 652 114 s \$0_get;
#X obj 332 27 r \$3_control;
#X obj 332 46 s \$1_control;
#X text 427 27 REPASSA CONTROLES DO CONTEXTO SUPERIOR DE AGRUPAMENTO DO [memo] PARA OS [paream], f 41;
#X connect 0 0 13 0;
#X connect 4 0 3 0;
#X connect 4 1 5 0;
#X connect 5 0 10 0;
#X connect 6 0 8 0;
#X connect 6 1 7 0;
#X connect 7 0 9 0;
#X connect 13 0 1 0;
#X connect 13 1 11 0;
#X connect 13 2 2 0;
#X connect 13 3 4 0;
#X connect 13 4 6 0;
#X connect 13 5 12 0;
#X connect 13 6 14 0;
#X connect 15 0 16 0;
#X restore 776 224 pd EXTERNAL_CONTROL;
#X obj 368 195 r \$0-dump;
#X text 146 340 ÍNDICE;
#X text 146 398 NÚMERO DE ELEMENTOS;
#X text 146 454 ELEMENTOS;
#X text 146 611 CARREGA PARÂMETROS DEPOIS DE DESEMPACOTAR MEMÓRIA, f 25;
#N canvas 55 82 476 400 MEMO_REFRESH 0;
#X obj 48 40 inlet BANG;
#X text 115 158 NÚMERO DE ELEMENTOS NA MEMÓRIA;
#X obj 78 177 until;
#X obj 78 215 f;
#X obj 99 215 + 1;
#X obj 78 234 t f f;
#X msg 93 196 0;
#X obj 78 263 s \$1_refresh;
#X obj 78 158 f \$2;
#X obj 108 90 r \$1_load;
#X text 175 90 MÉTODO PARA ATUALIZAÇÃO REMOTA PELO NOME DO [memo], f 30;
#X text 140 40 ** ATUALIZA ORDENADAMENTE OS VALORES NOS [param] A PARTIR DA MEMÒRIA ATUAL, f 40;
#X text 163 263 ENVIA SEQUÊNCIA DE ÍNDICES DA MEMÓRIA PARA ATUALIZAR ORDENADAMENTE OS [param], f 42;
#X obj 48 312 s \$0-doneLoading;
#X text 156 312 ENVIA BANG PARA SAÍDA QUANDO ACABA DE CARREGAR A MEMÓRIA (SINALIZA MUDANÇA DE PRESET), f 28;
#X obj 48 109 t b b b;
#X connect 0 0 15 0;
#X connect 2 0 3 0;
#X connect 3 0 5 0;
#X connect 4 0 3 1;
#X connect 5 0 7 0;
#X connect 5 1 4 0;
#X connect 6 0 3 1;
#X connect 8 0 2 0;
#X connect 9 0 15 0;
#X connect 15 0 13 0;
#X connect 15 1 8 0;
#X connect 15 2 6 0;
#X restore 43 614 pd MEMO_REFRESH;
#X obj 62 416 t b f f;
#N canvas 957 173 482 222 PARENT_CONTEXT 0;
#X obj 49 49 loadbang;
#X obj 49 68 list append \$1;
#X obj 160 30 r \$3-memo_flush;
#X obj 49 106 s \$3-memo_list;
#X msg 49 87 symbol \$1;
#X text 47 130 ENVIA NOME DA MEMÓRIA LOCAL PARA [memopack] NO CONTEXTO SUPERIOR \, DECLARADO NO \$3, f 43;
#X obj 160 49 t b b;
#X obj 187 78 s \$1_collect;
#X text 272 39 BANG SINALIZANDO COLETA DE DADOS ENVIADO PARA OS PARAM QUE ARMAZENAM ARRAYS E TEXTS, f 24;
#X connect 0 0 1 0;
#X connect 1 0 4 0;
#X connect 2 0 6 0;
#X connect 4 0 3 0;
#X connect 6 0 1 0;
#X connect 6 1 7 0;
#X restore 593 389 pd PARENT_CONTEXT;
#X text 591 367 GERENCIA COMUNICAÇÃO COM CONTEXTO SUPERIOR;
#X obj 42 59 cnv 15 425 100 empty empty empty 20 12 0 14 #dcdcdc #404040 0;
#X obj 42 30 cnv 15 425 28 empty empty empty 20 12 0 14 #e0c4fc #404040 0;
#X text 49 35 ABSTRAÇÃO [memo], f 67;
#X text 49 85 ARGUMENTOS: [memo $MEMO $NUM $CONTEXT], f 67;
#X text 69 105 $MEMO = NOME DA MEMÓRIA (symbol), f 64;
#X text 69 135 $CONTEXT (OPCIONAL) = CONTEXTO SUPERIOR DE AGRUPAMENTO (symbol), f 64;
#X text 49 65 DECLARA MEMÓRIA DE UM CONJUNTO DE PARÂMETROS [param], f 67;
#X text 69 120 $NUM = NÚMERO DE PARÂMETROS GERENCIADOS (float), f 64;
#N canvas 1039 177 1300 640 DEFINE_EDIT_READ_WRITE_GET 0;
#X obj 44 329 cnv 15 98 28 empty empty empty 20 12 0 14 #e0c4fc #404040 0;
#X msg 49 95 click;
#X text 89 95 EDITAR;
#X obj 49 57 r \$0-edit;
#X msg 364 191 write \$1;
#X msg 214 191 read \$1;
#X obj 180 172 t b b s s;
#X obj 318 477 abs;
#X obj 318 496 until;
#X obj 506 457 t b b;
#X obj 506 552 sel 1;
#X obj 548 570 t b;
#X text 567 448 SE FOR MAIOR QUE NÚMERO DE SLOTS \, ENTRA EM LOOP APAGANDO AS LINHAS EXCEDENTES, f 33;
#X text 316 539 SE FOR MENOR QUE NÚMERO DE SLOTS \, INSERE LINHAS VAZIAS NO FIM DO [text] ATÉ IGUALAR SLOTS, f 27;
#X obj 318 439 moses 9;
#X obj 318 458 - 8;
#X obj 506 533 > 8;
#X obj 875 143 loadbang;
#X obj 875 162 f \$2;
#X obj 875 181 sel 0;
#X obj 902 200 until;
#X msg 894 114 clear;
#X obj 875 76 r \$1_reset;
#X text 948 56 REINICIA MEMÓRIA;
#X text 156 334 DEFINE MEMÓRIA COM 1o ARGUMENTO, f 18;
#X text 922 164 DIMENSIONA MEMÓRIA COM 2o ARGUMENTO, f 18;
#X obj 875 57 r \$0_reset;
#X obj 49 334 text define \$1;
#X obj 318 334 text size \$1;
#X obj 357 363 loadbang;
#X obj 357 382 f \$2;
#X obj 357 401 t f f f f;
#X obj 357 420 + 1;
#X obj 533 476 f 8;
#X text 403 334 VERIFICA TAMANHO DA MEMÓRIA ABERTA;
#X obj 533 495 text delete \$1;
#X obj 506 514 text size \$1;
#X obj 180 220 s \$1_load;
#X msg 952 113 symbol;
#X obj 875 95 t b b b;
#X obj 952 132 s \$0-fileName;
#X obj 318 515 text set \$1 1e+09;
#X obj 902 219 text set \$1 1e+09;
#X text 178 243 ATUALIZA OS [param];
#X obj 130 402 s \$1_load;
#X text 128 426 RECARREGA PARÂMETROS QUANDO ALTERA MEMÓRIA MANUALMENTE, f 21;
#X obj 130 383 route updated;
#X text 393 382 INICIALIZA COM 2o ARGUMENTO;
#X text 178 24 ** DECLARA [text] \, GERENCIA EDIÇÃO MANUAL E ESCRITA/LEITURA EM ARQUIVO, f 70;
#X obj 950 76 r \$3_reset;
#X obj 1095 57 r \$0_get;
#X obj 1095 76 r \$1_get;
#X obj 1095 95 i;
#X obj 1095 114 text get \$1;
#X obj 1095 133 route bang;
#X text 1166 56 OBTÉM MEMÓRIA REMOTAMENTE PELO ÍNDICE, f 13;
#X obj 1152 152 s \$1_out;
#X obj 180 115 symbol;
#X obj 180 134 openpanel;
#X obj 578 190 file splitname;
#X obj 578 209 list split 1;
#X text 681 286 ARMAZENA ÚLTIMA PASTA NAVEGADA;
#X obj 180 153 symbol;
#X obj 578 95 pdcontrol;
#X msg 578 76 dir 99;
#X obj 578 57 loadbang;
#N canvas 23 61 520 543 LONG_NAME_CUT 0;
#X obj 47 100 list fromsymbol;
#X obj 47 32 inlet;
#X obj 47 475 outlet FILENAME;
#X obj 104 147 list length;
#X obj 47 129 t l l;
#X obj 47 295 spigot;
#X obj 147 295 spigot;
#X obj 239 399 t l;
#X obj 168 399 list append;
#X obj 147 418 list;
#X obj 147 314 t b l b l b;
#X obj 104 259 <= 22;
#X obj 204 259 > 22;
#X obj 194 380 list split 7;
#X obj 168 342 list split 9;
#X text 180 148 TESTA POR NÚMERO DE CARACTERES;
#X obj 47 436 list tosymbol;
#X text 135 437 CONVERTE LISTA DE CARACTERES ASCII EM SYMBOL;
#X obj 104 166 t l l l;
#X obj 179 211 sel 0;
#X obj 206 230 t f f f;
#X text 301 254 CASO MAIS CARACTERES DO QUE PONTO DE CORTE \, SEPARA EM INICIO...FIM DO NOME, f 27;
#X msg 178 361 46 46 46;
#X text 236 359 ... (ASCII);
#X text 213 192 LIMITE;
#X obj 179 192 f 18;
#X obj 263 259 - 5;
#X obj 237 314 - 9;
#X obj 179 173 r \$0-lb;
#X text 149 100 CONVERTE SYMBOL EM LISTA DE CARACTERES ASCII;
#X obj 47 71 symbol;
#X connect 0 0 4 0;
#X connect 1 0 30 0;
#X connect 3 0 18 0;
#X connect 4 0 6 0;
#X connect 4 0 5 0;
#X connect 4 1 3 0;
#X connect 5 0 16 0;
#X connect 6 0 10 0;
#X connect 7 0 8 1;
#X connect 8 0 7 0;
#X connect 8 0 9 1;
#X connect 9 0 16 0;
#X connect 10 0 9 0;
#X connect 10 1 14 0;
#X connect 10 2 22 0;
#X connect 10 3 13 0;
#X connect 10 4 8 1;
#X connect 11 0 5 1;
#X connect 12 0 6 1;
#X connect 13 1 8 0;
#X connect 14 0 8 0;
#X connect 16 0 2 0;
#X connect 18 0 11 0;
#X connect 18 1 12 0;
#X connect 18 2 26 0;
#X connect 19 1 20 0;
#X connect 20 0 11 1;
#X connect 20 1 12 1;
#X connect 20 2 27 0;
#X connect 22 0 8 0;
#X connect 25 0 19 0;
#X connect 26 0 13 1;
#X connect 27 0 14 1;
#X connect 28 0 25 0;
#X connect 30 0 0 0;
#X restore 612 238 pd LONG_NAME_CUT;
#X text 720 238 CORTA NOMES MUITO GRANDES PARA EXIBIÇÃO, f 21;
#X obj 612 257 s \$0-fileName;
#X obj 180 57 r \$0-read;
#X obj 249 57 r \$0-readFile;
#X obj 180 76 bang;
#X obj 439 97 r \$0-lastFolder;
#X obj 578 124 s \$0-lastFolder;
#X obj 578 286 s \$0-lastFolder;
#X text 645 66 OBTÉM CAMINHO DO NÍVEL MAIS ALTO ONDE A ABSTRAÇÃO FOI INSTANCIADA E INICIALIZA PASTA ATIVA, f 32;
#X obj 364 57 r \$0-write;
#X obj 439 57 r \$0-writeFile;
#X obj 364 115 symbol;
#X obj 364 153 symbol;
#X obj 364 76 bang;
#X obj 364 134 savepanel;
#X obj 364 172 t s s b;
#X obj 437 190 s \$1_collect;
#X text 435 214 BANG SINALIZANDO COLETA DE DADOS ENVIADO PARA OS PARAM QUE ARMAZENAM ARRAYS E TEXTS, f 19;
#X connect 1 0 27 0;
#X connect 3 0 1 0;
#X connect 4 0 27 0;
#X connect 5 0 27 0;
#X connect 6 0 37 0;
#X connect 6 1 28 0;
#X connect 6 2 5 0;
#X connect 6 3 59 0;
#X connect 7 0 8 0;
#X connect 8 0 41 0;
#X connect 9 0 36 0;
#X connect 9 1 33 0;
#X connect 10 0 11 0;
#X connect 11 0 9 0;
#X connect 14 0 15 0;
#X connect 14 1 9 0;
#X connect 15 0 7 0;
#X connect 16 0 10 0;
#X connect 17 0 18 0;
#X connect 18 0 19 0;
#X connect 19 1 20 0;
#X connect 20 0 42 0;
#X connect 21 0 27 0;
#X connect 22 0 39 0;
#X connect 26 0 39 0;
#X connect 27 1 46 0;
#X connect 28 0 14 0;
#X connect 29 0 30 0;
#X connect 30 0 31 0;
#X connect 31 0 32 0;
#X connect 31 1 15 1;
#X connect 31 2 16 1;
#X connect 31 3 33 1;
#X connect 32 0 14 1;
#X connect 33 0 35 0;
#X connect 36 0 16 0;
#X connect 38 0 40 0;
#X connect 39 0 18 0;
#X connect 39 1 21 0;
#X connect 39 2 38 0;
#X connect 46 0 44 0;
#X connect 49 0 39 0;
#X connect 50 0 52 0;
#X connect 51 0 52 0;
#X connect 52 0 53 0;
#X connect 53 0 54 0;
#X connect 54 1 56 0;
#X connect 57 0 58 0;
#X connect 58 0 62 0;
#X connect 59 0 60 0;
#X connect 60 0 74 0;
#X connect 60 1 66 0;
#X connect 62 0 6 0;
#X connect 63 0 73 0;
#X connect 64 0 63 0;
#X connect 65 0 64 0;
#X connect 66 0 68 0;
#X connect 69 0 71 0;
#X connect 70 0 62 0;
#X connect 71 0 57 0;
#X connect 72 0 57 1;
#X connect 72 0 78 1;
#X connect 76 0 80 0;
#X connect 77 0 79 0;
#X connect 78 0 81 0;
#X connect 79 0 82 0;
#X connect 80 0 78 0;
#X connect 81 0 79 0;
#X connect 82 0 4 0;
#X connect 82 1 59 0;
#X connect 82 2 83 0;
#X restore 593 330 pd DEFINE_EDIT_READ_WRITE_GET;
#X obj 776 643 r \$0-doneLoading;
#X obj 776 662 outlet DONE;
#X text 773 620 SINALIZA MUDANÇA DE MEMÓRIA;
#X obj 472 272 s \$1_collect;
#X obj 368 253 t b b b b b;
#X text 470 296 COLETA DADOS DE ARRAY E TEXT, f 15;
#X connect 0 0 3 0;
#X connect 0 1 1 1;
#X connect 1 0 23 0;
#X connect 3 0 1 0;
#X connect 3 1 2 1;
#X connect 6 0 7 0;
#X connect 7 0 8 0;
#X connect 7 0 11 0;
#X connect 8 0 7 1;
#X connect 9 0 7 1;
#X connect 10 1 19 0;
#X connect 11 0 14 0;
#X connect 11 1 21 1;
#X connect 12 0 6 0;
#X connect 13 0 32 0;
#X connect 14 0 10 0;
#X connect 15 0 16 0;
#X connect 15 0 13 1;
#X connect 16 0 15 1;
#X connect 17 0 39 0;
#X connect 19 0 22 0;
#X connect 19 1 20 0;
#X connect 20 0 22 1;
#X connect 21 0 15 0;
#X connect 22 0 21 0;
#X connect 23 0 56 0;
#X connect 23 1 24 1;
#X connect 24 0 25 0;
#X connect 25 0 28 0;
#X connect 25 1 27 1;
#X connect 27 0 29 0;
#X connect 28 0 27 0;
#X connect 28 1 2 0;
#X connect 29 1 0 0;
#X connect 30 0 72 0;
#X connect 32 0 18 0;
#X connect 32 1 33 0;
#X connect 35 0 0 0;
#X connect 36 0 39 0;
#X connect 38 0 44 0;
#X connect 39 0 55 0;
#X connect 39 1 0 0;
#X connect 39 2 40 0;
#X connect 44 0 42 0;
#X connect 45 0 46 0;
#X connect 48 0 49 0;
#X connect 50 0 72 0;
#X connect 56 0 24 0;
#X connect 56 1 25 1;
#X connect 68 0 69 0;
#X connect 72 0 13 0;
#X connect 72 1 12 0;
#X connect 72 2 9 0;
#X connect 72 3 15 1;
#X connect 72 4 71 0;
