#N canvas 1270 146 895 691 10;
#X obj 62 350 list split 1;
#X obj 62 388 list;
#X obj 89 571 text set \$1;
#X obj 62 369 t b f;
#X text 174 321 RECEBE DADOS DOS [param];
#X text 167 572 ESCREVE NA MEMÓRIA;
#X obj 385 301 until;
#X obj 385 339 f;
#X obj 420 339 + 1;
#X msg 400 320 0;
#X obj 385 396 route bang;
#X obj 385 358 t f f;
#X obj 385 282 text size \$1;
#X obj 368 517 list;
#X obj 385 377 text get \$1;
#X obj 405 499 list prepend;
#X obj 474 518 list;
#X obj 368 263 t b b b b;
#X obj 43 205 inlet MEMO_LIST;
#X obj 368 614 outlet MEMO_LIST;
#X obj 405 424 t l l;
#X obj 474 442 list length;
#X obj 405 480 list prepend;
#X obj 405 461 list prepend;
#X obj 62 407 list split 1;
#X obj 62 445 list;
#X obj 62 464 list split 1;
#X text 147 531 LOOP SE FOR MEMO_LIST;
#X obj 75 512 list;
#X obj 62 483 t b l;
#X obj 75 531 route bang;
#X obj 388 234 r \$1_dump;
#X text 410 546 LISTA COM ÍNDICE / NÚM. ÍTENS / ÍTENS DE CADA LINHA
DO [text], f 61;
#X obj 368 546 t l l;
#X obj 395 575 s \$1_memoList;
#X text 485 575 ENVIA MEMO_LIST DA INSTÂNCIA;
#X obj 82 321 r \$1_memo_set;
#X obj 63 234 r \$1_memo_load;
#X text 160 234 RECEBE LISTA DO [memounpack];
#X obj 519 205 loadbang;
#X obj 43 263 t b l b;
#X obj 82 282 s \$0_reset;
#X text 155 282 REINICIA MEMÓRIA LOCAL;
#X obj 519 243 s \$1_bang;
#X text 517 267 RECEBE VALOR DOS [param] SE MEMÓRIA FOR RECRIADA,
f 24;
#X obj 519 224 del 10;
#X obj 720 595 r \$0-fileName;
#X obj 720 614 outlet ACTIVE_FILE;
#X text 517 317 DEFINE MEMÓRIA E GERENCIA ESCRITA/LEITURA DE ARQUIVO
;
#X obj 682 205 inlet EXTERNAL_CONTROL;
#N canvas 599 141 794 176 EXTERNAL_CONTROL 0;
#X obj 47 37 inlet;
#X obj 47 104 s \$0-dump;
#X obj 191 104 s \$0-edit;
#X obj 260 104 s \$0-write;
#X obj 260 85 route bang;
#X obj 325 85 symbol;
#X obj 424 85 route bang;
#X obj 489 85 symbol;
#X obj 424 104 s \$0-read;
#X obj 489 104 s \$0-readFile;
#X obj 325 104 s \$0-writeFile;
#X text 173 18 ** GERENCIA ENTRADA DE CONTROLES EXTERNOS;
#X obj 116 104 s \$1_reset;
#X obj 582 104 s \$1_load;
#X obj 47 66 route dump reset edit write read load get;
#X obj 652 104 s \$0_get;
#X connect 0 0 14 0;
#X connect 4 0 3 0;
#X connect 4 1 5 0;
#X connect 5 0 10 0;
#X connect 6 0 8 0;
#X connect 6 1 7 0;
#X connect 7 0 9 0;
#X connect 14 0 1 0;
#X connect 14 1 12 0;
#X connect 14 2 2 0;
#X connect 14 3 4 0;
#X connect 14 4 6 0;
#X connect 14 5 13 0;
#X connect 14 6 15 0;
#X restore 682 234 pd EXTERNAL_CONTROL;
#X obj 368 205 r \$0-dump;
#X text 146 350 ÍNDICE;
#X text 146 408 NÚMERO DE ELEMENTOS;
#X text 146 464 ELEMENTOS;
#X text 146 611 CARREGA PARÂMETROS DEPOIS DE DESEMPACOTAR MEMÓRIA
, f 25;
#N canvas 5 61 452 328 MEMO_REFRESH 0;
#X obj 48 40 inlet BANG;
#X text 85 138 NÚMERO DE ELEMENTOS NA MEMÓRIA;
#X obj 48 157 until;
#X obj 48 195 f;
#X obj 69 195 + 1;
#X obj 48 109 t b b;
#X obj 48 214 t f f;
#X msg 63 176 0;
#X obj 48 243 s \$1_refresh;
#X obj 48 138 f \$2;
#X obj 108 90 r \$1_load;
#X text 175 90 MÉTODO PARA ATUALIZAÇÃO REMOTA PELO NOME DO [memo]
, f 30;
#X text 140 40 ** ATUALIZA ORDENADAMENTE OS VALORES NOS [param] A PARTIR
DA MEMÒRIA ATUAL, f 40;
#X text 133 243 ENVIA SEQUÊNCIA DE ÍNDICES DA MEMÓRIA PARA ATUALIZAR
ORDENADAMENTE OS [param], f 42;
#X connect 0 0 5 0;
#X connect 2 0 3 0;
#X connect 3 0 6 0;
#X connect 4 0 3 1;
#X connect 5 0 9 0;
#X connect 5 1 7 0;
#X connect 6 0 8 0;
#X connect 6 1 4 0;
#X connect 7 0 3 1;
#X connect 9 0 2 0;
#X connect 10 0 5 0;
#X restore 43 614 pd MEMO_REFRESH;
#X obj 62 426 t b f f;
#N canvas 957 173 378 218 PARENT_CONTEXT 0;
#X obj 49 49 loadbang;
#X obj 49 68 list append \$1;
#X obj 112 49 r \$3-memo_flush;
#X obj 49 106 s \$3-memo_list;
#X msg 49 87 symbol \$1;
#X text 47 130 ENVIA NOME DA MEMÓRIA LOCAL PARA [memopack] NO CONTEXTO
SUPERIOR \, DECLARADO NO \$3, f 43;
#X connect 0 0 1 0;
#X connect 1 0 4 0;
#X connect 2 0 1 0;
#X connect 4 0 3 0;
#X restore 519 399 pd PARENT_CONTEXT;
#X text 517 377 GERENCIA COMUNICAÇÃO COM CONTEXTO SUPERIOR;
#X obj 42 59 cnv 15 425 105 empty empty empty 20 12 0 14 #dcdcdc #404040
0;
#X obj 42 30 cnv 15 425 28 empty empty empty 20 12 0 14 #e0c4fc #404040
0;
#X text 49 35 ABSTRAÇÃO [memo], f 67;
#X text 49 85 ARGUMENTOS: [memo $MEMO $NUM $CONTEXT], f 67;
#X text 69 105 $MEMO = NOME DA MEMÓRIA (symbol), f 64;
#X text 69 135 $CONTEXT (OPCIONAL) = CONTEXTO SUPERIOR DE AGRUPAMENTO
(symbol), f 64;
#X text 49 65 DECLARA MEMÓRIA DE UM CONJUNTO DE PARÂMETROS [param]
, f 67;
#X text 69 120 $NUM = NÚMERO DE PARÂMETROS GERENCIADOS (float),
f 64;
#N canvas 202 146 1058 518 DEFINE_EDIT_READ_WRITE_GET 0;
#X obj 35 209 cnv 15 98 28 empty empty empty 20 12 0 14 #e0c4fc #404040
0;
#X msg 40 85 click;
#X text 80 85 EDITAR;
#X obj 40 47 r \$0-edit;
#X obj 333 85 savepanel;
#X msg 333 123 write \$1;
#X obj 333 47 r \$0-write;
#X obj 398 47 r \$0-writeFile;
#X obj 171 85 openpanel;
#X msg 205 123 read \$1;
#X obj 171 47 r \$0-read;
#X obj 230 47 r \$0-readFile;
#N canvas 30 53 577 778 FILENAME 0;
#X obj 43 88 list fromsymbol;
#X obj 181 135 list split 1;
#X obj 215 154 list;
#X obj 196 298 f;
#X obj 219 298 + 1;
#X obj 43 363 list split;
#X obj 100 135 list length;
#X obj 100 335 -;
#X obj 43 40 inlet PATH;
#X obj 43 69 symbol;
#X msg 211 279 1;
#X obj 181 183 sel 47;
#X obj 196 260 spigot;
#X msg 256 241 0;
#X msg 229 241 1;
#X obj 181 202 t b b;
#X obj 181 317 f;
#X obj 216 202 t b;
#X obj 43 107 t l l l b b;
#X text 227 182 PROCURA PELO CARACTERE 47 "/";
#X text 247 299 CONTA QUANTOS CARACTERES ATÉ A PRIMEIRA "/";
#X text 263 135 DESEMPACOTA LISTA 1 POR 1;
#X text 128 336 DIMINUI DO TOTAL DE CARACTERES PARA DEFINIR PONTO DE
CORTE DO PATH, f 66;
#X text 112 364 SEPARA CONJUNTO DE CARACTERES ATÉ A PRIMEIRA "/" DO
PATH INTEIRO, f 64;
#X text 239 261 TERMINA CONTAGEM QUANDO ACHA A PRIMEIRA "/" DO FIM
PRO COMEÇO, f 43;
#X obj 71 738 outlet FILENAME;
#X text 142 88 CONVERTE PRA LISTA DE CARACTERES ASCII;
#X obj 128 410 list length;
#X obj 71 392 t l l;
#X obj 71 558 spigot;
#X obj 171 558 spigot;
#X obj 263 662 t l;
#X obj 192 662 list append;
#X obj 171 681 list;
#X obj 171 577 t b l b l b;
#X obj 128 522 <= 22;
#X obj 228 522 > 22;
#X obj 218 643 list split 7;
#X obj 192 605 list split 9;
#X text 204 411 TESTA POR NÚMERO DE CARACTERES;
#X obj 71 699 list tosymbol;
#X text 159 700 CONVERTE LISTA DE CARACTERES ASCII EM SYMBOL;
#X obj 128 429 t l l l;
#X obj 203 474 sel 0;
#X obj 230 493 t f f f;
#X text 325 517 CASO MAIS CARACTERES DO QUE PONTO DE CORTE \, SEPARA
EM INICIO...FIM DO NOME, f 27;
#X msg 202 624 46 46 46;
#X text 260 622 ... (ASCII);
#X text 154 16 ** SEPARA NOME DE ARQUIVO DO CAMINHO COMPLETO E CORTA
PARA EXIBIÇÃO SE NECESSÁRIO, f 47;
#X text 237 455 LIMITE;
#X obj 203 455 f 18;
#X obj 287 522 - 5;
#X obj 261 577 - 9;
#X obj 203 436 r \$0-lb;
#X connect 0 0 18 0;
#X connect 1 0 11 0;
#X connect 1 1 2 0;
#X connect 2 0 1 0;
#X connect 3 0 4 0;
#X connect 3 0 16 1;
#X connect 4 0 3 1;
#X connect 5 1 28 0;
#X connect 6 0 7 0;
#X connect 7 0 5 1;
#X connect 8 0 9 0;
#X connect 9 0 0 0;
#X connect 10 0 3 1;
#X connect 11 0 15 0;
#X connect 11 1 17 0;
#X connect 12 0 3 0;
#X connect 13 0 12 1;
#X connect 14 0 12 1;
#X connect 15 0 16 0;
#X connect 15 1 13 0;
#X connect 16 0 7 1;
#X connect 17 0 12 0;
#X connect 18 0 5 0;
#X connect 18 1 6 0;
#X connect 18 2 1 0;
#X connect 18 3 10 0;
#X connect 18 4 14 0;
#X connect 27 0 42 0;
#X connect 28 0 30 0;
#X connect 28 0 29 0;
#X connect 28 1 27 0;
#X connect 29 0 40 0;
#X connect 30 0 34 0;
#X connect 31 0 32 1;
#X connect 32 0 31 0;
#X connect 32 0 33 1;
#X connect 33 0 40 0;
#X connect 34 0 33 0;
#X connect 34 1 38 0;
#X connect 34 2 46 0;
#X connect 34 3 37 0;
#X connect 34 4 32 1;
#X connect 35 0 29 1;
#X connect 36 0 30 1;
#X connect 37 1 32 0;
#X connect 38 0 32 0;
#X connect 40 0 25 0;
#X connect 42 0 35 0;
#X connect 42 1 36 0;
#X connect 42 2 51 0;
#X connect 43 1 44 0;
#X connect 44 0 35 1;
#X connect 44 1 36 1;
#X connect 44 2 52 0;
#X connect 46 0 32 0;
#X connect 50 0 43 0;
#X connect 51 0 37 1;
#X connect 52 0 38 1;
#X connect 53 0 50 0;
#X restore 414 122 pd FILENAME;
#X obj 333 104 t s s;
#X obj 414 141 s \$0-fileName;
#X obj 171 104 t b b s s;
#X obj 309 357 abs;
#X obj 309 376 until;
#X obj 497 337 t b b;
#X obj 497 432 sel 1;
#X obj 539 450 t b;
#X text 558 328 SE FOR MAIOR QUE NÚMERO DE SLOTS \, ENTRA EM LOOP
APAGANDO AS LINHAS EXCEDENTES, f 33;
#X text 307 419 SE FOR MENOR QUE NÚMERO DE SLOTS \, INSERE LINHAS
VAZIAS NO FIM DO [text] ATÉ IGUALAR SLOTS, f 27;
#X obj 309 319 moses 9;
#X obj 309 338 - 8;
#X obj 497 413 > 8;
#X obj 623 133 loadbang;
#X obj 623 152 f \$2;
#X obj 623 171 sel 0;
#X obj 650 190 until;
#X msg 642 104 clear;
#X obj 623 66 r \$1_reset;
#X text 696 46 REINICIA MEMÓRIA;
#X text 147 214 DEFINE MEMÓRIA COM 1o ARGUMENTO, f 18;
#X text 670 154 DIMENSIONA MEMÓRIA COM 2o ARGUMENTO, f 18;
#X obj 623 47 r \$0_reset;
#X obj 40 214 text define \$1;
#X obj 309 214 text size \$1;
#X obj 348 243 loadbang;
#X obj 348 262 f \$2;
#X obj 348 281 t f f f f;
#X obj 348 300 + 1;
#X obj 524 356 f 8;
#X text 394 214 VERIFICA TAMANHO DA MEMÓRIA ABERTA;
#X obj 524 375 text delete \$1;
#X obj 497 394 text size \$1;
#X obj 171 152 s \$1_load;
#X msg 700 103 symbol;
#X obj 623 85 t b b b;
#X obj 700 122 s \$0-fileName;
#X obj 309 395 text set \$1 1e+09;
#X obj 650 209 text set \$1 1e+09;
#X text 169 175 ATUALIZA OS [param];
#X obj 121 282 s \$1_load;
#X text 119 306 RECARREGA PARÂMETROS QUANDO ALTERA MEMÓRIA MANUALMENTE
, f 21;
#X obj 121 263 route updated;
#X text 384 262 INICIALIZA COM 2o ARGUMENTO;
#X text 186 14 ** DECLARA [text] \, GERENCIA EDIÇÃO MANUAL E ESCRITA/LEITURA
EM ARQUIVO, f 70;
#X msg 171 66 symbol ./;
#X msg 333 66 symbol ./;
#X obj 698 66 r \$3_reset;
#X obj 843 47 r \$0_get;
#X obj 843 66 r \$1_get;
#X obj 843 85 i;
#X obj 843 104 text get \$1;
#X obj 843 123 route bang;
#X text 914 46 OBTÉM MEMÓRIA REMOTAMENTE PELO ÍNDICE, f 13;
#X obj 900 142 s \$1_out;
#X connect 1 0 36 0;
#X connect 3 0 1 0;
#X connect 4 0 13 0;
#X connect 5 0 36 0;
#X connect 6 0 59 0;
#X connect 7 0 13 0;
#X connect 8 0 15 0;
#X connect 9 0 36 0;
#X connect 10 0 58 0;
#X connect 11 0 15 0;
#X connect 12 0 14 0;
#X connect 13 0 5 0;
#X connect 13 1 12 0;
#X connect 15 0 46 0;
#X connect 15 1 37 0;
#X connect 15 2 9 0;
#X connect 15 3 12 0;
#X connect 16 0 17 0;
#X connect 17 0 50 0;
#X connect 18 0 45 0;
#X connect 18 1 42 0;
#X connect 19 0 20 0;
#X connect 20 0 18 0;
#X connect 23 0 24 0;
#X connect 23 1 18 0;
#X connect 24 0 16 0;
#X connect 25 0 19 0;
#X connect 26 0 27 0;
#X connect 27 0 28 0;
#X connect 28 1 29 0;
#X connect 29 0 51 0;
#X connect 30 0 36 0;
#X connect 31 0 48 0;
#X connect 35 0 48 0;
#X connect 36 1 55 0;
#X connect 37 0 23 0;
#X connect 38 0 39 0;
#X connect 39 0 40 0;
#X connect 40 0 41 0;
#X connect 40 1 24 1;
#X connect 40 2 25 1;
#X connect 40 3 42 1;
#X connect 41 0 23 1;
#X connect 42 0 44 0;
#X connect 45 0 25 0;
#X connect 47 0 49 0;
#X connect 48 0 27 0;
#X connect 48 1 30 0;
#X connect 48 2 47 0;
#X connect 55 0 53 0;
#X connect 58 0 8 0;
#X connect 59 0 4 0;
#X connect 60 0 48 0;
#X connect 61 0 63 0;
#X connect 62 0 63 0;
#X connect 63 0 64 0;
#X connect 64 0 65 0;
#X connect 65 1 67 0;
#X restore 519 340 pd DEFINE_EDIT_READ_WRITE_GET;
#X connect 0 0 3 0;
#X connect 0 1 1 1;
#X connect 1 0 24 0;
#X connect 3 0 1 0;
#X connect 3 1 2 1;
#X connect 6 0 7 0;
#X connect 7 0 8 0;
#X connect 7 0 11 0;
#X connect 8 0 7 1;
#X connect 9 0 7 1;
#X connect 10 1 20 0;
#X connect 11 0 14 0;
#X connect 11 1 22 1;
#X connect 12 0 6 0;
#X connect 13 0 33 0;
#X connect 14 0 10 0;
#X connect 15 0 16 0;
#X connect 15 0 13 1;
#X connect 16 0 15 1;
#X connect 17 0 13 0;
#X connect 17 1 12 0;
#X connect 17 2 9 0;
#X connect 17 3 15 1;
#X connect 18 0 40 0;
#X connect 20 0 23 0;
#X connect 20 1 21 0;
#X connect 21 0 23 1;
#X connect 22 0 15 0;
#X connect 23 0 22 0;
#X connect 24 0 57 0;
#X connect 24 1 25 1;
#X connect 25 0 26 0;
#X connect 26 0 29 0;
#X connect 26 1 28 1;
#X connect 28 0 30 0;
#X connect 29 0 28 0;
#X connect 29 1 2 0;
#X connect 30 1 0 0;
#X connect 31 0 17 0;
#X connect 33 0 19 0;
#X connect 33 1 34 0;
#X connect 36 0 0 0;
#X connect 37 0 40 0;
#X connect 39 0 45 0;
#X connect 40 0 56 0;
#X connect 40 1 0 0;
#X connect 40 2 41 0;
#X connect 45 0 43 0;
#X connect 46 0 47 0;
#X connect 49 0 50 0;
#X connect 51 0 17 0;
#X connect 57 0 25 0;
#X connect 57 1 26 1;
