#N canvas 948 72 607 579 10;
#X obj 51 445 list;
#X obj 78 320 t b b b;
#X obj 51 250 t b b;
#X obj 371 445 list;
#X obj 78 416 t l l;
#X obj 51 464 memopack;
#X obj 314 464 memounpack;
#X obj 371 483 bng 15 250 50 0 empty empty empty 17 7 0 10 #fcfcfc #000000 #000000;
#X obj 97 339 s \$1-memo_flush;
#X obj 97 368 r \$1-memo_list;
#X obj 181 173 loadbang;
#X text 224 240 AGUARDA SISTEMA INICIAR;
#X obj 181 240 del 5;
#N canvas 5 61 373 243 LISTMAKER 0;
#X obj 147 110 list prepend;
#X obj 147 129 list;
#X obj 238 94 bng 15 250 50 0 empty empty empty 17 7 0 10 #fcfcfc #000000 #000000;
#X obj 37 47 inlet TRIGGER;
#X obj 147 47 inlet LIST;
#X obj 238 47 inlet RESET;
#X obj 126 148 list;
#X obj 126 94 bng 15 250 50 0 empty empty empty 17 7 0 10 #fcfcfc #000000 #000000;
#X obj 126 177 outlet LIST;
#X connect 0 0 1 0;
#X connect 1 0 0 1;
#X connect 1 0 6 1;
#X connect 2 0 0 1;
#X connect 3 0 7 0;
#X connect 4 0 0 0;
#X connect 5 0 2 0;
#X connect 6 0 8 0;
#X connect 7 0 6 0;
#X restore 78 397 pd LISTMAKER;
#X text 200 339 OBTÉM TODOS OS [memo] QUE UTILIZAM O MESMO CONTEXTO DECLARADO NO 1o ARGUMENTO, f 42;
#X obj 51 173 inlet BANG;
#X obj 314 412 inlet MEMOPACK_LIST;
#X text 111 464 EMPACOTA OS DADOS DE TODOS OS [memo], f 18;
#X text 408 464 DESEMPACOTA LISTAS GERADAS PELO [memopack] PARA OS RESPECTIVOS [memo], f 26;
#X obj 51 523 outlet MEMOPACK_LIST;
#X obj 371 523 outlet BANG;
#X text 163 397 ACUMULADOR SIMPLES;
#X obj 331 173 inlet REFRESH_MEMOS;
#X obj 181 192 t b b;
#X obj 51 221 spigot;
#N canvas 1027 348 365 290 CHECK_ARGUMENT 0;
#X obj 69 126 pdcontrol;
#X msg 69 107 args;
#X obj 69 145 route 0;
#X text 136 126 DESLIGA SISTEMA SE NÃO TIVER \$1, f 15;
#X obj 69 68 inlet;
#X text 66 35 ** VERIFICA EXISTÊNCIA DE ARGUMENTO \$1;
#X msg 69 164 0;
#X msg 108 164 1;
#X obj 69 203 s \$0-enable;
#X connect 0 0 2 0;
#X connect 1 0 0 0;
#X connect 2 0 6 0;
#X connect 2 1 7 0;
#X connect 4 0 1 0;
#X connect 6 0 8 0;
#X connect 7 0 8 0;
#X restore 208 211 pd CHECK_ARGUMENT;
#X obj 84 202 r \$0-enable;
#X obj 78 291 spigot;
#X obj 111 272 r \$0-enable;
#X obj 42 59 cnv 15 425 83 empty empty empty 20 12 0 14 #dcdcdc #404040 0;
#X obj 42 30 cnv 15 425 28 empty empty empty 20 12 0 14 #e0c4fc #404040 0;
#X text 49 35 ABSTRAÇÃO [memolist], f 67;
#X text 49 65 EMPACOTA E DESEMPACOTA LISTAS DE [memo] BASEADO EM CONTEXTO REMOTO DECLARADO NO ARGUMENTO DOS MÓDULOS, f 67;
#X text 49 98 ARGUMENTOS: [memolist $CONTEXT], f 67;
#X text 69 118 $CONTEXT = CONTEXTO DE AGRUPAMENTO (symbol), f 64;
#X connect 0 0 5 0;
#X connect 1 0 13 0;
#X connect 1 1 8 0;
#X connect 1 2 13 2;
#X connect 2 0 0 0;
#X connect 2 1 27 0;
#X connect 3 0 6 1;
#X connect 4 0 0 1;
#X connect 4 1 3 0;
#X connect 5 0 19 0;
#X connect 6 1 7 0;
#X connect 7 0 20 0;
#X connect 9 0 13 1;
#X connect 10 0 23 0;
#X connect 12 0 27 0;
#X connect 13 0 4 0;
#X connect 15 0 24 0;
#X connect 16 0 6 0;
#X connect 22 0 27 0;
#X connect 23 0 12 0;
#X connect 23 1 25 0;
#X connect 24 0 2 0;
#X connect 26 0 24 1;
#X connect 27 0 1 0;
#X connect 28 0 27 1;
