#N canvas 527 272 632 417 10;
#X obj 51 285 list;
#X obj 78 160 t b b b;
#X obj 51 141 t b b;
#X obj 371 285 list;
#X obj 78 256 t l l;
#X obj 51 304 memopack;
#X obj 314 304 memounpack;
#X obj 371 323 bng 15 250 50 0 empty empty empty 17 7 0 10 -262144
-1 -1;
#X obj 97 179 s \$1-memo_flush;
#X obj 97 208 r \$1-memo_list;
#X obj 151 93 loadbang;
#X text 194 112 AGUARDA SISTEMA INICIAR;
#X obj 151 112 del 5;
#N canvas 5 61 373 243 LISTMAKER 0;
#X obj 147 110 list prepend;
#X obj 147 129 list;
#X obj 238 94 bng 15 250 50 0 empty empty empty 17 7 0 10 -262144 -1
-1;
#X obj 37 47 inlet TRIGGER;
#X obj 147 47 inlet LIST;
#X obj 238 47 inlet RESET;
#X obj 126 148 list;
#X obj 126 94 bng 15 250 50 0 empty empty empty 17 7 0 10 -262144 -1
-1;
#X obj 126 177 outlet LIST;
#X connect 0 0 1 0;
#X connect 1 0 0 1;
#X connect 1 0 6 1;
#X connect 2 0 0 1;
#X connect 3 0 7 0;
#X connect 4 0 0 0;
#X connect 5 0 2 0;
#X connect 6 0 8 0;
#X connect 7 0 6 0;
#X restore 78 237 pd LISTMAKER;
#X text 200 179 OBTÉM TODOS OS [memo] QUE UTILIZAM O MESMO CONTEXTO
DECLARADO NO 1o ARGUMENTO, f 42;
#X obj 51 93 inlet BANG;
#X obj 314 252 inlet MEMOPACK_LIST;
#X text 111 304 EMPACOTA OS DADOS DE TODOS OS [memo], f 18;
#X text 408 304 DESEMPACOTA LISTAS GERADAS PELO [memopack] PARA OS
RESPECTIVOS [memo], f 26;
#X obj 51 363 outlet MEMOPACK_LIST;
#X obj 371 363 outlet BANG;
#X text 50 19 ** EMPACOTA E DESEMPACOTA LISTAS DE [memo] BASEADO EM
CONTEXTO REMOTO DECLARADO NO ARGUMENTO DOS MÓDULOS;
#X text 163 237 ACUMULADOR SIMPLES;
#X text 50 53 ARGUMENTO: CONTEXTO REMOTO USADO NOS [memo] (symbol)
;
#X obj 391 93 inlet REFRESH_MEMOS;
#X connect 0 0 5 0;
#X connect 1 0 13 0;
#X connect 1 1 8 0;
#X connect 1 2 13 2;
#X connect 2 0 0 0;
#X connect 2 1 1 0;
#X connect 3 0 6 1;
#X connect 4 0 0 1;
#X connect 4 1 3 0;
#X connect 5 0 19 0;
#X connect 6 1 7 0;
#X connect 7 0 20 0;
#X connect 9 0 13 1;
#X connect 10 0 12 0;
#X connect 12 0 1 0;
#X connect 13 0 4 0;
#X connect 15 0 2 0;
#X connect 16 0 6 0;
#X connect 24 0 1 0;
