#N canvas 1535 0 787 968 10;
#X obj 42 49 cnv 15 420 130 empty empty empty 20 12 0 14 #dcdcdc #404040 0;
#X obj 42 20 cnv 15 420 28 empty empty empty 20 12 0 14 #e0c4fc #404040 0;
#X text 51 55 DECLARA PARÂMETROS DE UM CONJUNTO [memo], f 67;
#X text 50 25 ABSTRAÇÃO [param], f 67;
#X text 70 95 $PARAM = NOME DO PARÂMETRO (symbol), f 64;
#X text 70 110 $MEMO = NOME DA MEMÓRIA (symbol), f 64;
#X text 70 125 $INDEX = ÍNDICE NA MEMÓRIA (float), f 64;
#X text 70 155 $INIT (OPCIONAL) = VALOR DE INICIALIZAÇÃO (float \, symbol \, list), f 64;
#X obj 48 510 cnv 15 38 28 empty empty empty 20 12 0 14 #e0c4fc #404040 0;
#X obj 53 210 inlet VALUE;
#X obj 53 909 outlet VALUE;
#X text 174 290 RECEBE VALOR DO GUI;
#X text 180 337 BANG PARA REENVIAR VALOR;
#X text 590 280 REINICIA VALOR;
#X obj 113 289 r \$1_gui;
#X obj 113 337 r \$1_bang;
#X msg 113 356 bang;
#X obj 83 783 s \$1_gui_set;
#X text 188 688 ENVIA P/ MEMÓRIA;
#X obj 53 554 route float symbol list bang;
#X obj 83 726 list prepend set;
#X obj 83 745 list trim;
#X obj 365 280 loadbang;
#X obj 98 668 list prepend \$3;
#X obj 517 280 r \$2_reset;
#X text 408 327 AGUARDA MEMÓRIA INICIALIZAR;
#X obj 167 630 list length;
#X obj 98 649 list prepend;
#X text 246 630 NÚMERO DE ÍTENS (CASO SEJA LISTA);
#X obj 180 909 outlet SET_VALUE;
#X obj 83 764 t a a;
#X obj 113 318 r \$2_bang;
#X obj 53 515 list;
#X obj 110 497 t b a b;
#X obj 53 439 route bang;
#X obj 113 260 r \$1-;
#X text 156 260 RECEBE VALOR REMOTAMENTE;
#X text 200 669 LISTA COM ÍNDICE / NÚMERO DE ÍTENS / ÍTENS;
#X obj 98 687 s \$2_memo_set;
#X obj 433 402 r \$1_set;
#X obj 53 822 spigot 1;
#X obj 68 841 spigot 1;
#X obj 433 421 t b a b;
#X msg 463 440 0;
#X msg 433 440 1;
#X obj 53 612 t a a a a a a;
#X obj 427 851 list prepend \$1;
#X obj 427 870 list trim;
#X obj 427 899 s \$2_bus;
#X text 529 851 PARÂMETRO / VALOR;
#X obj 433 210 inlet SET_VALUE;
#X obj 442 280 r \$1_reset;
#X obj 192 497 t b b;
#X obj 442 299 t b b;
#X obj 433 804 t f f f;
#X obj 427 832 spigot 1;
#X text 167 783 ENVIA P/GUI COM PREFIXO "SET";
#X text 494 403 RECEBE VALOR FRIO REMOTAMENTE;
#X obj 433 459 t f;
#X text 494 440 CHAVE DE ATUALIZAÇÃO FRIA;
#N canvas 771 122 1076 665 ARGUMENTS 0;
#X obj 213 588 outlet;
#X obj 122 43 inlet;
#X obj 122 101 pdcontrol;
#X msg 122 82 args;
#X obj 122 130 list split 3;
#X obj 156 179 route bang;
#X obj 213 529 list;
#X obj 213 198 t a a;
#X obj 213 256 list split 1;
#X obj 265 384 list fromsymbol;
#X obj 265 403 list split 1;
#X obj 265 432 == 45;
#X text 307 432 IDENTIFICA "-";
#X obj 265 461 sel 0 1;
#X obj 213 344 bang;
#X text 249 344 SE PRIMEIRO ITEM FOR NÚMERO JÁ MANDA TUDO PRA SAÍDA;
#X obj 368 460 list tosymbol;
#X obj 213 315 route float symbol;
#X obj 335 479 symbol;
#X obj 50 161 r \$0-LOOPBACK;
#X text 228 179 IDENTIFICA SE AINDA TEM ALGUM ARGUMENTO NA LISTA;
#X obj 335 498 list trim;
#X obj 240 217 s \$0-OG;
#X obj 247 285 s \$0-LEFT;
#X obj 234 510 r \$0-OG;
#X text 314 285 ARGUMENTOS RESTANTES;
#N canvas 1644 312 326 307 ARRAY 0;
#X obj 95 48 inlet;
#X obj 95 87 t b b;
#X obj 95 193 list;
#X obj 95 212 s \$0-LOOPBACK;
#X obj 116 174 r \$0-LEFT;
#X msg 122 106 1;
#X obj 122 125 s \$0-mode;
#X connect 0 0 1 0;
#X connect 1 0 2 0;
#X connect 1 1 5 0;
#X connect 2 0 3 0;
#X connect 4 0 2 1;
#X connect 5 0 6 0;
#X restore 335 567 pd ARRAY;
#N canvas 1644 312 340 307 TEXT 0;
#X obj 115 48 inlet;
#X obj 115 87 t b b;
#X obj 115 193 list;
#X obj 115 212 s \$0-LOOPBACK;
#X obj 136 174 r \$0-LEFT;
#X msg 142 106 2;
#X obj 142 125 s \$0-mode;
#X connect 0 0 1 0;
#X connect 1 0 2 0;
#X connect 1 1 5 0;
#X connect 2 0 3 0;
#X connect 4 0 2 1;
#X connect 5 0 6 0;
#X restore 398 567 pd TEXT;
#N canvas 1644 312 383 307 UNDEFINED 0;
#X obj 95 48 inlet;
#X obj 95 87 t b b;
#X obj 122 125 print FLAG;
#X obj 95 193 list;
#X obj 95 212 s \$0-LOOPBACK;
#X obj 116 174 r \$0-LEFT;
#X msg 122 106 UNDEFINED;
#X connect 0 0 1 0;
#X connect 1 0 3 0;
#X connect 1 1 6 0;
#X connect 3 0 4 0;
#X connect 5 0 3 1;
#X connect 6 0 2 0;
#X restore 918 567 pd UNDEFINED;
#N canvas 1644 312 340 307 INT 0;
#X obj 115 48 inlet;
#X obj 115 87 t b b;
#X obj 115 193 list;
#X obj 115 212 s \$0-LOOPBACK;
#X obj 136 174 r \$0-LEFT;
#X obj 142 125 s \$0-int;
#X msg 142 106 1;
#X connect 0 0 1 0;
#X connect 1 0 2 0;
#X connect 1 1 6 0;
#X connect 2 0 3 0;
#X connect 4 0 2 1;
#X connect 6 0 5 0;
#X restore 455 567 pd INT;
#X text 294 217 LISTA DE ARGUMENTOS ORIGINAL;
#N canvas 1167 253 531 428 CLIP 0;
#X obj 95 68 inlet;
#X obj 95 126 list;
#X obj 129 254 s \$0-LOOPBACK;
#X obj 116 107 r \$0-LEFT;
#X obj 95 155 list split 2;
#X msg 196 173 -clip ERROR;
#X text 194 150 SE TIVER MENOS DE 2 ARGUMENTOS PARA CLIP;
#X text 219 254 ENVIA RESTANTE DA LISTA PARA LOOP;
#X obj 196 192 print PARAM_FLAG_ERROR_\$1;
#X obj 95 294 s \$0-clip;
#X text 162 294 ENVIA LIMITES PARA CLIP;
#X connect 0 0 1 0;
#X connect 1 0 4 0;
#X connect 3 0 1 1;
#X connect 4 0 9 0;
#X connect 4 1 2 0;
#X connect 4 2 5 0;
#X connect 5 0 8 0;
#X restore 506 567 pd CLIP;
#X text 297 256 PROCESSA PRIMEIRO ARMGUMENTO DA LISTA;
#X text 707 528 PROCESSA DIFERENES FLAGS;
#X text 206 130 SEPARA PRIMEIROS 3 ARGUMENTOS OBRIGATÓRIOS;
#X obj 335 528 route array text int clip noslew norandom nodrunk noall skip;
#N canvas 1644 312 340 307 NOSLEW 0;
#X obj 115 48 inlet;
#X obj 115 87 t b b;
#X obj 115 193 list;
#X obj 115 212 s \$0-LOOPBACK;
#X obj 136 174 r \$0-LEFT;
#X msg 142 106 1;
#X obj 142 125 s \$0-noslew;
#X connect 0 0 1 0;
#X connect 1 0 2 0;
#X connect 1 1 5 0;
#X connect 2 0 3 0;
#X connect 4 0 2 1;
#X connect 5 0 6 0;
#X restore 563 567 pd NOSLEW;
#N canvas 1056 243 340 307 NORANDOM 0;
#X obj 115 48 inlet;
#X obj 115 87 t b b;
#X obj 115 193 list;
#X obj 115 212 s \$0-LOOPBACK;
#X obj 136 174 r \$0-LEFT;
#X msg 142 106 1;
#X obj 142 125 s \$0-norandom;
#X connect 0 0 1 0;
#X connect 1 0 2 0;
#X connect 1 1 5 0;
#X connect 2 0 3 0;
#X connect 4 0 2 1;
#X connect 5 0 6 0;
#X restore 632 567 pd NORANDOM;
#N canvas 1049 242 340 307 NODRUNK 0;
#X obj 115 48 inlet;
#X obj 115 87 t b b;
#X obj 115 193 list;
#X obj 115 212 s \$0-LOOPBACK;
#X obj 136 174 r \$0-LEFT;
#X msg 142 106 1;
#X obj 142 125 s \$0-nodrunk;
#X connect 0 0 1 0;
#X connect 1 0 2 0;
#X connect 1 1 5 0;
#X connect 2 0 3 0;
#X connect 4 0 2 1;
#X connect 5 0 6 0;
#X restore 713 567 pd NODRUNK;
#N canvas 1644 312 340 307 NOALL 0;
#X obj 115 48 inlet;
#X obj 115 87 t b b;
#X obj 115 193 list;
#X obj 115 212 s \$0-LOOPBACK;
#X obj 136 174 r \$0-LEFT;
#X msg 142 106 1;
#X obj 142 125 s \$0-noall;
#X connect 0 0 1 0;
#X connect 1 0 2 0;
#X connect 1 1 5 0;
#X connect 2 0 3 0;
#X connect 4 0 2 1;
#X connect 5 0 6 0;
#X restore 788 567 pd NOALL;
#N canvas 1644 312 340 307 SKIP 0;
#X obj 115 48 inlet;
#X obj 115 87 t b b;
#X obj 115 193 list;
#X obj 115 212 s \$0-LOOPBACK;
#X obj 136 174 r \$0-LEFT;
#X msg 142 106 1;
#X obj 142 125 s \$0-skip;
#X connect 0 0 1 0;
#X connect 1 0 2 0;
#X connect 1 1 5 0;
#X connect 2 0 3 0;
#X connect 4 0 2 1;
#X connect 5 0 6 0;
#X restore 851 567 pd SKIP;
#X connect 1 0 3 0;
#X connect 2 0 4 0;
#X connect 3 0 2 0;
#X connect 4 1 5 0;
#X connect 5 1 7 0;
#X connect 6 0 0 0;
#X connect 7 0 8 0;
#X connect 7 1 22 0;
#X connect 8 0 17 0;
#X connect 8 1 23 0;
#X connect 9 0 10 0;
#X connect 10 0 11 0;
#X connect 10 1 16 0;
#X connect 11 0 13 0;
#X connect 13 0 6 0;
#X connect 13 1 18 0;
#X connect 14 0 6 0;
#X connect 16 0 18 1;
#X connect 17 0 14 0;
#X connect 17 1 9 0;
#X connect 18 0 21 0;
#X connect 19 0 5 0;
#X connect 21 0 35 0;
#X connect 24 0 6 1;
#X connect 35 0 26 0;
#X connect 35 1 27 0;
#X connect 35 2 29 0;
#X connect 35 3 31 0;
#X connect 35 4 36 0;
#X connect 35 5 37 0;
#X connect 35 6 38 0;
#X connect 35 7 39 0;
#X connect 35 8 40 0;
#X connect 35 9 28 0;
#X restore 365 356 pd ARGUMENTS;
#X obj 365 327 del 2;
#N canvas 1863 86 653 357 ARRAY/TEXT 0;
#X obj 296 76 r \$2_collect;
#X text 294 40 SINAL PARA COLETA DE DADOS DE ARRAYS E TEXTS ENVIADO DO [memo], f 32;
#X obj 296 115 r \$0-mode;
#X obj 75 47 inlet BANG;
#X obj 195 172 spigot;
#X obj 228 153 == 1;
#X obj 195 201 array get \$1;
#X obj 302 172 spigot;
#X obj 335 153 == 2;
#X obj 195 94 t b b;
#X obj 302 201 text tolist \$1;
#X obj 75 279 outlet;
#X text 412 132 ** GERENCIA COMUNICAÇÃO ENTRE INSTÂNCIA DO [param] E ARRAY OU TEXT QUANDO USA FLAGS, f 29;
#X obj 75 76 t b b;
#X obj 296 134 t f f f;
#X obj 75 172 spigot 1;
#X obj 120 153 == 0;
#X text 123 279 PASSA BANG PARA ENTRADA DO [list] NO MODO 0;
#X obj 195 240 outlet;
#X text 243 240 PASSA CONTEÚDO PARA ENTRADA DO [list] NOS MODOS 1 E 2;
#X connect 0 0 9 0;
#X connect 2 0 14 0;
#X connect 3 0 13 0;
#X connect 4 0 6 0;
#X connect 5 0 4 1;
#X connect 6 0 18 0;
#X connect 7 0 10 0;
#X connect 8 0 7 1;
#X connect 9 0 4 0;
#X connect 9 1 7 0;
#X connect 10 0 18 0;
#X connect 13 0 15 0;
#X connect 13 1 9 0;
#X connect 14 0 16 0;
#X connect 14 1 5 0;
#X connect 14 2 8 0;
#X connect 15 0 11 0;
#X connect 16 0 15 1;
#X restore 53 468 pd ARRAY/TEXT;
#N canvas 0 0 526 417 MEMO 0;
#X obj 72 234 f \$3;
#X obj 72 253 text get \$2;
#X obj 72 215 sel \$3;
#X text 121 215 CARREGA QUANDO RECEBE ÍNDICE LOCAL ESPECÍFICO;
#X obj 72 109 r \$2_refresh;
#X text 156 109 CARREGA VALOR DA MEMÓRIA DO [memo];
#X obj 72 272 route bang;
#X text 144 272 FILTRA PARÂMETROS VAZIOS;
#X obj 129 291 t a b;
#X obj 156 310 s \$0-loaded;
#X obj 129 349 outlet;
#X text 70 53 ** RECEBE DADOS A PARTIR DO [memo] QUE GERENCIA O CONTEXTO DECLARADO NO \$2, f 38;
#X text 234 310 ENVIA BANG QUANDO RECEBE MEMÓRIA PARA MECANISMO DE SLEW, f 32;
#X obj 72 176 spigot 1;
#X obj 117 138 r \$0-skip;
#X obj 117 157 == 0;
#X text 184 138 SKIP LIGADO IGNORA DADOS DE MEMÓRIA NA ENTRADA;
#X connect 0 0 1 0;
#X connect 1 0 6 0;
#X connect 2 0 0 0;
#X connect 4 0 13 0;
#X connect 6 1 8 0;
#X connect 8 0 10 0;
#X connect 8 1 9 0;
#X connect 13 0 2 0;
#X connect 14 0 15 0;
#X connect 15 0 13 1;
#X restore 113 385 pd MEMO;
#X text 168 385 RECEBE VALOR DO [memo];
#X text 487 899 ENVIA PARA BUS DO CONTEXTO;
#N canvas 815 281 647 376 REMOTE_OUT 0;
#X obj 354 101 r \$0-mode;
#X obj 233 158 spigot;
#X obj 266 139 == 1;
#X obj 360 158 spigot;
#X obj 393 139 == 2;
#X obj 260 216 array set \$1;
#X obj 387 216 text fromlist \$1;
#X obj 73 50 inlet;
#X obj 73 89 t a a a;
#X obj 354 120 t f f f;
#X obj 118 139 == 0;
#X obj 73 158 spigot 1;
#X obj 73 276 s \$1;
#X text 109 276 ENVIA P/ PATCH;
#X text 116 50 ROTEIA SAÍDA REMOTA DO [param] DE ACORDO COM MODO;
#X obj 233 187 t a a;
#X obj 360 187 t a a;
#X obj 233 276 s \$1_data;
#X text 446 160 ENVIA CONTEÚDO PARA ARRAY OU TEXT DE ACORDO COM FLAG, f 19;
#X text 309 263 ENVIA CONTEÚDO PARA PATCH COM SUFIXO _data NECESSÁRIO PARA EVITAR INTERFERÊNCIA COM MÉTODOS DOS OBJETOS [array] E [text define], f 43;
#X connect 0 0 9 0;
#X connect 1 0 15 0;
#X connect 2 0 1 1;
#X connect 3 0 16 0;
#X connect 4 0 3 1;
#X connect 7 0 8 0;
#X connect 8 0 11 0;
#X connect 8 1 1 0;
#X connect 8 2 3 0;
#X connect 9 0 10 0;
#X connect 9 1 2 0;
#X connect 9 2 4 0;
#X connect 10 0 11 1;
#X connect 11 0 12 0;
#X connect 15 0 17 0;
#X connect 15 1 5 0;
#X connect 16 0 17 0;
#X connect 16 1 6 0;
#X restore 68 870 pd REMOTE_OUT;
#X text 144 455 RECEBE CONTEÚDO DE ARRAY OU TEXT (USANDO FLAGS), f 32;
#X text 159 870 SAÍDA REMOTA PARA PATCH OU ARRAY/TEXT;
#N canvas 1462 348 439 505 FLOAT 0;
#N canvas 1475 200 1024 692 SLEW 0;
#N canvas 0 50 450 250 (subpatch) 0;
#X array \$0-curveArray 256 float 2;
#X coords 0 1 256 0 200 140 1 0 0;
#X restore 766 470 graph;
#X obj 365 482 int;
#X obj 365 520 * 1;
#X obj 163 407 t f b;
#X text 224 426 VALOR ATUAL;
#X obj 163 464 -;
#X obj 190 426 f 0;
#X obj 163 483 sel 0;
#X text 196 464 DELTA;
#X obj 190 502 t b f;
#X obj 190 445 t f f;
#X obj 365 539 +;
#X msg 515 386 0;
#X obj 365 386 f 255;
#X floatatom 738 119 5 0 0 0 - - - 0;
#X obj 793 363 array size \$0-curveArray;
#X obj 766 344 t f f;
#X obj 392 367 - 1;
#X obj 365 405 pack 255 0;
#X obj 365 319 t b b;
#X obj 416 444 r \$0-grain;
#X obj 365 463 line 0 20;
#X obj 365 501 tabread \$0-curveArray;
#X floatatom 495 119 5 0 0 0 - - - 0;
#X floatatom 588 119 5 0 0 0 - - - 0;
#X obj 588 137 s \$0-curve;
#X obj 578 411 until;
#X obj 578 459 f;
#X obj 605 459 + 1;
#X msg 593 440 0;
#X obj 578 478 t f f f;
#X obj 578 497 / 255;
#X obj 578 516 pow 1;
#X obj 578 392 f 256;
#X obj 578 325 r \$0-curve;
#X obj 578 363 t b b;
#X obj 578 344 t b f;
#X obj 578 535 tabwrite \$0-curveArray;
#X obj 712 363 - 1;
#X obj 766 392 pipe 10;
#X obj 673 344 t b f f;
#X floatatom 663 119 5 0 0 0 - - - 0;
#X obj 663 137 s \$0-grain;
#X obj 766 411 s \$0-res;
#X obj 673 325 r \$0-res;
#X obj 392 348 r \$0-res;
#X obj 738 137 s \$0-resolution;
#X obj 766 325 r \$0-resolution;
#X obj 57 62 inlet FLOAT;
#X obj 76 621 outlet FLOAT;
#X obj 76 364 spigot 1;
#X obj 163 364 spigot 0;
#X obj 121 345 == 0;
#X obj 76 312 t f f;
#X msg 495 81 0 1 20 256;
#X obj 495 100 unpack f f f f;
#X obj 495 62 loadbang;
#X obj 684 82 route list float;
#X obj 777 101 route curve grain resolution;
#X obj 76 557 f;
#X obj 76 576 t f f;
#X msg 328 445 stop;
#X obj 312 112 f;
#X obj 181 326 t f f;
#X msg 181 109 1;
#X msg 211 109 0;
#X obj 312 131 > 0;
#X obj 57 91 t b f b;
#X obj 181 307 change;
#X obj 181 62 r \$0-loaded;
#X obj 269 185 r \$0-noslew;
#X obj 269 241 == 0;
#X obj 269 260 t b f;
#X obj 350 185 r \$0-noall;
#X obj 269 222 ||;
#X obj 350 204 t b f;
#X text 423 185 IGNORA SLEW DE ACORDO COM FLAGS OU CONTROLE LOCAL, f 25;
#X obj 181 149 && 1;
#X obj 181 278 && 1;
#X obj 684 63 r \$0-slew;
#X obj 495 137 s \$0-slewTime;
#X obj 312 93 r \$0-slewTime;
#X obj 422 386 r \$0-slewTime;
#X text 179 26 HABILITA SLEW A PARTIR DE MEMÓRIA, f 17;
#X obj 312 62 inlet ENABLE;
#X text 309 26 HABILITA SLEW A PARTIR DO RANDOM E DRUNK, f 22;
#X connect 1 0 22 0;
#X connect 2 0 11 0;
#X connect 3 0 5 0;
#X connect 3 1 6 0;
#X connect 5 0 7 0;
#X connect 6 0 10 0;
#X connect 7 1 9 0;
#X connect 9 0 19 0;
#X connect 9 1 2 1;
#X connect 10 0 5 1;
#X connect 10 1 11 1;
#X connect 11 0 59 0;
#X connect 12 0 21 0;
#X connect 13 0 18 0;
#X connect 14 0 46 0;
#X connect 16 0 39 0;
#X connect 16 1 15 0;
#X connect 17 0 13 1;
#X connect 18 0 21 0;
#X connect 19 0 13 0;
#X connect 19 1 12 0;
#X connect 20 0 21 2;
#X connect 21 0 1 0;
#X connect 22 0 2 0;
#X connect 23 0 80 0;
#X connect 24 0 25 0;
#X connect 26 0 27 0;
#X connect 27 0 30 0;
#X connect 28 0 27 1;
#X connect 29 0 27 1;
#X connect 30 0 31 0;
#X connect 30 1 28 0;
#X connect 30 2 37 1;
#X connect 31 0 32 0;
#X connect 32 0 37 0;
#X connect 33 0 26 0;
#X connect 34 0 36 0;
#X connect 35 0 33 0;
#X connect 35 1 29 0;
#X connect 36 0 35 0;
#X connect 36 1 32 1;
#X connect 38 0 31 1;
#X connect 39 0 43 0;
#X connect 40 0 35 0;
#X connect 40 1 33 1;
#X connect 40 2 38 0;
#X connect 41 0 42 0;
#X connect 44 0 40 0;
#X connect 45 0 17 0;
#X connect 47 0 16 0;
#X connect 48 0 67 0;
#X connect 50 0 59 0;
#X connect 51 0 3 0;
#X connect 52 0 50 1;
#X connect 53 0 50 0;
#X connect 53 1 51 0;
#X connect 54 0 55 0;
#X connect 55 0 23 0;
#X connect 55 1 24 0;
#X connect 55 2 41 0;
#X connect 55 3 14 0;
#X connect 56 0 54 0;
#X connect 57 0 55 0;
#X connect 57 1 23 0;
#X connect 57 2 58 0;
#X connect 58 0 24 0;
#X connect 58 1 41 0;
#X connect 58 2 14 0;
#X connect 59 0 60 0;
#X connect 60 0 49 0;
#X connect 60 1 6 1;
#X connect 61 0 21 0;
#X connect 62 0 66 0;
#X connect 63 0 52 0;
#X connect 63 1 51 1;
#X connect 64 0 77 0;
#X connect 65 0 77 0;
#X connect 66 0 77 1;
#X connect 67 0 65 0;
#X connect 67 1 53 0;
#X connect 67 2 61 0;
#X connect 68 0 63 0;
#X connect 69 0 64 0;
#X connect 70 0 74 0;
#X connect 71 0 72 0;
#X connect 72 0 78 0;
#X connect 72 1 78 1;
#X connect 73 0 75 0;
#X connect 74 0 71 0;
#X connect 75 0 74 0;
#X connect 75 1 74 1;
#X connect 77 0 78 0;
#X connect 78 0 68 0;
#X connect 79 0 57 0;
#X connect 81 0 62 0;
#X connect 82 0 18 1;
#X connect 84 0 64 0;
#X restore 84 220 pd SLEW;
#X obj 84 87 inlet;
#X obj 84 419 outlet;
#X text 81 37 ** GERENCIA OPERAÇÔES POSSÍVEIS COM FLOAT;
#N canvas 902 246 398 338 INT 0;
#X obj 84 57 inlet;
#X obj 84 242 outlet;
#X obj 84 96 t f f;
#X obj 183 165 spigot;
#X obj 189 127 t f f;
#X obj 129 146 == 0;
#X obj 84 165 spigot 1;
#X obj 216 146 == 1;
#X obj 189 108 r \$0-int;
#X obj 183 194 int;
#X text 162 53 ** RESTRINGE NÚMERO PARA INTEIRO COM [int] DE ACORDO COM FLAG, f 32;
#X connect 0 0 2 0;
#X connect 2 0 6 0;
#X connect 2 1 3 0;
#X connect 3 0 9 0;
#X connect 4 0 5 0;
#X connect 4 1 7 0;
#X connect 5 0 6 1;
#X connect 6 0 1 0;
#X connect 7 0 3 1;
#X connect 8 0 4 0;
#X connect 9 0 1 0;
#X restore 84 269 pd INT;
#N canvas 870 418 409 394 CLIP 0;
#X obj 84 57 inlet;
#X obj 84 292 outlet;
#X obj 84 96 t f f;
#X obj 183 205 spigot;
#X obj 189 168 t f f;
#X obj 84 205 spigot 1;
#X obj 240 205 unpack f f;
#X obj 189 111 r \$0-clip;
#X obj 129 186 == 0;
#X obj 189 130 t b l;
#X obj 183 244 clip 0 1;
#X msg 189 149 1;
#X text 162 53 ** RESTRINGE NÚMERO COM [clip] DE ACORDO COM FLAG, f 25;
#X connect 0 0 2 0;
#X connect 2 0 5 0;
#X connect 2 1 3 0;
#X connect 3 0 10 0;
#X connect 4 0 8 0;
#X connect 4 1 3 1;
#X connect 5 0 1 0;
#X connect 6 0 10 1;
#X connect 6 1 10 2;
#X connect 7 0 9 0;
#X connect 8 0 5 1;
#X connect 9 0 11 0;
#X connect 9 1 6 0;
#X connect 10 0 1 0;
#X connect 11 0 4 0;
#X restore 84 318 pd CLIP;
#N canvas 512 151 768 716 RANDOM 0;
#X obj 45 351 bng 18 250 50 0 empty empty empty 0 -9 0 10 #fcfcfc #000000 #000000;
#X obj 307 483 min;
#X obj 323 464 t b f;
#X obj 266 464 t b f;
#X obj 250 483 max;
#X obj 75 369 random 1e+06;
#X obj 250 435 t f f;
#X obj 250 520 -;
#X obj 296 435 t f f;
#X obj 184 539 *;
#X obj 184 568 +;
#X obj 307 502 t f f;
#X obj 250 406 swap;
#X obj 75 407 t f f;
#X obj 184 463 spigot;
#X obj 190 426 t f f;
#X obj 75 463 spigot 1;
#X obj 120 444 == 0;
#X obj 190 388 t b l;
#X msg 190 407 1;
#X obj 75 262 route bang float list;
#X obj 143 330 list prepend 0;
#X text 265 262 - BANG DISPARA RANDOM COM ÚLTIMA CONFIGURAÇÃO (PADRÃO 0-1);
#X text 265 282 - FLOAT DISPARA RANDOM ENTRE 0-FLOAT;
#X text 265 302 - LIST DISPARA RANDOM ENTRE LIMITES MIN-MAX;
#X obj 234 53 r \$0-norand;
#X obj 314 53 r \$0-noall;
#X obj 234 215 == 0;
#X obj 234 90 ||;
#X obj 314 72 t b f;
#X obj 75 233 spigot 1;
#X text 386 53 CHAVES DE BLOQUEIO LOCAL DA FUNÇÃO;
#X obj 234 157 ||;
#X obj 314 139 t b f;
#X obj 314 101 r \$0-isfloat;
#X obj 314 120 == 0;
#X text 398 101 HABILITA APENAS SE ÚLTIMO DADO PROCESSADO FOR FLOAT;
#X obj 116 291 t b f;
#X obj 157 291 t b l;
#X obj 75 388 / 1e+06;
#X obj 378 130 r \$0-mode;
#X obj 378 149 != 0;
#X obj 234 186 ||;
#X obj 378 168 t b f;
#X text 444 130 DESABILITA NOS MODOS ARRAY E TEXT;
#X obj 75 53 r \$0-random;
#X obj 75 606 t f b;
#X obj 75 645 outlet FLOAT;
#X obj 185 645 outlet ENABLE_SLEW;
#X connect 0 0 5 0;
#X connect 1 0 11 0;
#X connect 2 0 1 0;
#X connect 2 1 1 1;
#X connect 3 0 4 0;
#X connect 3 1 4 1;
#X connect 4 0 7 0;
#X connect 5 0 39 0;
#X connect 6 0 4 0;
#X connect 6 1 1 0;
#X connect 7 0 9 1;
#X connect 8 0 3 0;
#X connect 8 1 2 0;
#X connect 9 0 10 0;
#X connect 10 0 46 0;
#X connect 11 0 7 1;
#X connect 11 1 10 1;
#X connect 12 0 6 0;
#X connect 12 1 8 0;
#X connect 13 0 16 0;
#X connect 13 1 14 0;
#X connect 14 0 9 0;
#X connect 15 0 17 0;
#X connect 15 1 14 1;
#X connect 16 0 46 0;
#X connect 17 0 16 1;
#X connect 18 0 19 0;
#X connect 18 1 12 0;
#X connect 19 0 15 0;
#X connect 20 0 5 0;
#X connect 20 1 37 0;
#X connect 20 2 38 0;
#X connect 21 0 18 0;
#X connect 25 0 28 0;
#X connect 26 0 29 0;
#X connect 27 0 30 1;
#X connect 28 0 32 0;
#X connect 29 0 28 0;
#X connect 29 1 28 1;
#X connect 30 0 20 0;
#X connect 32 0 42 0;
#X connect 33 0 32 0;
#X connect 33 1 32 1;
#X connect 34 0 35 0;
#X connect 35 0 33 0;
#X connect 37 0 5 0;
#X connect 37 1 21 0;
#X connect 38 0 5 0;
#X connect 38 1 18 0;
#X connect 39 0 13 0;
#X connect 40 0 41 0;
#X connect 41 0 43 0;
#X connect 42 0 27 0;
#X connect 43 0 42 0;
#X connect 43 1 42 1;
#X connect 45 0 30 0;
#X connect 46 0 47 0;
#X connect 46 1 48 0;
#X restore 171 202 pd RANDOM;
#N canvas 498 82 871 699 DRUNK 0;
#X obj 75 436 random 1e+06;
#X obj 75 484 * 0.1;
#X obj 75 277 route bang float list;
#X obj 116 306 t b f;
#X obj 184 325 unpack f f;
#X obj 143 343 t f;
#X text 117 484 TAMANHO MÁXIMO DO PASSO (PADRÃO 0.1);
#X obj 186 384 random 1e+06;
#X obj 186 403 / 1e+06;
#X obj 186 422 * 100;
#X obj 186 441 expr if($f1 <= $f2 \, 1 \, -1);
#X obj 75 513 * 1;
#X text 375 422 PROBABILIDADE DE PASSO POSOTIVO;
#X obj 75 542 +;
#X obj 119 524 r \$0-last;
#X text 185 524 RECEBE ÚLTIMO VALOR PROCESSADO;
#X obj 339 422 f 50;
#X obj 75 366 t b b b;
#X obj 157 306 t b l;
#X obj 75 248 spigot 1;
#X text 315 277 - BANG DISPARA DRUNK WALK COM ÚLTIMA CONFIGURAÇÃO (PADRÃO PASSO 0.1 E 50% POSITIVO), f 83;
#X obj 321 48 r \$0-noall;
#X obj 234 230 == 0;
#X obj 234 85 ||;
#X obj 321 67 t b f;
#X text 393 48 CHAVES DE BLOQUEIO LOCAL DA FUNÇÃO;
#X obj 234 162 ||;
#X obj 321 144 t b f;
#X obj 321 106 r \$0-isfloat;
#X obj 321 125 == 0;
#X text 405 106 HABILITA APENAS SE ÚLTIMO DADO PROCESSADO FOR FLOAT;
#X obj 234 48 r \$0-nodrunk;
#X text 315 297 - FLOAT DISPARA DRUNK WALK COM PASSO DEFINIDO E ÚlTIMA PORCENTAGEM (PADRÃO 50%), f 79;
#X text 315 317 - LIST DISPARA DRUNK WALK COM VALORES DE PASSO E PORCENTAGEM DEFINIDOS, f 70;
#X obj 75 455 / 1e+06;
#X obj 378 145 r \$0-mode;
#X obj 378 164 != 0;
#X obj 234 201 ||;
#X obj 378 183 t b f;
#X text 444 145 DESABILITA NOS MODOS ARRAY E TEXT;
#X obj 75 48 r \$0-drunk;
#X obj 75 571 t f b;
#X obj 75 620 outlet FLOAT;
#X obj 185 620 outlet ENABLE_SLEW;
#X connect 0 0 34 0;
#X connect 1 0 11 0;
#X connect 2 0 17 0;
#X connect 2 1 3 0;
#X connect 2 2 18 0;
#X connect 3 0 17 0;
#X connect 3 1 5 0;
#X connect 4 0 5 0;
#X connect 4 1 16 1;
#X connect 5 0 1 1;
#X connect 7 0 8 0;
#X connect 8 0 9 0;
#X connect 9 0 10 0;
#X connect 10 0 11 1;
#X connect 11 0 13 0;
#X connect 13 0 41 0;
#X connect 14 0 13 1;
#X connect 16 0 10 1;
#X connect 17 0 0 0;
#X connect 17 1 7 0;
#X connect 17 2 16 0;
#X connect 18 0 17 0;
#X connect 18 1 4 0;
#X connect 19 0 2 0;
#X connect 21 0 24 0;
#X connect 22 0 19 1;
#X connect 23 0 26 0;
#X connect 24 0 23 0;
#X connect 24 1 23 1;
#X connect 26 0 37 0;
#X connect 27 0 26 0;
#X connect 27 1 26 1;
#X connect 28 0 29 0;
#X connect 29 0 27 0;
#X connect 31 0 23 0;
#X connect 34 0 1 0;
#X connect 35 0 36 0;
#X connect 36 0 38 0;
#X connect 37 0 22 0;
#X connect 38 0 37 0;
#X connect 38 1 37 1;
#X connect 40 0 19 0;
#X connect 41 0 42 0;
#X connect 41 1 43 0;
#X restore 240 202 pd DRUNK;
#X obj 84 357 t f f;
#X obj 111 376 s \$0-last;
#X text 177 376 ENVIA ÚLTIMO VALOR PARA MECANISMO DE DRUNK WALK, f 23;
#X obj 84 116 t f b;
#X msg 171 134 1;
#X obj 171 153 s \$0-isfloat;
#X text 255 153 IDENTIFICA FLOAT;
#X connect 0 0 4 0;
#X connect 1 0 11 0;
#X connect 4 0 5 0;
#X connect 5 0 8 0;
#X connect 6 0 0 0;
#X connect 6 1 0 1;
#X connect 7 0 0 0;
#X connect 7 1 0 1;
#X connect 8 0 2 0;
#X connect 8 1 9 0;
#X connect 11 0 0 0;
#X connect 11 1 12 0;
#X connect 12 0 13 0;
#X restore 53 583 pd FLOAT;
#X text 449 356 GERENCIA FLAGS E ARGUMENTOS DECLARADOS;
#N canvas 933 331 393 299 SYMBOL 0;
#X obj 104 49 inlet;
#X obj 104 88 t s b;
#X obj 104 167 symbol;
#X obj 104 206 outlet;
#X msg 131 107 0;
#X obj 131 126 s \$0-isfloat;
#X text 216 126 AVISA SISTEMA QUE DADO NÃO É FLOAT, f 17;
#X connect 0 0 1 0;
#X connect 1 0 2 0;
#X connect 1 1 4 0;
#X connect 2 0 3 0;
#X connect 4 0 5 0;
#X restore 126 583 pd SYMBOL;
#N canvas 933 331 393 299 LIST 0;
#X obj 104 49 inlet;
#X obj 104 206 outlet;
#X msg 131 107 0;
#X obj 131 126 s \$0-isfloat;
#X text 216 126 AVISA SISTEMA QUE DADO NÃO É FLOAT, f 17;
#X obj 104 167 list;
#X obj 104 88 t a b;
#X connect 0 0 6 0;
#X connect 2 0 3 0;
#X connect 5 0 1 0;
#X connect 6 0 5 0;
#X connect 6 1 2 0;
#X restore 205 583 pd LIST;
#N canvas 1514 253 755 256 EXTERNAL_CONTROL 0;
#X obj 67 55 inlet;
#X obj 292 163 s \$0-noslew;
#X obj 67 124 route slew random drunk noslew norandom nodrunk noall skip;
#X obj 373 163 s \$0-norandom;
#X obj 466 163 s \$0-nodrunk;
#X obj 553 163 s \$0-noall;
#X obj 628 163 s \$0-skip;
#X obj 67 163 s \$0-slew;
#X obj 136 163 s \$0-random;
#X obj 217 163 s \$0-drunk;
#X obj 183 55 r \$1_control;
#X obj 183 84 r \$2_control;
#X text 267 55 RECEBE CONTROLES ENVIADOS DIRETAMENTE PARA PARÂNETRO;
#X text 267 84 RECEBE CONTROLES ENVIADOS PARA O CONTEXTO [memo];
#X connect 0 0 2 0;
#X connect 2 0 7 0;
#X connect 2 1 8 0;
#X connect 2 2 9 0;
#X connect 2 3 1 0;
#X connect 2 4 3 0;
#X connect 2 5 4 0;
#X connect 2 6 5 0;
#X connect 2 7 6 0;
#X connect 10 0 2 0;
#X connect 11 0 2 0;
#X restore 583 239 pd EXTERNAL_CONTROL;
#X obj 583 210 inlet CONTROL;
#X text 50 75 ARGUMENTOS: [param $PARAM $MEMO $INDEX $FLAGS $INIT], f 67;
#N canvas 478 262 657 396 FLAGS 0;
#X text 50 133 -text = Configura [param] para armazenar conteúdo de um [text] declarado como parâmetro, f 93;
#X text 50 113 -array = Configura [param] para armazenar conteúdo de um [array] declarado como parâmetro, f 93;
#X text 50 173 -clip $MIN $MAX = Limita número gerenciado no parâmetro aos valores de $MIN e $MAX com [clip], f 93;
#X text 50 153 -int = Restringe número gerenciado no parâmetro para inteiros com [int], f 93;
#X text 50 243 -noslew = Desliga mecanismo de interpolação de presets no parâmetro, f 93;
#X text 50 263 -norandom = Desliga mecanismo de randomização no parâmetro, f 93;
#X text 50 283 -nodrunk = Desliga mecanismo de drunkard walk no parâmetro, f 93;
#X text 50 303 -noall = Desliga os mecanismos de interpolação \, randomização e drunkard walk, f 93;
#X text 50 323 -skip = Parâmetro ignora dados carregados da memória, f 93;
#X text 50 43 RECURSOS ADICIONAIS DECLARADOS COMO FLAGS;
#X text 50 83 -- RECURSOS PERMANENTES, f 93;
#X text 50 213 -- RECURSOS VARIÁVEIS (PODEM SER SOBRESCRITOS COM CONTROLE EXTERNO), f 93;
#X restore 375 124 pd FLAGS;
#X text 70 140 $FLAGS (OPCIONAL) = CONFIGURAÇÂO DE RECURSOS, f 64;
#X connect 9 0 34 0;
#X connect 14 0 34 0;
#X connect 15 0 16 0;
#X connect 16 0 34 0;
#X connect 19 0 69 0;
#X connect 19 1 71 0;
#X connect 19 2 72 0;
#X connect 20 0 21 0;
#X connect 21 0 30 0;
#X connect 22 0 61 0;
#X connect 23 0 38 0;
#X connect 24 0 53 0;
#X connect 26 0 27 1;
#X connect 27 0 23 0;
#X connect 30 0 17 0;
#X connect 30 1 29 0;
#X connect 31 0 16 0;
#X connect 32 0 19 0;
#X connect 33 0 32 0;
#X connect 33 1 32 1;
#X connect 33 2 32 1;
#X connect 34 0 62 0;
#X connect 34 1 33 0;
#X connect 35 0 34 0;
#X connect 39 0 42 0;
#X connect 40 0 10 0;
#X connect 41 0 66 0;
#X connect 42 0 44 0;
#X connect 42 1 34 0;
#X connect 42 2 43 0;
#X connect 43 0 58 0;
#X connect 44 0 58 0;
#X connect 45 0 40 0;
#X connect 45 1 41 0;
#X connect 45 2 20 0;
#X connect 45 3 27 0;
#X connect 45 4 26 0;
#X connect 45 5 55 0;
#X connect 46 0 47 0;
#X connect 47 0 48 0;
#X connect 50 0 42 0;
#X connect 51 0 53 0;
#X connect 52 0 32 0;
#X connect 52 1 32 1;
#X connect 53 0 61 0;
#X connect 53 1 52 0;
#X connect 54 0 40 1;
#X connect 54 1 41 1;
#X connect 54 2 55 1;
#X connect 55 0 46 0;
#X connect 58 0 54 0;
#X connect 60 0 34 0;
#X connect 61 0 60 0;
#X connect 62 0 32 0;
#X connect 62 1 33 0;
#X connect 63 0 34 0;
#X connect 69 0 45 0;
#X connect 71 0 45 0;
#X connect 72 0 45 0;
#X connect 74 0 73 0;
