#N canvas 381 88 937 525 12;
#X obj 90 342 * 30;
#X obj 433 205 text define \$0-params;
#X obj 90 176 text size \$0-params;
#X obj 90 124 bng 20 250 50 0 empty empty empty 0 -10 0 12 #fcfcfc #000000 #000000;
#X obj 90 269 f;
#X obj 120 269 + 1;
#X msg 148 248 0;
#X obj 90 248 until;
#X obj 90 321 + 3;
#X obj 90 197 t f f;
#X obj 280 196 pdcontrol;
#X msg 280 175 args;
#X obj 433 295 text tolist \$0-params;
#X obj 500 135 text fromlist \$0-params;
#X obj 500 114 list;
#X obj 90 155 t b b b b;
#X obj 433 264 bng 20 250 50 0 empty empty empty 0 -10 0 12 #fcfcfc #000000 #000000;
#X obj 90 363 s \$0-posY;
#X obj 90 290 t f f f;
#X obj 136 311 s \$0-index;
#X obj 280 217 s \$0-args;
#X obj 122 218 s \$0-size;
#N canvas 678 133 969 785 PARAMS_BUILD 0;
#X obj 77 706 outlet;
#X obj 392 294 list append;
#X obj 100 655 list trim;
#X obj 435 140 text get \$0-params;
#X obj 392 357 list append;
#X text 493 294 nome do param;
#X text 493 357 argumentos;
#X obj 435 171 list split 1;
#X obj 485 192 list split 1;
#X obj 392 336 list append;
#X text 493 336 posição na memória;
#X text 764 315 nome do memo;
#X text 493 315 nome do memo;
#X text 764 357 nome do agrupador;
#X obj 663 336 list append;
#X text 764 336 número de parâmetros;
#X obj 663 357 list append;
#X obj 663 315 list append;
#X obj 705 127 unpack s s;
#X obj 392 315 list append;
#X obj 663 222 t b f;
#X obj 705 148 t s s;
#X msg 181 275 floatatom;
#X msg 181 296 symbolatom;
#X msg 181 317 listbox;
#X obj 100 359 list prepend;
#X msg 100 318 50 \$1;
#X obj 100 552 list append;
#X obj 435 192 t a a;
#X obj 290 448 t a a;
#X msg 290 490 \$1_gui_set;
#X msg 380 490 \$1_gui;
#X obj 100 573 list append;
#X obj 100 531 list append 5 0 0 0 -;
#X msg 181 254 obj;
#X obj 181 338 t a a;
#X obj 290 469 t a a;
#X msg 510 490 \$1_gui_set;
#X msg 450 490 \$1_gui;
#X obj 450 469 t a a;
#X obj 100 443 spigot;
#X obj 206 443 spigot;
#X obj 245 422 == 0;
#X obj 290 552 list append;
#X obj 290 573 list append;
#X msg 213 380 0;
#X msg 273 380 1;
#X obj 213 401 t f f;
#X obj 100 380 t l l;
#X obj 181 233 route t f s l;
#X obj 181 212 list trim;
#X obj 213 359 route obj;
#X obj 290 531 list append tgl 20 0;
#X obj 290 594 list append empty 0 -10 0 12 #fcfcfc #000000 #000000 0 1;
#X text 287 623 obj 140 63 tgl 20 0 envia recebe empty 0 -10 0 12 #fcfcfc #000000 #000000 0 1;
#X obj 100 614 t a;
#X obj 77 88 r \$0-posY;
#X obj 435 109 t f f;
#X obj 435 88 r \$0-index;
#X obj 705 106 r \$0-args;
#X obj 663 201 r \$0-size;
#X text 74 47 DESENHA GUIS;
#X text 432 47 DESENHA [param];
#X text 660 47 DESENHA [memo];
#X msg 392 253 obj 120 \$1 param;
#X msg 663 253 obj 120 50 memo;
#X obj 77 109 t b f f;
#X msg 77 140 loadbang;
#X connect 1 0 19 0;
#X connect 2 0 0 0;
#X connect 3 0 7 0;
#X connect 4 0 2 0;
#X connect 7 0 28 0;
#X connect 7 1 8 0;
#X connect 8 0 50 0;
#X connect 8 1 4 1;
#X connect 9 0 4 0;
#X connect 14 0 16 0;
#X connect 16 0 2 0;
#X connect 17 0 14 0;
#X connect 18 0 21 0;
#X connect 18 1 16 1;
#X connect 19 0 9 0;
#X connect 20 0 65 0;
#X connect 20 1 14 1;
#X connect 21 0 19 1;
#X connect 21 1 17 1;
#X connect 22 0 35 0;
#X connect 23 0 35 0;
#X connect 24 0 35 0;
#X connect 25 0 48 0;
#X connect 26 0 25 0;
#X connect 27 0 32 0;
#X connect 28 0 29 0;
#X connect 28 1 1 1;
#X connect 29 0 36 0;
#X connect 29 1 39 0;
#X connect 30 0 27 1;
#X connect 31 0 32 1;
#X connect 32 0 55 0;
#X connect 33 0 27 0;
#X connect 34 0 35 0;
#X connect 35 0 25 1;
#X connect 35 1 51 0;
#X connect 36 0 30 0;
#X connect 36 1 31 0;
#X connect 37 0 44 1;
#X connect 38 0 43 1;
#X connect 39 0 38 0;
#X connect 39 1 37 0;
#X connect 40 0 33 0;
#X connect 41 0 52 0;
#X connect 42 0 41 1;
#X connect 43 0 44 0;
#X connect 44 0 53 0;
#X connect 45 0 47 0;
#X connect 46 0 47 0;
#X connect 47 0 40 1;
#X connect 47 1 42 0;
#X connect 48 0 40 0;
#X connect 48 1 41 0;
#X connect 49 0 34 0;
#X connect 49 1 22 0;
#X connect 49 2 23 0;
#X connect 49 3 24 0;
#X connect 50 0 49 0;
#X connect 51 0 45 0;
#X connect 51 1 46 0;
#X connect 52 0 43 0;
#X connect 53 0 55 0;
#X connect 55 0 2 0;
#X connect 56 0 66 0;
#X connect 57 0 3 0;
#X connect 57 1 9 1;
#X connect 58 0 57 0;
#X connect 59 0 18 0;
#X connect 60 0 20 0;
#X connect 64 0 1 0;
#X connect 65 0 17 0;
#X connect 66 0 67 0;
#X connect 66 1 26 0;
#X connect 66 2 64 0;
#X connect 67 0 0 0;
#X restore 90 414 pd PARAMS_BUILD;
#X obj 90 52 inlet CONTROL;
#X obj 90 93 route bang dump click;
#X msg 433 184 click;
#X obj 280 52 inlet EDIT;
#X obj 433 52 inlet SUPERLIST;
#X obj 433 445 outlet SUPERLIST;
#X obj 577 226 route updated;
#X obj 577 247 s \$0-update;
#X obj 280 135 r \$0-update;
#X obj 433 326 list prepend set;
#X obj 433 347 list trim;
#X obj 433 93 route bang;
#N canvas 1120 133 527 590 \$0-output 0;
#X obj 120 50 memo \$0-memo 6 \$0-A;
#X obj 120 90 param \$0-teste \$0-memo 0 45;
#X floatatom 50 90 5 0 0 0 - \$0-teste_gui_set \$0-teste_gui 0;
#X obj 120 120 param \$0-outro \$0-memo 1 67;
#X floatatom 50 120 5 0 0 0 - \$0-outro_gui_set \$0-outro_gui 0;
#X obj 120 150 param \$0-aquele \$0-memo 2 1;
#X obj 50 150 tgl 20 0 \$0-aquele_gui \$0-aquele_gui_set empty 0 -10 0 12 #fcfcfc #000000 #000000 0 1;
#X obj 120 180 param \$0-super \$0-memo 3 asd fdg yhty er;
#X listbox 50 180 5 0 0 0 - \$0-super_gui_set \$0-super_gui 0;
#X obj 120 210 param \$0-apenas \$0-memo 4 1;
#X obj 50 210 tgl 20 0 \$0-apenas_gui \$0-apenas_gui_set empty 0 -10 0 12 #fcfcfc #000000 #000000 0 1;
#X obj 120 240 param \$0-final \$0-memo 5 0;
#X obj 50 240 tgl 20 0 \$0-final_gui \$0-final_gui_set empty 0 -10 0 12 #fcfcfc #000000 #000000 0 1;
#X restore 746 135 pd \$0-output;
#X obj 90 445 s pd-\$0-output;
#X msg 294 425 clear;
#X obj 294 404 loadbang;
#X text 744 110 JANELA DE SAÍDA;
#X obj 228 394 t b b;
#X msg 228 425 vis 1;
#X connect 0 0 17 0;
#X connect 1 1 29 0;
#X connect 2 0 9 0;
#X connect 3 0 15 0;
#X connect 4 0 18 0;
#X connect 5 0 4 1;
#X connect 6 0 4 1;
#X connect 7 0 4 0;
#X connect 8 0 0 0;
#X connect 9 0 7 0;
#X connect 9 1 21 0;
#X connect 10 0 20 0;
#X connect 11 0 10 0;
#X connect 12 0 32 0;
#X connect 14 0 13 0;
#X connect 15 0 2 0;
#X connect 15 1 6 0;
#X connect 15 2 40 0;
#X connect 15 3 11 0;
#X connect 16 0 12 0;
#X connect 18 0 8 0;
#X connect 18 1 5 0;
#X connect 18 2 19 0;
#X connect 22 0 36 0;
#X connect 23 0 24 0;
#X connect 24 0 3 0;
#X connect 24 1 16 0;
#X connect 24 2 25 0;
#X connect 25 0 1 0;
#X connect 26 0 25 0;
#X connect 27 0 34 0;
#X connect 29 0 30 0;
#X connect 31 0 15 0;
#X connect 32 0 33 0;
#X connect 33 0 28 0;
#X connect 34 0 16 0;
#X connect 34 1 14 0;
#X connect 37 0 36 0;
#X connect 38 0 37 0;
#X connect 40 0 41 0;
#X connect 40 1 37 0;
#X connect 41 0 36 0;
