#N canvas 1058 114 673 682 10;
#X obj 60 504 * 30;
#X obj 373 373 text define \$0-params;
#X obj 60 340 text size \$0-params;
#X obj 60 290 bng 20 250 50 0 empty empty empty 0 -10 0 12 #fcfcfc #000000 #000000;
#X obj 60 437 f;
#X obj 90 437 + 1;
#X msg 105 418 0;
#X obj 60 418 until;
#X obj 60 485 + 3;
#X obj 60 359 t f f;
#X obj 250 358 pdcontrol;
#X msg 250 339 args;
#X obj 373 465 text tolist \$0-params;
#X obj 430 301 text fromlist \$0-params;
#X obj 430 282 list;
#X obj 373 434 bng 20 250 50 0 empty empty empty 0 -10 0 12 #fcfcfc #000000 #000000;
#X obj 60 523 s \$0-posY;
#X obj 60 456 t f f f;
#X obj 99 475 s \$0-index;
#X obj 250 377 s \$0-args;
#X obj 87 378 s \$0-size;
#N canvas 573 96 926 724 PARAMS_BUILD 0;
#X obj 76 661 outlet;
#X obj 398 297 list append;
#X obj 99 610 list trim;
#X obj 434 128 text get \$0-params;
#X obj 398 354 list append;
#X text 477 297 nome do param;
#X text 477 354 argumentos;
#X obj 434 167 list split 1;
#X obj 484 186 list split 1;
#X obj 398 335 list append;
#X text 477 335 posição na memória;
#X text 731 316 nome do memo;
#X text 477 316 nome do memo;
#X text 731 354 nome do agrupador;
#X obj 652 335 list append;
#X text 731 335 número de parâmetros;
#X obj 652 354 list append;
#X obj 652 316 list append;
#X obj 688 99 unpack s s;
#X obj 398 316 list append;
#X obj 652 218 t b f;
#X obj 688 118 t s s;
#X msg 168 261 floatatom;
#X msg 168 280 symbolatom;
#X msg 168 299 listbox;
#X obj 99 337 list prepend;
#X msg 99 300 50 \$1;
#X obj 99 511 list append;
#X obj 434 186 t a a;
#X obj 299 397 t a a;
#X msg 299 435 \$1_gui_set;
#X msg 389 435 \$1_gui;
#X obj 99 530 list append;
#X obj 99 492 list append 5 0 0 0 -;
#X msg 168 242 obj;
#X obj 168 318 t a a;
#X obj 299 416 t a a;
#X msg 529 435 \$1_gui_set;
#X msg 469 435 \$1_gui;
#X obj 469 416 t a a;
#X obj 99 413 spigot;
#X obj 188 413 spigot;
#X obj 221 394 == 0;
#X obj 299 513 list append;
#X obj 299 532 list append;
#X msg 195 356 0;
#X msg 246 356 1;
#X obj 195 375 t f f;
#X obj 99 356 t l l;
#X obj 168 223 route t f s l;
#X obj 168 204 list trim;
#X obj 195 337 route obj;
#X obj 299 494 list append tgl 20 0;
#X obj 299 551 list append empty 0 -10 0 12 #fcfcfc #000000 #000000 0 1;
#X text 296 580 obj 140 63 tgl 20 0 envia recebe empty 0 -10 0 12 #fcfcfc #000000 #000000 0 1;
#X obj 99 569 t a;
#X obj 76 80 r \$0-posY;
#X obj 434 99 t f f;
#X obj 434 80 r \$0-index;
#X obj 688 80 r \$0-args;
#X obj 652 199 r \$0-size;
#X text 74 47 DESENHA GUIS;
#X text 432 47 DESENHA [param];
#X text 650 47 DESENHA [memo];
#X msg 398 248 obj 120 \$1 param;
#X msg 652 247 obj 120 50 memo;
#X obj 76 99 t b f f;
#X msg 76 148 loadbang;
#X connect 1 0 19 0;
#X connect 2 0 0 0;
#X connect 3 0 7 0;
#X connect 4 0 2 0;
#X connect 7 0 28 0;
#X connect 7 1 8 0;
#X connect 8 0 50 0;
#X connect 8 1 4 1;
#X connect 9 0 4 0;
#X connect 14 0 16 0;
#X connect 16 0 2 0;
#X connect 17 0 14 0;
#X connect 18 0 21 0;
#X connect 18 1 16 1;
#X connect 19 0 9 0;
#X connect 20 0 65 0;
#X connect 20 1 14 1;
#X connect 21 0 19 1;
#X connect 21 1 17 1;
#X connect 22 0 35 0;
#X connect 23 0 35 0;
#X connect 24 0 35 0;
#X connect 25 0 48 0;
#X connect 26 0 25 0;
#X connect 27 0 32 0;
#X connect 28 0 29 0;
#X connect 28 1 1 1;
#X connect 29 0 36 0;
#X connect 29 1 39 0;
#X connect 30 0 27 1;
#X connect 31 0 32 1;
#X connect 32 0 55 0;
#X connect 33 0 27 0;
#X connect 34 0 35 0;
#X connect 35 0 25 1;
#X connect 35 1 51 0;
#X connect 36 0 30 0;
#X connect 36 1 31 0;
#X connect 37 0 44 1;
#X connect 38 0 43 1;
#X connect 39 0 38 0;
#X connect 39 1 37 0;
#X connect 40 0 33 0;
#X connect 41 0 52 0;
#X connect 42 0 41 1;
#X connect 43 0 44 0;
#X connect 44 0 53 0;
#X connect 45 0 47 0;
#X connect 46 0 47 0;
#X connect 47 0 40 1;
#X connect 47 1 42 0;
#X connect 48 0 40 0;
#X connect 48 1 41 0;
#X connect 49 0 34 0;
#X connect 49 1 22 0;
#X connect 49 2 23 0;
#X connect 49 3 24 0;
#X connect 50 0 49 0;
#X connect 51 0 45 0;
#X connect 51 1 46 0;
#X connect 52 0 43 0;
#X connect 53 0 55 0;
#X connect 55 0 2 0;
#X connect 56 0 66 0;
#X connect 57 0 3 0;
#X connect 57 1 9 1;
#X connect 58 0 57 0;
#X connect 59 0 18 0;
#X connect 60 0 20 0;
#X connect 64 0 1 0;
#X connect 65 0 17 0;
#X connect 66 0 67 0;
#X connect 66 1 26 0;
#X connect 66 2 64 0;
#X connect 67 0 0 0;
#X restore 60 572 pd PARAMS_BUILD;
#X obj 60 222 inlet CONTROL;
#X obj 60 261 route bang dump click;
#X msg 373 354 click;
#X obj 250 222 inlet EDIT;
#X obj 496 392 route updated;
#X obj 496 411 s \$0-update;
#X obj 250 303 r \$0-update;
#X obj 373 494 list prepend set;
#X obj 373 513 list trim;
#X obj 373 263 route bang;
#N canvas 1120 133 527 755 \$0-output 0;
#X restore 526 222 pd \$0-output;
#X obj 60 611 s pd-\$0-output;
#X msg 254 593 clear;
#X obj 254 574 loadbang;
#X text 524 197 JANELA DE SAÍDA;
#X obj 188 564 t b b;
#X msg 188 593 vis 1;
#X obj 60 321 t b b b b b;
#X obj 42 59 cnv 15 420 120 empty empty empty 20 12 0 14 #dcdcdc #404040 0;
#X obj 42 30 cnv 15 420 28 empty empty empty 20 12 0 14 #e0c4fc #404040 0;
#X text 50 35 ABSTRAÇÃO [paramer], f 67;
#X text 51 65 GERADOR DE CONJUNTOS DE [param] E [memo] A PARTIR DE LISTA, f 67;
#X text 70 105 $MEMO = NOME DA MEMÓRIA (symbol), f 64;
#X text 70 120 $CONTEXT (OPCIONAL) = AGRUPADOR DE MEMÓRIAS (symbol), f 64;
#X text 50 85 ARGUMENTOS: [paramer $MEMO $CONTEXT], f 67;
#X text 70 150 OBS: USAR \ PARA ESCAPAR $ NOS ARGUMENTOS (EXEMPLO NO HELP), f 64;
#X obj 373 222 inlet PARAMLIST;
#X obj 373 615 outlet PARAMLIST;
#X connect 0 0 16 0;
#X connect 1 1 26 0;
#X connect 2 0 9 0;
#X connect 3 0 39 0;
#X connect 4 0 17 0;
#X connect 5 0 4 1;
#X connect 6 0 4 1;
#X connect 7 0 4 0;
#X connect 8 0 0 0;
#X connect 9 0 7 0;
#X connect 9 1 20 0;
#X connect 10 0 19 0;
#X connect 11 0 10 0;
#X connect 12 0 29 0;
#X connect 14 0 13 0;
#X connect 15 0 12 0;
#X connect 17 0 8 0;
#X connect 17 1 5 0;
#X connect 17 2 18 0;
#X connect 21 0 33 0;
#X connect 22 0 23 0;
#X connect 23 0 3 0;
#X connect 23 1 15 0;
#X connect 23 2 24 0;
#X connect 24 0 1 0;
#X connect 25 0 24 0;
#X connect 26 0 27 0;
#X connect 28 0 39 0;
#X connect 29 0 30 0;
#X connect 30 0 49 0;
#X connect 31 0 15 0;
#X connect 31 1 14 0;
#X connect 34 0 33 0;
#X connect 35 0 34 0;
#X connect 37 0 38 0;
#X connect 37 1 34 0;
#X connect 38 0 33 0;
#X connect 39 0 2 0;
#X connect 39 1 6 0;
#X connect 39 2 37 0;
#X connect 39 3 11 0;
#X connect 39 4 15 0;
#X connect 48 0 31 0;
