#N canvas 612 61 709 954 10;
#X obj 42 59 cnv 15 420 120 empty empty empty 20 12 0 14 -228856 -66577
0;
#X obj 42 30 cnv 15 420 28 empty empty empty 20 12 0 14 -232576 -66577
0;
#X text 51 65 DECLARA PARÂMETROS DE UM CONJUNTO [memo], f 67;
#X text 50 35 ABSTRAÇÃO [param], f 67;
#X text 50 85 ARGUMENTOS: [param $PARAM $MEMO $INDEX $INIT], f 67
;
#X text 70 105 $PARAM = NOME DO PARÂMETRO (symbol), f 64;
#X text 70 120 $MEMO = NOME DA MEMÓRIA (symbol), f 64;
#X text 70 135 $INDEX = ÍNDICE NA MEMÓRIA (float), f 64;
#X text 70 150 $INIT (OPCIONAL) = VALOR DE INICIALIZAÇÃO (float \,
symbol \, list), f 64;
#X obj 45 561 cnv 15 38 28 empty empty empty 20 12 0 14 -232576 -66577
0;
#X obj 50 208 inlet VALUE;
#X obj 50 900 outlet VALUE;
#X text 151 298 RECEBE VALOR DO GUI;
#X text 101 861 ENVIA P/ PATCH;
#X text 157 355 BANG PARA REENVIAR VALOR;
#X text 567 218 REINICIA VALOR;
#X obj 90 297 r \$1_gui;
#X obj 90 355 r \$1_bang;
#X msg 90 374 bang;
#X obj 90 451 f \$3;
#X obj 65 861 s \$1;
#X obj 80 794 s \$1_gui_set;
#X text 185 709 ENVIA P/ MEMÓRIA;
#X obj 50 595 route float symbol list bang;
#X obj 80 737 list prepend set;
#X obj 80 756 list trim;
#X obj 90 470 text get \$2;
#X obj 342 218 loadbang;
#X obj 342 312 symbol \$4-;
#X obj 342 331 sel symbol;
#X msg 342 274 4;
#X obj 342 293 t b f;
#X obj 417 312 makefilename $%d-;
#X obj 399 350 bang;
#X obj 399 369 list append \$4;
#X text 496 361 INICIALIZA PARÂMETRO COM 4 ARGUMENTO SE EXISTIR,
f 24;
#X obj 95 689 list prepend \$3;
#X obj 494 218 r \$2_reset;
#X text 385 255 AGUARDA MEMÓRIA INICIALIZAR;
#X obj 164 651 list length;
#X obj 95 670 list prepend;
#X text 243 651 NÚMERO DE ÍTENS (CASO SEJA LISTA);
#X obj 177 900 outlet SET_VALUE;
#X obj 80 775 t a a;
#X obj 90 336 r \$2_bang;
#X obj 50 566 list;
#X obj 107 548 t b a b;
#X obj 50 529 route bang;
#X obj 90 258 r \$1-;
#X text 133 258 RECEBE VALOR REMOTAMENTE;
#X text 197 690 LISTA COM ÍNDICE / NÚMERO DE ÍTENS / ÍTENS;
#X text 532 312 VERIFICA SE 4 ARGUMENTO EXISTE, f 16;
#X obj 95 708 s \$2_memo_set;
#X obj 380 491 r \$1_set;
#X obj 50 823 spigot 1;
#X obj 65 842 spigot 1;
#X obj 380 510 t b a b;
#X msg 410 529 0;
#X msg 380 529 1;
#X obj 50 633 t a a a a a a;
#X obj 374 852 list prepend \$1;
#X obj 374 871 list trim;
#X obj 374 890 s \$2_bus;
#X text 476 852 PARÂMETRO / VALOR;
#X text 434 890 ENVIA PARA CONTEXTO;
#X obj 90 432 sel \$3;
#X text 139 432 CARREGA QUANDO RECEBE ÍNDICE LOCAL ESPECÍFICO;
#X obj 90 413 r \$2_refresh;
#X obj 170 208 inlet SET_VALUE;
#X obj 419 218 r \$1_reset;
#X obj 342 255 del 2;
#X text 174 413 CARREGA VALOR DA MEMÓRIA DO [memo];
#X obj 169 548 t b b;
#X obj 419 237 t b b;
#X obj 380 805 t f f f;
#X obj 374 833 spigot 1;
#X obj 90 489 route bang;
#X text 172 469 FILTRA PARÂMETROS VAZIOS, f 10;
#X text 164 794 ENVIA P/GUI COM PREFIXO "SET";
#X obj 132 614 list;
#X obj 380 548 t f;
#X obj 173 614 t b b;
#X text 441 492 RECEBE VALOR FRIO REMOTAMENTE;
#X connect 10 0 47 0;
#X connect 16 0 47 0;
#X connect 17 0 18 0;
#X connect 18 0 47 0;
#X connect 19 0 26 0;
#X connect 23 0 59 0;
#X connect 23 1 59 0;
#X connect 23 2 79 0;
#X connect 23 3 81 0;
#X connect 24 0 25 0;
#X connect 25 0 43 0;
#X connect 26 0 76 0;
#X connect 27 0 70 0;
#X connect 28 0 29 0;
#X connect 29 1 33 0;
#X connect 30 0 31 0;
#X connect 31 0 28 0;
#X connect 31 1 32 0;
#X connect 32 0 29 1;
#X connect 33 0 34 0;
#X connect 34 0 47 0;
#X connect 36 0 52 0;
#X connect 37 0 73 0;
#X connect 39 0 40 1;
#X connect 40 0 36 0;
#X connect 43 0 21 0;
#X connect 43 1 42 0;
#X connect 44 0 18 0;
#X connect 45 0 23 0;
#X connect 46 0 45 0;
#X connect 46 1 45 1;
#X connect 46 2 45 1;
#X connect 47 0 45 0;
#X connect 47 1 46 0;
#X connect 48 0 47 0;
#X connect 53 0 56 0;
#X connect 54 0 11 0;
#X connect 55 0 20 0;
#X connect 56 0 58 0;
#X connect 56 1 47 0;
#X connect 56 2 57 0;
#X connect 57 0 80 0;
#X connect 58 0 80 0;
#X connect 59 0 54 0;
#X connect 59 1 55 0;
#X connect 59 2 24 0;
#X connect 59 3 40 0;
#X connect 59 4 39 0;
#X connect 59 5 75 0;
#X connect 60 0 61 0;
#X connect 61 0 62 0;
#X connect 65 0 19 0;
#X connect 67 0 65 0;
#X connect 68 0 56 0;
#X connect 69 0 73 0;
#X connect 70 0 30 0;
#X connect 72 0 45 0;
#X connect 72 1 45 1;
#X connect 73 0 70 0;
#X connect 73 1 72 0;
#X connect 74 0 54 1;
#X connect 74 1 55 1;
#X connect 74 2 75 1;
#X connect 75 0 60 0;
#X connect 76 1 47 0;
#X connect 79 0 59 0;
#X connect 80 0 74 0;
#X connect 81 0 54 0;
#X connect 81 1 55 0;
