#N canvas 374 128 1084 525 10;
#X obj 533 200 cnv 15 150 17 empty empty empty 20 12 0 14 #e0c4fc #404040 0;
#X obj 533 220 cnv 15 150 17 empty empty empty 20 12 0 14 #c4c4fc #404040 0;
#X obj 533 240 cnv 15 150 17 empty empty empty 20 12 0 14 #dfdfdf #404040 0;
#X obj 42 59 cnv 15 420 120 empty empty empty 20 12 0 14 #dcdcdc #404040 0;
#X obj 42 30 cnv 15 420 28 empty empty empty 20 12 0 14 #e0c4fc #404040 0;
#X text 50 35 ABSTRAÇÃO [paramer], f 67;
#X text 51 65 GERADOR DE CONJUNTOS DE [param] E [memo] A PARTIR DE LISTA, f 67;
#X text 510 76 2 - O SEGUNDO ARGUMENTO É OPCIONAL E DEFINE UM AGRUPADOR EXTERNO DE MEMÓRIAS COMO [memolist] E [presets], f 83;
#X text 70 105 $MEMO = NOME DA MEMÓRIA (symbol), f 64;
#X text 510 118 3 - APÓS INSTANCIADO O [paramer] \, COM UM BANG NA 2 ENTRADA DA ABSTRAÇÃO \, DECLARAR LISTA DE PARÂMETROS NA ORDEM DESEJADA \, UM POR LINHA COM QUEBRA (ponto e vírgula) \;, f 83;
#X text 510 454 6 - O ÚLTIMO PASSO É CONSTRUIR A JANELA COM BANG NA PRIMEIRA ENTRADA DO [paramer] E COPIAR CONTEÚDOS PARA O PATCH DESEJADO, f 83;
#X text 510 303 4 - BANG NA TERCEIRA ENTRADA DO [paramer] ENVIA LISTA DE PARÂMETROS ATUAIS NA SAÍDA DA ABSTRAÇÃO \, PERMITINDO ARMAZERNAR MENSAGEM EXTERNAMENTE PARA FUTURAS ATUALIZAÇÕES NOS PARÂMETROS, f 83;
#X text 530 398 * NA EDIÇÃO NA JANELA DO [paramer] NÃO É NECESSÁRIO ESCAPAR ESSES ELEMENTOS, f 80;
#X text 70 120 $CONTEXT (OPCIONAL) = AGRUPADOR DE MEMÓRIAS (symbol), f 64;
#X text 540 220 \$0-chave t 1 \;;
#X text 540 240 \$0-lista l ab cd \;;
#X obj 51 306 cnv 15 157 38 empty empty empty 20 12 0 14 #e0c4fc #404040 0;
#X obj 61 316 paramer \\\$0-memo \\\$0-A;
#X obj 61 235 bng 20 250 50 0 empty empty empty 0 -10 0 12 #fcfcfc #000000 #000000;
#X obj 125 255 bng 20 250 50 0 empty empty empty 0 -10 0 12 #fcfcfc #000000 #000000;
#X obj 190 275 bng 20 250 50 0 empty empty empty 0 -10 0 12 #fcfcfc #000000 #000000;
#X text 58 212 CONSTRUIR JANELA;
#X text 122 232 EDITAR PARÂMETROS;
#X text 187 252 LISTA PARÂMETROS NA SAÍDA;
#X text 70 362 LISTA DE PARÂMETROS PARA TESTE - CLICAR E DEPOIS CONSTRUIR JANELA, f 65;
#X text 510 357 5 - PARA ENTRAR COM LISTA DE PARÂMETROS ARMAZENADA EXTERNAMENTE É PRECISO ESCAPAR COM \ OS $ E AS QUEBRAS DE LINHA \;, f 83;
#X text 50 85 ARGUMENTOS: [paramer $MEMO $CONTEXT], f 67;
#X text 215 316 ESCAPAR $ USANDO $;
#X text 510 35 1 - DECLARAR COMO PRIMEIRO ARGUMENTO DO [paramer] O NOME DO [memo] DESEJADO PARA GERENCIAR OS [param], f 83;
#X text 710 220 t = TOGGLE;
#X text 710 200 f = FLOAT (NUMBER BOX \, SLIDER \, RADIO);
#X text 530 426 * A LISTA GERADA COM BANG NA TERCEIRA ENTRADA JÁ PREPARA A LISTA CORRETAMENTE, f 80;
#X text 70 150 OBS: USAR \ PARA ESCAPAR $ NOS ARGUMENTOS (EXEMPLO ABAIXO), f 64;
#X text 509 169 (NOME DO PARÂMETRO) (TIPO DE GUI) (FLAGS OPCIONAIS) (VALOR DE INICIALIZAÇÂO OPCIONAL) \;, f 87;
#X text 540 200 \$0-numero f -int 45 \;;
#X obj 533 260 cnv 15 150 17 empty empty empty 20 12 0 14 #bbbbbb #404040 0;
#X text 540 260 \$0-tabela l -array \;;
#X text 710 240 l = LIST (TAMBÉM SERVE PARA SYMBOL \, FLOAT \, ARRAY E TEXT);
#X msg 61 385 \\\$0-teste f 45 \\\; \\\$0-outro f -int 67 \\\; \\\$0-limite f -clip 0 124 100 \\\; \\\$0-aquele t 1 \\\; \\\$0-super l asd fdg yhty er \\\; \\\$0-apenas t 1 \\\; \\\$0-tabela l -array 0 0 1 0 1 0 1 1 \\\; \\\$0-texto l -text primeira entrada \\\;, f 53;
#X connect 17 0 38 0;
#X connect 18 0 17 0;
#X connect 19 0 17 1;
#X connect 20 0 17 2;
#X connect 38 0 17 2;
