#N canvas 192 33 1305 865 10;
#X obj 53 220 cnv 15 165 32 empty empty empty 20 12 0 14 #e0c4fc #404040 0;
#X floatatom 63 230 5 0 0 0 - parametro1_gui_set parametro1_gui 0;
#X text 164 230 PARAM 1;
#X obj 52 495 cnv 15 1200 190 empty empty empty 20 12 0 14 #e0c4fc #404040 0;
#X obj 52 686 cnv 15 399 130 empty empty empty 20 12 0 14 #c4c4fc #404040 0;
#X obj 452 686 cnv 15 399 130 empty empty empty 20 12 0 14 #dcdcdc #404040 0;
#X obj 139 734 param parametro2 \$0-memo 1 teste;
#X floatatom 139 533 5 0 0 0 - - - 0;
#X floatatom 139 590 5 0 0 0 - - - 0;
#X floatatom 310 590 5 0 0 0 - - - 0;
#X obj 310 608 bng 15 250 50 0 empty empty empty 17 7 0 10 #fcfcfc #000000 #000000;
#X obj 139 608 bng 15 250 50 0 empty empty empty 17 7 0 10 #fcfcfc #000000 #000000;
#X floatatom 238 533 5 0 0 0 - - - 0;
#X obj 877 533 r parametro1;
#X floatatom 877 552 5 0 0 0 - - - 0;
#X obj 877 570 bng 15 250 50 0 empty empty empty 17 7 0 10 #fcfcfc #000000 #000000;
#X symbolatom 139 706 10 0 0 0 - - - 0;
#X symbolatom 139 763 10 0 0 0 - - - 0;
#X obj 139 781 bng 15 250 50 0 empty empty empty 17 7 0 10 #fcfcfc #000000 #000000;
#X symbolatom 328 763 10 0 0 0 - - - 0;
#X obj 328 781 bng 15 250 50 0 empty empty empty 17 7 0 10 #fcfcfc #000000 #000000;
#X text 67 565 FLOAT;
#X text 137 629 SAÍDA LOCAL QUENTE;
#X obj 467 551 s parametro1-;
#X obj 467 643 s parametro1_bang;
#X floatatom 467 533 5 0 0 0 - - - 0;
#X obj 467 627 bng 15 250 50 0 empty empty empty 17 7 0 10 #fcfcfc #000000 #000000;
#X floatatom 877 615 5 0 0 0 - - - 0;
#X obj 877 633 bng 15 250 50 0 empty empty empty 17 7 0 10 #fcfcfc #000000 #000000;
#X text 64 737 SYMBOL;
#X text 469 736 LIST;
#X text 236 510 ENTRADA FRIA;
#X obj 877 596 r parametro1_gui_set;
#X obj 892 378 r \$0-memo_bus;
#X obj 892 417 print TODOS_PARAM;
#X text 464 510 MÉTODOS DE ENTRADA E ATUALIZAÇÃO REMOTA;
#X text 874 510 MÉTODOS DE SAÍDA REMOTA;
#X text 582 643 [s $PARAM_bang] - REENVIA VALOR DO PARÂMETRO;
#X text 558 551 [s $PARAM-] - CONTROLE REMOTO;
#X text 962 533 [r $PARAM] - SAÍDA REMOTA QUENTE;
#X text 1010 596 [r $PARAM_gui_set] - SAÍDA REMOTA FRIA (VALOR CONTENDO PREFIXO "SET"), f 38;
#X text 983 378 [r $MEMO_bus] - SAÍDA REMOTA QUENTE DE TODOS OS PARÂMETROS DO MESMO $MEMO, f 38;
#X msg 543 349 reset;
#X text 308 629 SAÍDA FRIA (VALOR COM PREFIXO "SET"), f 18;
#X obj 53 253 cnv 15 165 32 empty empty empty 20 12 0 14 #c4c4fc #404040 0;
#X symbolatom 63 258 15 0 0 2 - parametro2_gui_set parametro2_gui 0;
#X text 164 258 PARAM 2;
#X text 247 252 "Send symbol" = $PARAM_gui, f 34;
#X text 247 272 "Receive symbol" = $PARAM_gui_set, f 34;
#X obj 104 231 hsl 50 15 0 127 0 0 parametro1_gui parametro1_gui_set empty -2 -8 0 10 #e0c4fc #000000 #000000 0 1;
#X obj 139 561 param parametro1 \$0-memo 0 90;
#X floatatom 467 580 5 0 0 0 - - - 0;
#X text 574 598 [s $PARAM_set] - CONTROLE REMOTO FRIO;
#X obj 467 598 s parametro1_set;
#X obj 692 782 bng 15 250 50 0 empty empty empty 17 7 0 10 #fcfcfc #000000 #000000;
#X obj 539 735 param parametro3 \$0-memo 2 uma lista aqui;
#X listbox 692 764 20 0 0 0 - - - 0;
#X listbox 539 764 20 0 0 0 - - - 0;
#X obj 539 782 bng 15 250 50 0 empty empty empty 17 7 0 10 #fcfcfc #000000 #000000;
#X listbox 539 707 20 0 0 0 - - - 0;
#X obj 53 281 cnv 15 165 32 empty empty empty 20 12 0 14 #dfdfdf #404040 0;
#X listbox 63 289 15 0 0 0 - parametro3_gui_set parametro3_gui 0;
#X text 164 288 PARAM 3;
#X obj 42 49 cnv 15 420 130 empty empty empty 20 12 0 14 #dcdcdc #404040 0;
#X obj 42 20 cnv 15 420 28 empty empty empty 20 12 0 14 #e0c4fc #404040 0;
#X text 51 55 DECLARA PARÂMETROS DE UM CONJUNTO [memo], f 67;
#X text 50 25 ABSTRAÇÃO [param], f 67;
#X text 70 95 $PARAM = NOME DO PARÂMETRO (symbol), f 64;
#X text 70 110 $MEMO = NOME DA MEMÓRIA (symbol), f 64;
#X text 70 125 $INDEX = ÍNDICE NA MEMÓRIA (float), f 64;
#X text 70 155 $INIT (OPCIONAL) = VALOR DE INICIALIZAÇÃO (float \, symbol \, list), f 64;
#X text 50 75 ARGUMENTOS: [param $PARAM $MEMO $INDEX $FLAGS $INIT], f 67;
#N canvas 202 192 994 545 CONTROLES 0;
#X obj 69 483 outlet;
#X msg 69 75 slew 0;
#X msg 124 75 slew 1000;
#X obj 69 94 t a;
#X msg 164 115 random 10 50;
#X text 67 32 RECURSOS EXCLUSIVOS PARA PARÂMETROS NUMÉRICOS (NÃO FUNCIONAM COM SÍMBOLOS E LISTAS), f 83;
#X text 263 115 RANDOMIZA PARÂMETRO ENTRE 0-1 (PADRÃO) OU ENTRE VALORES PASSADOS COMO ARGUMENTOS, f 80;
#X msg 109 115 random;
#X obj 109 134 t a;
#X obj 149 174 t a;
#X msg 149 155 drunk;
#X msg 204 155 drunk 10 55;
#X text 297 149 DISPARA DRUNKARD WALK NO VALOR DO PARÂMETRO, f 44;
#X text 334 68 CONTROLA MECANISMOD DE INTERPOLAÇÃO LOCAL A PARTIR DE MEMÓRIAS, f 64;
#X text 297 164 ARGUMENTOS = TAMANHO MÁXIMO DO PASSO E PORCENTAGEM DE CHANCE DE SER UM PASSO PARA FRENTE, f 88;
#X obj 189 214 t a;
#X msg 189 195 noslew 0;
#X msg 256 195 noslew 1;
#X obj 229 254 t a;
#X msg 229 235 norandom 0;
#X msg 308 235 norandom 1;
#X obj 279 294 t a;
#X msg 279 275 nodrunk 0;
#X msg 353 275 nodrunk 1;
#X obj 329 334 t a;
#X msg 329 315 noall 0;
#X msg 389 315 noall 1;
#X text 321 195 LIGA E DESLIGA MECANISMO DE INTERPOLAÇÂO LOCAL (SOBRESCREVE FLAG), f 65;
#X text 385 235 LIGA E DESLIGA MECANISMO DE RANDOMIZAÇÃO LOCAL (SOBRESCREVE FLAG), f 65;
#X text 424 275 LIGA E DESLIGA MECANISMO DE DRUNKARD WALK LOCAL (SOBRESCREVE FLAG), f 66;
#X text 449 315 LIGA E DESLIGA SLEW \, RANDOM E DRUNKARD WALK (SOBRESCREVE FLAGS), f 63;
#X text 350 403 RECURSO DISPONÍVEL PARA TODOS OS TIPOS DE PARÂMETROS (NÚMEROS \, SÍMBOLOS \, LISTAS \, ARRAYS E TEXTS), f 96;
#X obj 352 465 t a;
#X msg 352 446 skip 0;
#X msg 407 446 skip 1;
#X text 463 446 HABILITA E DESABILITA RECEBIMENTO DE DADOS DA MEMÓRIA PARA O PARÂMETRO, f 70;
#X text 335 83 ARGUMENTOS = TEMPO \, CURVA \, GRANULARIDADE E RESOLUÇÃO DA RAMPA DE INTERPOLAÇÂO, f 77;
#X msg 197 75 slew 1000 1.5 10 256;
#X connect 1 0 3 0;
#X connect 2 0 3 0;
#X connect 3 0 0 0;
#X connect 4 0 8 0;
#X connect 7 0 8 0;
#X connect 8 0 0 0;
#X connect 9 0 0 0;
#X connect 10 0 9 0;
#X connect 11 0 9 0;
#X connect 15 0 0 0;
#X connect 16 0 15 0;
#X connect 17 0 15 0;
#X connect 18 0 0 0;
#X connect 19 0 18 0;
#X connect 20 0 18 0;
#X connect 21 0 0 0;
#X connect 22 0 21 0;
#X connect 23 0 21 0;
#X connect 24 0 0 0;
#X connect 25 0 24 0;
#X connect 26 0 24 0;
#X connect 32 0 0 0;
#X connect 33 0 32 0;
#X connect 34 0 32 0;
#X connect 37 0 3 0;
#X restore 325 532 pd CONTROLES;
#X text 137 510 ENTRADA QUENTE;
#X text 323 510 RECURSOS ADICIONAIS;
#X text 247 232 INTERFACES REMOTAS (GUI), f 34;
#X obj 462 378 memo \$0-memo 5;
#X text 559 378 DECLARAÇÃO DA MEMÓRIA \$0-memo COM 5 PARÂMETROS;
#X obj 852 686 cnv 15 400 130 empty empty empty 20 12 0 14 #bbbbbb #404040 0;
#X text 1150 724 FLAG -array;
#X text 1143 783 FLAG -text;
#X text 964 697 ATUALIZA DADOS;
#X obj 940 724 param parametro4 \$0-memo 6 -array;
#X obj 940 783 param parametro5 \$0-memo 7 -text;
#X text 869 725 ARRAY;
#X text 875 783 TEXT;
#X obj 940 698 bng 15 250 50 0 empty empty empty 17 7 0 10 #fcfcfc #000000 #000000;
#X obj 940 757 bng 15 250 50 0 empty empty empty 17 7 0 10 #fcfcfc #000000 #000000;
#X obj 53 314 cnv 15 350 130 empty empty empty 20 12 0 14 #bbbbbb #404040 0;
#N canvas 1055 444 450 250 (subpatch) 0;
#X array parametro4 8 float 2;
#X coords 0 1 8 -1 145 50 1 0 0;
#X restore 63 335 graph;
#X obj 63 406 text define parametro5;
#X listbox 219 350 20 0 0 0 - parametro4_gui_set parametro4_gui 0;
#X text 349 349 PARAM 4;
#X listbox 219 406 20 0 0 0 - parametro5_gui_set parametro5_gui 0;
#X text 349 405 PARAM 5;
#X text 611 105 -text = Configura [param] para armazenar conteúdo de um [text] declarado como parâmetro, f 93;
#X text 611 85 -array = Configura [param] para armazenar conteúdo de um [array] declarado como parâmetro, f 93;
#X text 611 145 -clip $MIN $MAX = Limita número gerenciado no parâmetro aos valores de $MIN e $MAX com [clip], f 93;
#X text 611 125 -int = Restringe número gerenciado no parâmetro para inteiros com [int], f 93;
#X text 611 205 -noslew = Desliga mecanismo de interpolação de presets no parâmetro, f 93;
#X text 611 225 -norandom = Desliga mecanismo de randomização no parâmetro, f 93;
#X text 611 245 -nodrunk = Desliga mecanismo de drunkard walk no parâmetro, f 93;
#X text 611 265 -noall = Desliga os mecanismos de interpolação \, randomização e drunkard walk, f 93;
#X text 611 285 -skip = Parâmetro ignora dados carregados da memória, f 93;
#X text 611 25 RECURSOS ADICIONAIS DECLARADOS COMO FLAGS;
#X text 611 55 -- RECURSOS PERMANENTES, f 93;
#X text 611 175 -- RECURSOS VARIÁVEIS (PODEM SER SOBRESCRITOS COM CONTROLE EXTERNO), f 93;
#X text 70 140 $FLAGS (OPCIONAL) = CONFIGURAÇÂO DE RECURSOS, f 64;
#X text 50 472 DECLARAÇÃO DOS PARÂMETROS E MÉTODOS DE CONTROLE;
#X connect 6 0 17 0;
#X connect 6 1 19 0;
#X connect 7 0 50 0;
#X connect 8 0 11 0;
#X connect 9 0 10 0;
#X connect 12 0 50 1;
#X connect 13 0 14 0;
#X connect 14 0 15 0;
#X connect 16 0 6 0;
#X connect 17 0 18 0;
#X connect 19 0 20 0;
#X connect 25 0 23 0;
#X connect 26 0 24 0;
#X connect 27 0 28 0;
#X connect 32 0 27 0;
#X connect 33 0 34 0;
#X connect 42 0 76 1;
#X connect 50 0 8 0;
#X connect 50 1 9 0;
#X connect 51 0 53 0;
#X connect 55 0 57 0;
#X connect 55 1 56 0;
#X connect 56 0 54 0;
#X connect 57 0 58 0;
#X connect 59 0 55 0;
#X connect 72 0 50 2;
#X connect 86 0 82 0;
#X connect 87 0 83 0;
