#N canvas 90 95 425 359 10;
#X obj 71 53 inlet;
#X obj 71 82 route bang;
#X obj 71 111 memolist \$1;
#X obj 71 171 listbox 1 1 0 1;
#X obj 161 96 bng 15 250 50 0 empty empty empty 17 7 0 10 #fcfcfc #000000 #000000;
#X text 185 95 REFRESH MEMOS;
#X obj 281 53 inlet;
#X msg 281 111 slot \$1 \, load;
#X obj 269 298 outlet ACTIVE_SLOT;
#X obj 158 298 outlet SUPERLIST;
#X obj 151 53 inlet SUPERLIST;
#X obj 71 298 outlet LISTS;
#X connect 0 0 1 0;
#X connect 1 0 2 0;
#X connect 1 1 3 0;
#X connect 2 0 3 0;
#X connect 3 0 2 1;
#X connect 3 0 11 0;
#X connect 3 1 9 0;
#X connect 3 2 8 0;
#X connect 4 0 2 2;
#X connect 6 0 7 0;
#X connect 7 0 3 0;
#X connect 10 0 3 1;
#X coords 0 -1 1 1 169 127 1 70 150;
