#N canvas 853 124 650 708 10;
#X obj 51 286 cnv 15 165 128 \$0-bg \$0-bg_set empty 20 12 0 14 #000000 #404040 0;
#X obj 76 313 bng 15 250 50 0 \$0-click1 \$0-click1_set empty 17 7 0 10 #fcfcfc #000000 #000000;
#X obj 96 313 bng 15 250 50 0 \$0-click2 \$0-click2_set empty 17 7 0 10 #fcfcfc #000000 #000000;
#X obj 116 313 bng 15 250 50 0 \$0-click3 \$0-click3_set empty 17 7 0 10 #fcfcfc #000000 #000000;
#X obj 136 313 bng 15 250 50 0 \$0-click4 \$0-click4_set empty 17 7 0 10 #fcfcfc #000000 #000000;
#X obj 156 313 bng 15 250 50 0 \$0-click5 \$0-click5_set empty 17 7 0 10 #fcfcfc #000000 #000000;
#X obj 176 313 bng 15 250 50 0 \$0-click6 \$0-click6_set empty 17 7 0 10 #fcfcfc #000000 #000000;
#X obj 196 313 bng 15 250 50 0 \$0-click7 \$0-click7_set empty 17 7 0 10 #fcfcfc #000000 #000000;
#X obj 56 313 bng 15 250 50 0 \$0-click0 \$0-click0_set empty 17 7 0 10 #fcfcfc #000000 #000000;
#X obj 56 313 cnv 15 15 15 \$0-canvas0 \$0-canvas0_set 0 5 8 0 10 #a0a0a0 #404040 0;
#X obj 76 313 cnv 15 15 15 \$0-canvas1 \$0-canvas1_set 1 5 8 0 10 #fcfcfc #404040 0;
#X obj 96 313 cnv 15 15 15 \$0-canvas2 \$0-canvas2_set 2 5 8 0 10 #fcfcfc #404040 0;
#X obj 116 313 cnv 15 15 15 \$0-canvas3 \$0-canvas3_set 3 5 8 0 10 #fcfcfc #404040 0;
#X obj 136 313 cnv 15 15 15 \$0-canvas4 \$0-canvas4_set 4 5 8 0 10 #fcfcfc #404040 0;
#X obj 156 313 cnv 15 15 15 \$0-canvas5 \$0-canvas5_set 5 5 8 0 10 #fcfcfc #404040 0;
#X obj 176 313 cnv 15 15 15 \$0-canvas6 \$0-canvas6_set 6 5 8 0 10 #fcfcfc #404040 0;
#X obj 196 313 cnv 15 15 15 \$0-canvas7 \$0-canvas7_set 7 5 8 0 10 #fcfcfc #404040 0;
#X obj 56 394 bng 15 250 50 0 \$0-load \$0-load_set L 5 8 0 10 #dcdcdc #000000 #000000;
#X obj 76 394 bng 15 250 50 0 \$0-save \$0-save_set S 5 8 0 10 #dcdcdc #000000 #000000;
#X obj 106 394 bng 15 250 50 0 \$0-clear \$0-clear_set C 5 8 0 10 #dcdcdc #000000 #000000;
#X obj 126 394 bng 15 250 50 0 \$0-reset \$0-reset_set R 5 8 0 10 #7c7c7c #000000 #fcfcfc;
#X obj 176 394 bng 15 250 50 0 \$0-dump \$0-dump_set D 5 8 0 10 #dcdcdc #000000 #000000;
#X obj 156 394 bng 15 250 50 0 \$0-edit \$0-edit_set E 5 8 0 10 #dcdcdc #000000 #000000;
#X obj 76 333 bng 15 250 50 0 \$0-click9 \$0-click9_set empty 17 7 0 10 #fcfcfc #000000 #000000;
#X obj 96 333 bng 15 250 50 0 \$0-click10 \$0-click10_set empty 17 7 0 10 #fcfcfc #000000 #000000;
#X obj 116 333 bng 15 250 50 0 \$0-click11 \$0-click11_set empty 17 7 0 10 #fcfcfc #000000 #000000;
#X obj 136 333 bng 15 250 50 0 \$0-click12 \$0-click12_set empty 17 7 0 10 #fcfcfc #000000 #000000;
#X obj 156 333 bng 15 250 50 0 \$0-click13 \$0-click13_set empty 17 7 0 10 #fcfcfc #000000 #000000;
#X obj 176 333 bng 15 250 50 0 \$0-click14 \$0-click14_set empty 17 7 0 10 #fcfcfc #000000 #000000;
#X obj 196 333 bng 15 250 50 0 \$0-click15 \$0-click15_set empty 17 7 0 10 #fcfcfc #000000 #000000;
#X obj 56 333 bng 15 250 50 0 \$0-click8 \$0-click8_set empty 17 7 0 10 #fcfcfc #000000 #000000;
#X obj 56 333 cnv 15 15 15 \$0-canvas8 \$0-canvas8_set 8 5 8 0 10 #fcfcfc #404040 0;
#X obj 76 333 cnv 15 15 15 \$0-canvas9 \$0-canvas9_set 9 5 8 0 10 #fcfcfc #404040 0;
#X obj 96 333 cnv 15 15 15 \$0-canvas10 \$0-canvas10_set 10 2 8 0 10 #fcfcfc #404040 0;
#X obj 116 333 cnv 15 15 15 \$0-canvas11 \$0-canvas11_set 11 2 8 0 10 #fcfcfc #404040 0;
#X obj 136 333 cnv 15 15 15 \$0-canvas12 \$0-canvas12_set 12 2 8 0 10 #fcfcfc #404040 0;
#X obj 156 333 cnv 15 15 15 \$0-canvas13 \$0-canvas13_set 13 2 8 0 10 #fcfcfc #404040 0;
#X obj 176 333 cnv 15 15 15 \$0-canvas14 \$0-canvas14_set 14 2 8 0 10 #fcfcfc #404040 0;
#X obj 196 333 cnv 15 15 15 \$0-canvas15 \$0-canvas15_set 15 2 8 0 10 #fcfcfc #404040 0;
#X obj 76 353 bng 15 250 50 0 \$0-click17 \$0-click17_set empty 17 7 0 10 #fcfcfc #000000 #000000;
#X obj 96 353 bng 15 250 50 0 \$0-click18 \$0-click18_set empty 17 7 0 10 #fcfcfc #000000 #000000;
#X obj 116 353 bng 15 250 50 0 \$0-click19 \$0-click19_set empty 17 7 0 10 #fcfcfc #000000 #000000;
#X obj 136 353 bng 15 250 50 0 \$0-click20 \$0-click20_set empty 17 7 0 10 #fcfcfc #000000 #000000;
#X obj 156 353 bng 15 250 50 0 \$0-click21 \$0-click21_set empty 17 7 0 10 #fcfcfc #000000 #000000;
#X obj 176 353 bng 15 250 50 0 \$0-click22 \$0-click22_set empty 17 7 0 10 #fcfcfc #000000 #000000;
#X obj 196 353 bng 15 250 50 0 \$0-click23 \$0-click23_set empty 17 7 0 10 #fcfcfc #000000 #000000;
#X obj 56 353 bng 15 250 50 0 \$0-click16 \$0-click16_set empty 17 7 0 10 #fcfcfc #000000 #000000;
#X obj 56 353 cnv 15 15 15 \$0-canvas16 \$0-canvas16_set 16 2 8 0 10 #fcfcfc #404040 0;
#X obj 76 353 cnv 15 15 15 \$0-canvas17 \$0-canvas17_set 17 2 8 0 10 #fcfcfc #404040 0;
#X obj 96 353 cnv 15 15 15 \$0-canvas18 \$0-canvas18_set 18 2 8 0 10 #fcfcfc #404040 0;
#X obj 116 353 cnv 15 15 15 \$0-canvas19 \$0-canvas19_set 19 2 8 0 10 #fcfcfc #404040 0;
#X obj 136 353 cnv 15 15 15 \$0-canvas20 \$0-canvas20_set 20 2 8 0 10 #fcfcfc #404040 0;
#X obj 156 353 cnv 15 15 15 \$0-canvas21 \$0-canvas21_set 21 2 8 0 10 #fcfcfc #404040 0;
#X obj 176 353 cnv 15 15 15 \$0-canvas22 \$0-canvas22_set 22 2 8 0 10 #fcfcfc #404040 0;
#X obj 196 353 cnv 15 15 15 \$0-canvas23 \$0-canvas23_set 23 2 8 0 10 #fcfcfc #404040 0;
#X obj 76 373 bng 15 250 50 0 \$0-click25 \$0-click25_set empty 17 7 0 10 #fcfcfc #000000 #000000;
#X obj 96 373 bng 15 250 50 0 \$0-click26 \$0-click26_set empty 17 7 0 10 #fcfcfc #000000 #000000;
#X obj 116 373 bng 15 250 50 0 \$0-click27 \$0-click27_set empty 17 7 0 10 #fcfcfc #000000 #000000;
#X obj 136 373 bng 15 250 50 0 \$0-click28 \$0-click28_set empty 17 7 0 10 #fcfcfc #000000 #000000;
#X obj 156 373 bng 15 250 50 0 \$0-click29 \$0-click29_set empty 17 7 0 10 #fcfcfc #000000 #000000;
#X obj 176 373 bng 15 250 50 0 \$0-click30 \$0-click30_set empty 17 7 0 10 #fcfcfc #000000 #000000;
#X obj 196 373 bng 15 250 50 0 \$0-click31 \$0-click31_set empty 17 7 0 10 #fcfcfc #000000 #000000;
#X obj 56 373 bng 15 250 50 0 \$0-click24 \$0-click24_set empty 17 7 0 10 #fcfcfc #000000 #000000;
#X obj 56 373 cnv 15 15 15 \$0-canvas24 \$0-canvas24_set 24 2 8 0 10 #fcfcfc #404040 0;
#X obj 76 373 cnv 15 15 15 \$0-canvas25 \$0-canvas25_set 25 2 8 0 10 #fcfcfc #404040 0;
#X obj 96 373 cnv 15 15 15 \$0-canvas26 \$0-canvas26_set 26 2 8 0 10 #fcfcfc #404040 0;
#X obj 116 373 cnv 15 15 15 \$0-canvas27 \$0-canvas27_set 27 2 8 0 10 #fcfcfc #404040 0;
#X obj 136 373 cnv 15 15 15 \$0-canvas28 \$0-canvas28_set 28 2 8 0 10 #fcfcfc #404040 0;
#X obj 156 373 cnv 15 15 15 \$0-canvas29 \$0-canvas29_set 29 2 8 0 10 #fcfcfc #404040 0;
#X obj 176 373 cnv 15 15 15 \$0-canvas30 \$0-canvas30_set 30 2 8 0 10 #fcfcfc #404040 0;
#X obj 196 373 cnv 15 15 15 \$0-canvas31 \$0-canvas31_set 31 2 8 0 10 #fcfcfc #404040 0;
#X obj 278 270 loadbang;
#X obj 278 308 s \$0-lb;
#X obj 335 327 s \$0-totalSlots;
#X text 333 351 DETERMINA EM VÁRIOS PONTOS DO PATCH O NÚMERO TOTAL DE SLOTS, f 29;
#X obj 278 289 t b b;
#X obj 196 394 bng 15 250 50 0 \$0-extras \$0-extras_set + 4 8 0 13 #9c9c9c #fcfcfc #000000;
#X msg 335 308 32;
#X obj 278 185 inlet SLOT;
#N canvas 1139 156 1066 567 EXTERNAL_CONTROL 0;
#X obj 44 28 inlet;
#X obj 44 113 s \$0-write;
#X obj 44 94 route bang;
#X obj 109 94 symbol;
#X obj 208 94 route bang;
#X obj 273 94 symbol;
#X obj 208 113 s \$0-read;
#X obj 273 113 s \$0-readFile;
#X obj 109 113 s \$0-writeFile;
#X text 678 23 ** GERENCIA ENTRADA DE CONTROLES EXTERNOS;
#X obj 458 113 s \$0-load_set;
#X obj 551 113 s \$0-save_set;
#X obj 644 113 s \$0-clear_set;
#X obj 743 113 s \$0-reset_set;
#X obj 842 113 s \$0-edit_set;
#X obj 935 113 s \$0-dump_set;
#X obj 44 267 clip 0 1;
#X obj 106 267 clip 0 1;
#X obj 168 267 clip 0 1;
#X obj 230 267 clip 0 1;
#X obj 44 286 int;
#X obj 106 286 int;
#X obj 168 286 int;
#X obj 230 286 int;
#X obj 44 190 s \$0-cp;
#X obj 101 190 s \$0-mv;
#X obj 215 190 s \$0-next;
#X obj 317 286 s \$0-list;
#X text 384 286 O QUE NÃO FOR COMANDO INTERNO É LISTA PARA MEMÓRIA;
#X obj 284 190 s \$0-setColor;
#X obj 284 171 bang;
#X obj 44 75 route write read slot load save clear reset edit dump;
#X obj 158 190 s \$0-sw;
#X obj 387 28 inlet SUPERLIST;
#X obj 532 28 inlet SLOT;
#X obj 387 171 t b a;
#X obj 44 335 param \$0-autoTrim \$0-memo 0 1;
#X obj 44 354 param \$0-autoSave \$0-memo 1 1;
#X obj 44 373 param \$0-autoLoad \$0-memo 2 0;
#X obj 44 392 param \$0-autoNext \$0-memo 3 1;
#X msg 532 57 slot \$1 \, load;
#X obj 532 227 s \$0-preset_gui_set;
#X obj 44 152 route cp mv sw next refresh superList preset;
#X obj 532 170 route bang;
#X obj 589 189 t b f;
#X text 530 251 OBTÉM PRESET DO CONTEXTO GERENCIADO (\$1);
#X text 631 170 SE TIVER NÚMERO NA MENSAGEM SALVA PRESET NO SLOT DEFINIDO, f 30;
#X obj 44 248 route autoTrim autoSave autoLoad autoNext bang;
#X text 332 248 BANG É IGNORADO;
#X obj 44 431 r \$0-updated;
#X text 129 431 BANG QUANDO ALTERA CONTEÚDO DO [text] MANUALMENTE OU ABRE ARQUIVO DE MEMÓRIA, f 76;
#X text 431 356 CONTEXTO SUPERIOR DE MEMÓRIA UTILIZA \$2;
#X obj 743 433 s \$0-setColor;
#X text 834 433 ATUALIZA CORES DOS SLOTS APÓS CARREGAR MEMÓRIA, f 24;
#X obj 44 498 param \$0-slotSet \$0-memo 5 0;
#X obj 317 356 memo \$0-memo 6 \$2;
#X obj 366 113 s \$0-slotSet-;
#X obj 616 208 s \$0-slotSet-;
#X obj 416 385 s \$0-loaded;
#X text 495 385 BANG QUANDO CARREGA [memo];
#X obj 716 385 r \$0-loaded;
#X obj 716 404 t b b;
#X obj 716 472 s \$0-load;
#X text 782 472 (RE)CARREGA SLOT ATIVO;
#X text 224 498 INICIALIZA SLOT ATIVO DEPOIS DA SUPERLIST;
#X obj 416 318 r \$0-reset;
#X msg 416 337 reset;
#X obj 44 450 param \$0-listBox \$0-memo 4 -text;
#X text 249 450 ARMAZENA TODO CONTEÚDO DOS SLOTS COMO UM [param];
#X connect 0 0 31 0;
#X connect 2 0 1 0;
#X connect 2 1 3 0;
#X connect 3 0 8 0;
#X connect 4 0 6 0;
#X connect 4 1 5 0;
#X connect 5 0 7 0;
#X connect 16 0 20 0;
#X connect 17 0 21 0;
#X connect 18 0 22 0;
#X connect 19 0 23 0;
#X connect 20 0 36 0;
#X connect 21 0 37 0;
#X connect 22 0 38 0;
#X connect 23 0 39 0;
#X connect 30 0 29 0;
#X connect 31 0 2 0;
#X connect 31 1 4 0;
#X connect 31 2 56 0;
#X connect 31 3 10 0;
#X connect 31 4 11 0;
#X connect 31 5 12 0;
#X connect 31 6 13 0;
#X connect 31 7 14 0;
#X connect 31 8 15 0;
#X connect 31 9 42 0;
#X connect 33 0 35 0;
#X connect 34 0 40 0;
#X connect 35 0 29 0;
#X connect 35 1 67 0;
#X connect 40 0 31 0;
#X connect 42 0 24 0;
#X connect 42 1 25 0;
#X connect 42 2 32 0;
#X connect 42 3 26 0;
#X connect 42 4 30 0;
#X connect 42 5 35 0;
#X connect 42 6 43 0;
#X connect 42 7 47 0;
#X connect 43 0 41 0;
#X connect 43 1 44 0;
#X connect 44 0 41 0;
#X connect 44 1 57 0;
#X connect 47 0 16 0;
#X connect 47 1 17 0;
#X connect 47 2 18 0;
#X connect 47 3 19 0;
#X connect 47 5 27 0;
#X connect 49 0 67 0;
#X connect 55 2 58 0;
#X connect 60 0 61 0;
#X connect 61 0 62 0;
#X connect 61 1 52 0;
#X connect 65 0 66 0;
#X connect 66 0 55 1;
#X restore 50 214 pd EXTERNAL_CONTROL;
#X obj 50 185 inlet LIST/CONTROL;
#X obj 173 185 inlet SUPERLIST;
#N canvas 993 287 320 391 RESET 0;
#X obj 106 263 text set \$0-listBox;
#X obj 106 206 until;
#X obj 106 225 t b b;
#X obj 133 244 f;
#X obj 156 244 + 1;
#X msg 148 225 0;
#X obj 75 82 r \$0-reset;
#X obj 90 282 s \$0-setColor;
#X text 59 14 ** (RE)INICIALIZA [text];
#X obj 138 139 s \$0-fileName;
#X msg 138 120 set .;
#X obj 75 63 r \$0-lb;
#X msg 75 311 0;
#X obj 75 101 t b b b b b;
#X obj 106 187 f 1;
#X obj 121 168 r \$0-totalSlots;
#X obj 75 330 s \$0-slotSet-;
#X connect 1 0 2 0;
#X connect 2 0 0 0;
#X connect 2 1 3 0;
#X connect 3 0 4 0;
#X connect 3 0 0 1;
#X connect 4 0 3 1;
#X connect 5 0 3 1;
#X connect 6 0 13 0;
#X connect 10 0 9 0;
#X connect 11 0 13 0;
#X connect 12 0 16 0;
#X connect 13 0 12 0;
#X connect 13 1 7 0;
#X connect 13 2 14 0;
#X connect 13 3 5 0;
#X connect 13 4 10 0;
#X connect 14 0 1 0;
#X connect 15 0 14 1;
#X restore 246 514 pd RESET;
#N canvas 386 361 339 193 DUMP 0;
#X obj 99 56 r \$0-dump;
#X text 37 14 ** ENVIA TODO CONTEÚDO DO [text] PARA SAÍDA;
#X obj 99 113 s \$0-superList;
#X text 96 137 ENVIA O BANCO TODO COMO LISTA PARA SAÍDA, f 23;
#X obj 99 75 t b;
#X obj 99 94 text tolist \$0-listBox;
#X connect 0 0 4 0;
#X connect 4 0 5 0;
#X connect 5 0 2 0;
#X restore 369 476 pd DUMP;
#N canvas 364 708 309 246 SLOT_SAVE 0;
#X obj 130 157 text set \$0-listBox;
#X obj 167 138 r \$0-slot;
#X obj 91 62 r \$0-list;
#X obj 91 119 list;
#X obj 91 100 spigot;
#X obj 22 101 r \$0-save;
#X text 31 14 ** GERENCIA ESCRITA DE SLOTS NO [text];
#X obj 110 176 s \$0-setColor;
#X obj 91 81 t b a;
#X obj 91 138 t b b l;
#X obj 91 195 s \$0-next;
#X obj 136 101 r \$0-reset;
#X obj 136 82 r \$0-autoSave;
#X connect 1 0 0 1;
#X connect 2 0 8 0;
#X connect 3 0 9 0;
#X connect 4 0 3 0;
#X connect 5 0 3 0;
#X connect 8 0 4 0;
#X connect 8 1 3 1;
#X connect 9 0 10 0;
#X connect 9 1 7 0;
#X connect 9 2 0 0;
#X connect 11 0 3 1;
#X connect 12 0 4 1;
#X restore 246 457 pd SLOT_SAVE;
#N canvas 322 544 296 220 SLOT_LOAD 0;
#X obj 98 131 text get \$0-listBox;
#X obj 98 93 spigot;
#X obj 39 93 r \$0-load;
#X obj 98 55 r \$0-slot;
#X obj 98 74 t b f;
#X obj 98 112 f;
#X obj 155 169 s \$0-out;
#X obj 98 150 route bang;
#X text 31 14 ** GERENCIA LEITURA DE SLOTS DO [text];
#X obj 143 74 r \$0-autoLoad;
#X connect 0 0 7 0;
#X connect 1 0 5 0;
#X connect 2 0 5 0;
#X connect 3 0 4 0;
#X connect 4 0 1 0;
#X connect 4 1 5 1;
#X connect 5 0 0 0;
#X connect 7 1 6 0;
#X connect 9 0 1 1;
#X restore 246 476 pd SLOT_LOAD;
#N canvas 354 606 285 162 SLOT_CLEAR 0;
#X obj 100 95 text set \$0-listBox;
#X obj 137 76 r \$0-slot;
#X text 46 14 ** APAGA SLOT ATIVO NO [text];
#X obj 73 57 r \$0-clear;
#X obj 73 114 s \$0-setColor;
#X obj 73 76 t b b;
#X connect 1 0 0 1;
#X connect 3 0 5 0;
#X connect 5 0 4 0;
#X connect 5 1 0 0;
#X restore 246 495 pd SLOT_CLEAR;
#N canvas 168 122 893 631 DEFINE_EDIT_READ_WRITE 0;
#X obj 46 261 text define \$0-listBox;
#X msg 46 202 click;
#X text 86 202 EDITAR;
#X obj 46 68 r \$0-edit;
#X text 172 24 ** DEFINE [text] \, GERENCIA EDIÇÃO MANUAL E ESCRITA/LEITURA EM ARQUIVO, f 69;
#X obj 194 367 text size \$0-listBox;
#X obj 194 463 abs;
#X obj 194 482 until;
#X obj 409 481 text delete \$0-listBox;
#X obj 382 443 t b b;
#X obj 382 500 text size \$0-listBox;
#X obj 382 538 sel 1;
#X obj 424 556 t b;
#X text 443 434 SE FOR MAIOR QUE NÚMERO DE SLOTS \, ENTRA EM LOOP APAGANDO AS LINHAS EXCEDENTES, f 33;
#X text 192 525 SE FOR MENOR QUE NÚMERO DE SLOTS \, INSERE LINHAS VAZIAS NO FIM DO [text] ATÉ IGUALAR SLOTS, f 27;
#X obj 194 501 text set \$0-listBox 1e+06;
#X obj 175 280 bang;
#X obj 175 318 s \$0-setColor;
#X text 209 253 ATUALIZA CORES APÓS EDIÇÃO MANUAL E LEITURA DE ARQUIVO, f 19;
#X obj 373 368 r \$0-totalSlots;
#X obj 221 406 + 1;
#X obj 194 425 moses;
#X obj 373 387 t f f f f;
#X obj 409 462 f;
#X obj 382 519 >;
#X obj 194 444 -;
#X obj 175 126 symbol;
#X obj 175 145 openpanel;
#X obj 466 201 file splitname;
#X obj 466 220 list split 1;
#X text 569 297 ARMAZENA ÚLTIMA PASTA NAVEGADA;
#X obj 175 164 symbol;
#X obj 553 106 pdcontrol;
#X msg 553 87 dir 99;
#X obj 553 68 loadbang;
#N canvas 23 61 520 543 LONG_NAME_CUT 0;
#X obj 47 100 list fromsymbol;
#X obj 47 32 inlet;
#X obj 47 475 outlet FILENAME;
#X obj 104 147 list length;
#X obj 47 129 t l l;
#X obj 47 295 spigot;
#X obj 147 295 spigot;
#X obj 239 399 t l;
#X obj 168 399 list append;
#X obj 147 418 list;
#X obj 147 314 t b l b l b;
#X obj 104 259 <= 22;
#X obj 204 259 > 22;
#X obj 194 380 list split 7;
#X obj 168 342 list split 9;
#X text 180 148 TESTA POR NÚMERO DE CARACTERES;
#X obj 47 436 list tosymbol;
#X text 135 437 CONVERTE LISTA DE CARACTERES ASCII EM SYMBOL;
#X obj 104 166 t l l l;
#X obj 179 211 sel 0;
#X obj 206 230 t f f f;
#X text 301 254 CASO MAIS CARACTERES DO QUE PONTO DE CORTE \, SEPARA EM INICIO...FIM DO NOME, f 27;
#X msg 178 361 46 46 46;
#X text 236 359 ... (ASCII);
#X text 213 192 LIMITE;
#X obj 263 259 - 5;
#X obj 237 314 - 9;
#X obj 179 173 r \$0-lb;
#X text 149 100 CONVERTE SYMBOL EM LISTA DE CARACTERES ASCII;
#X obj 47 71 symbol;
#X obj 179 192 f 15;
#X connect 0 0 4 0;
#X connect 1 0 29 0;
#X connect 3 0 18 0;
#X connect 4 0 6 0;
#X connect 4 0 5 0;
#X connect 4 1 3 0;
#X connect 5 0 16 0;
#X connect 6 0 10 0;
#X connect 7 0 8 1;
#X connect 8 0 7 0;
#X connect 8 0 9 1;
#X connect 9 0 16 0;
#X connect 10 0 9 0;
#X connect 10 1 14 0;
#X connect 10 2 22 0;
#X connect 10 3 13 0;
#X connect 10 4 8 1;
#X connect 11 0 5 1;
#X connect 12 0 6 1;
#X connect 13 1 8 0;
#X connect 14 0 8 0;
#X connect 16 0 2 0;
#X connect 18 0 11 0;
#X connect 18 1 12 0;
#X connect 18 2 25 0;
#X connect 19 1 20 0;
#X connect 20 0 11 1;
#X connect 20 1 12 1;
#X connect 20 2 26 0;
#X connect 22 0 8 0;
#X connect 25 0 13 1;
#X connect 26 0 14 1;
#X connect 27 0 30 0;
#X connect 29 0 0 0;
#X connect 30 0 19 0;
#X restore 500 249 pd LONG_NAME_CUT;
#X text 608 249 CORTA NOMES MUITO GRANDES PARA EXIBIÇÃO;
#X obj 500 268 s \$0-fileName;
#X obj 175 68 r \$0-read;
#X obj 244 68 r \$0-readFile;
#X obj 175 87 bang;
#X msg 194 202 read \$1;
#X obj 434 108 r \$0-lastFolder;
#X obj 553 135 s \$0-lastFolder;
#X obj 466 297 s \$0-lastFolder;
#X text 620 77 OBTÉM CAMINHO DO NÍVEL MAIS ALTO ONDE A ABSTRAÇÃO FOI INSTANCIADA E INICIALIZA PASTA ATIVA, f 32;
#X obj 359 68 r \$0-write;
#X obj 434 68 r \$0-writeFile;
#X obj 359 126 symbol;
#X obj 359 164 symbol;
#X obj 359 87 bang;
#X obj 359 183 t s s;
#X obj 359 145 savepanel;
#X msg 359 202 write \$1;
#X obj 175 183 t b s s;
#X obj 175 299 t b b b;
#X obj 268 318 s \$0-updated;
#X connect 0 1 16 0;
#X connect 1 0 0 0;
#X connect 3 0 1 0;
#X connect 5 0 21 0;
#X connect 6 0 7 0;
#X connect 7 0 15 0;
#X connect 9 0 10 0;
#X connect 9 1 23 0;
#X connect 10 0 24 0;
#X connect 11 0 12 0;
#X connect 12 0 9 0;
#X connect 16 0 55 0;
#X connect 19 0 22 0;
#X connect 20 0 21 1;
#X connect 21 0 25 0;
#X connect 21 1 9 0;
#X connect 22 0 20 0;
#X connect 22 1 25 1;
#X connect 22 2 24 1;
#X connect 22 3 23 1;
#X connect 23 0 8 0;
#X connect 24 0 11 0;
#X connect 25 0 6 0;
#X connect 26 0 27 0;
#X connect 27 0 31 0;
#X connect 28 0 29 0;
#X connect 29 0 44 0;
#X connect 29 1 35 0;
#X connect 31 0 54 0;
#X connect 32 0 43 0;
#X connect 33 0 32 0;
#X connect 34 0 33 0;
#X connect 35 0 37 0;
#X connect 38 0 40 0;
#X connect 39 0 31 0;
#X connect 40 0 26 0;
#X connect 41 0 0 0;
#X connect 42 0 26 1;
#X connect 42 0 48 1;
#X connect 46 0 50 0;
#X connect 47 0 49 0;
#X connect 48 0 52 0;
#X connect 49 0 51 0;
#X connect 50 0 48 0;
#X connect 51 0 53 0;
#X connect 51 1 28 0;
#X connect 52 0 49 0;
#X connect 53 0 0 0;
#X connect 54 0 16 0;
#X connect 54 1 41 0;
#X connect 54 2 28 0;
#X connect 55 0 17 0;
#X connect 55 1 5 0;
#X connect 55 2 56 0;
#X restore 51 457 pd DEFINE_EDIT_READ_WRITE;
#N canvas 707 192 584 616 COPY 0;
#X obj 106 405 text get \$0-listBox;
#X obj 169 492 text set \$0-listBox;
#X obj 142 511 s \$0-setColor;
#X obj 142 473 t b l;
#X obj 79 96 list split 1;
#X obj 142 348 list split 1;
#X text 62 29 ** MECANISMO PARA COPIAR UM SLOT PARA OUTRO(S);
#X obj 142 454 list;
#X obj 142 367 t b f b;
#X obj 181 386 list;
#X obj 142 171 route all;
#X obj 142 152 list trim;
#X obj 142 133 list;
#X obj 79 115 t b f;
#X obj 79 77 r \$0-cp;
#X obj 391 38 r \$0-totalSlots;
#X obj 408 76 until;
#X obj 408 114 f;
#X obj 431 114 + 1;
#X msg 423 95 0;
#N canvas 5 61 373 243 LISTMAKER 0;
#X obj 147 110 list prepend;
#X obj 147 129 list;
#X obj 238 94 bng 15 250 50 0 empty empty empty 17 7 0 10 #fcfcfc #000000 #000000;
#X obj 37 47 inlet TRIGGER;
#X obj 147 47 inlet LIST;
#X obj 238 47 inlet RESET;
#X obj 126 148 list;
#X obj 126 94 bng 15 250 50 0 empty empty empty 17 7 0 10 #fcfcfc #000000 #000000;
#X obj 126 177 outlet LIST;
#X connect 0 0 1 0;
#X connect 1 0 0 1;
#X connect 1 0 6 1;
#X connect 2 0 0 1;
#X connect 3 0 7 0;
#X connect 4 0 0 0;
#X connect 5 0 2 0;
#X connect 6 0 8 0;
#X connect 7 0 6 0;
#X restore 391 133 pd LISTMAKER;
#X obj 391 57 t b f b b;
#X obj 391 152 list prepend set;
#X obj 391 171 list trim;
#X msg 142 190 0 1 2 3 4 5 6 7 8 9 10 11 12 13 14 15 16 17 18 19 20 21 22 23 24 25 26 27 28 29 30 31;
#X connect 0 0 7 1;
#X connect 3 0 2 0;
#X connect 3 1 1 0;
#X connect 4 0 13 0;
#X connect 4 1 12 1;
#X connect 5 0 8 0;
#X connect 5 1 9 1;
#X connect 7 0 3 0;
#X connect 8 0 7 0;
#X connect 8 1 1 1;
#X connect 8 2 9 0;
#X connect 9 0 5 0;
#X connect 10 0 24 0;
#X connect 10 1 5 0;
#X connect 11 0 10 0;
#X connect 12 0 11 0;
#X connect 13 0 12 0;
#X connect 13 1 0 0;
#X connect 14 0 4 0;
#X connect 15 0 21 0;
#X connect 16 0 17 0;
#X connect 17 0 18 0;
#X connect 17 0 20 1;
#X connect 18 0 17 1;
#X connect 19 0 17 1;
#X connect 20 0 22 0;
#X connect 21 0 20 0;
#X connect 21 1 16 0;
#X connect 21 2 19 0;
#X connect 21 3 20 2;
#X connect 22 0 23 0;
#X connect 23 0 24 0;
#X connect 24 0 5 0;
#X restore 369 495 pd COPY;
#N canvas 543 334 541 644 MOVE 0;
#X obj 78 422 text get \$0-listBox;
#X obj 59 113 list split 1;
#X obj 114 365 list split 1;
#X obj 114 480 list;
#X obj 114 384 t b f b;
#X obj 153 403 list;
#X obj 153 528 text set \$0-listBox;
#X obj 114 566 s \$0-setColor;
#X obj 114 509 t b b l;
#X obj 133 547 text set \$0-listBox;
#X obj 114 150 list;
#X obj 59 132 t b f f;
#X obj 114 188 route all;
#X obj 114 169 list trim;
#X obj 59 94 r \$0-mv;
#X msg 114 207 0 1 2 3 4 5 6 7 8 9 10 11 12 13 14 15 16 17 18 19 20 21 22 23 24 25 26 27 28 29 30 31;
#X obj 341 55 r \$0-totalSlots;
#X obj 358 93 until;
#X obj 358 131 f;
#X obj 381 131 + 1;
#X msg 373 112 0;
#N canvas 5 61 373 243 LISTMAKER 0;
#X obj 147 110 list prepend;
#X obj 147 129 list;
#X obj 238 94 bng 15 250 50 0 empty empty empty 17 7 0 10 #fcfcfc #000000 #000000;
#X obj 37 47 inlet TRIGGER;
#X obj 147 47 inlet LIST;
#X obj 238 47 inlet RESET;
#X obj 126 148 list;
#X obj 126 94 bng 15 250 50 0 empty empty empty 17 7 0 10 #fcfcfc #000000 #000000;
#X obj 126 177 outlet LIST;
#X connect 0 0 1 0;
#X connect 1 0 0 1;
#X connect 1 0 6 1;
#X connect 2 0 0 1;
#X connect 3 0 7 0;
#X connect 4 0 0 0;
#X connect 5 0 2 0;
#X connect 6 0 8 0;
#X connect 7 0 6 0;
#X restore 341 150 pd LISTMAKER;
#X obj 341 74 t b f b b;
#X obj 341 169 list prepend set;
#X obj 341 188 list trim;
#X text 43 32 ** MECANISMO PARA MOVER UM SLOT (COPIA CONTEÚDO PARA DESTINO(S) E APAGA SLOT DE ORIGEM), f 38;
#X obj 78 441 route bang;
#X connect 0 0 26 0;
#X connect 1 0 11 0;
#X connect 1 1 10 1;
#X connect 2 0 4 0;
#X connect 2 1 5 1;
#X connect 3 0 8 0;
#X connect 4 0 3 0;
#X connect 4 1 6 1;
#X connect 4 2 5 0;
#X connect 5 0 2 0;
#X connect 8 0 7 0;
#X connect 8 1 9 0;
#X connect 8 2 6 0;
#X connect 10 0 13 0;
#X connect 11 0 10 0;
#X connect 11 1 0 0;
#X connect 11 2 9 1;
#X connect 12 0 15 0;
#X connect 12 1 2 0;
#X connect 13 0 12 0;
#X connect 14 0 1 0;
#X connect 15 0 2 0;
#X connect 16 0 22 0;
#X connect 17 0 18 0;
#X connect 18 0 19 0;
#X connect 18 0 21 1;
#X connect 19 0 18 1;
#X connect 20 0 18 1;
#X connect 21 0 23 0;
#X connect 22 0 21 0;
#X connect 22 1 17 0;
#X connect 22 2 20 0;
#X connect 22 3 21 2;
#X connect 23 0 24 0;
#X connect 24 0 15 0;
#X connect 26 0 3 1;
#X connect 26 1 3 1;
#X restore 369 514 pd MOVE;
#N canvas 672 551 345 314 SWITCH 0;
#X obj 140 151 text get \$0-listBox;
#X obj 57 189 list;
#X obj 84 227 text set \$0-listBox;
#X obj 57 246 s \$0-setColor;
#X obj 57 84 r \$0-sw;
#X obj 76 151 s \$0-mv;
#X msg 76 132 \$2 \$1;
#X obj 57 208 t b l;
#X text 43 32 ** MECANISMO PARA INVERTER DOIS SLOTS (UTILIZA MECANISMO DO MOVE), f 37;
#X obj 57 103 t b a a;
#X obj 140 122 unpack f f;
#X connect 0 0 1 1;
#X connect 1 0 7 0;
#X connect 4 0 9 0;
#X connect 6 0 5 0;
#X connect 7 0 3 0;
#X connect 7 1 2 0;
#X connect 9 0 1 0;
#X connect 9 1 6 0;
#X connect 9 2 10 0;
#X connect 10 0 0 0;
#X connect 10 1 2 1;
#X restore 369 533 pd SWITCH;
#N canvas 481 163 464 261 TERMINAL 0;
#X obj 43 104 route cp mv sw;
#X obj 43 190 s \$0-cp;
#X obj 70 171 s \$0-mv;
#X obj 97 152 s \$0-sw;
#X obj 124 123 print LISTBOX_TERMINAL;
#X obj 43 85 list trim;
#X obj 43 66 r \$0-terminal;
#X text 41 30 ** GERENCIA DADOS INSERIDOS NO TERMINAL VIRTUAL DE EDIÇÃO;
#X obj 316 66 r \$0-extras;
#X msg 316 85 vis 1;
#X obj 316 104 s pd-\$0-EXTRAS;
#X text 314 128 VISIBILIDADE DA JANELA EXTRAS, f 15;
#X connect 0 0 1 0;
#X connect 0 1 2 0;
#X connect 0 2 3 0;
#X connect 0 3 4 0;
#X connect 5 0 0 0;
#X connect 6 0 5 0;
#X connect 8 0 9 0;
#X connect 9 0 10 0;
#X restore 369 552 pd TERMINAL;
#N canvas 1600 686 334 108 \$0-EXTRAS 0;
#X obj 1 1 cnv 15 331 105 empty empty empty 20 12 0 14 #000000 #404040 0;
#X obj 6 6 cnv 15 100 95 empty empty empty 20 12 0 14 #9c9c9c #404040 0;
#X obj 112 6 cnv 15 215 95 empty empty empty 20 12 0 14 #9c9c9c #404040 0;
#X obj 122 30 cnv 15 170 17 empty empty empty 20 12 0 14 #fcfcfc #404040 0;
#X obj 301 31 bng 15 250 50 0 \$0-terminal_set \$0-null empty 17 7 0 10 #fcfcfc #000000 #000000;
#X obj 16 16 tgl 15 0 \$0-autoTrim_gui \$0-autoTrim_gui_set empty 5 8 0 10 #fcfcfc #000000 #000000 0 1;
#X obj 16 56 tgl 15 0 \$0-autoLoad_gui \$0-autoLoad_gui_set empty 17 7 0 10 #fcfcfc #000000 #000000 0 1;
#X obj 16 36 tgl 15 0 \$0-autoSave_gui \$0-autoSave_gui_set empty 17 7 0 10 #fcfcfc #000000 #000000 0 1;
#X obj 16 76 tgl 15 0 \$0-autoNext_gui \$0-autoNext_gui_set empty 17 7 0 10 #fcfcfc #000000 #000000 0 1;
#X text 35 75 AUTO NEXT;
#X text 35 15 AUTO TRIM;
#X text 120 12 TERMINAL;
#X text 120 53 COPY: cp X Y (Z W...) / cp X all;
#X text 120 67 MOVE: mv X Y (Z W...) / mv X all;
#X text 120 81 SWITCH: sw X Y;
#X text 35 55 AUTO LOAD;
#X text 35 35 AUTO SAVE;
#X listbox 122 30 28 0 0 0 - \$0-terminal_set \$0-terminal 0;
#X restore 466 457 pd \$0-EXTRAS;
#N canvas 1583 281 355 293 PRESET 0;
#X obj 165 149 bng 15 250 50 0 empty empty empty 17 7 0 10 #fcfcfc #000000 #000000;
#X text 190 151 REFRESH MEMOS;
#X text 61 24 ** GERENCIA CRIAÇÃO E DISTRIBUIÇÃO DE PRESETS NO CONTEXTO GERENCIADO (\$1), f 37;
#X obj 65 86 r \$0-preset_gui;
#X obj 65 203 s \$0-list;
#X obj 96 125 r \$0-out;
#X obj 65 164 memolist \$1;
#X connect 0 0 6 2;
#X connect 3 0 6 0;
#X connect 5 0 6 1;
#X connect 6 0 4 0;
#X restore 369 457 pd PRESET;
#X obj 51 554 r \$0-out;
#X obj 51 573 t a a;
#X obj 51 592 spigot 1;
#X obj 111 592 spigot 0;
#X obj 96 573 == 0;
#X obj 111 611 list trim;
#X obj 51 629 t a;
#X obj 51 648 outlet LIST;
#X obj 529 648 outlet SLOT;
#X obj 529 629 r \$0-slot;
#X obj 156 555 r \$0-autoTrim;
#X obj 369 629 r \$0-superList;
#X text 366 606 LISTA COMPLETA NO DUMP;
#X obj 369 648 outlet SUPERLIST;
#N canvas 317 277 615 424 SLOT_CLICK_SET_NEXT 0;
#X obj 60 156 r \$0-slotSet;
#X obj 60 261 pack f \$0;
#X msg 60 280 \; \$2-click\$1_set bang;
#X text 58 133 DEFINIÇÃO EXTERNA;
#X obj 293 108 r \$0-autoNext;
#X obj 260 127 spigot;
#X obj 275 146 r \$0-slot;
#X obj 260 165 f;
#X obj 260 184 + 1;
#X obj 260 261 text get \$0-listBox;
#X obj 260 280 route bang;
#X text 286 185 LÊ PRÓXIMO SLOT PARA VER SE TEM CONTEÚDO;
#X obj 260 339 f;
#X text 286 340 SE ESTIVER VAZIO VIRA NOVO SLOT ATIVO;
#X obj 317 299 bang;
#X obj 260 242 t f f f;
#X obj 317 318 f;
#X text 344 319 SE TIVER CONTEÚDO VAI PRO PRÓXIMO;
#X text 98 24 ** GERENCIA CLIQUES \, DEFINIÇÃO EXTERNA E AUTO-AVANÇO DO SLOT ATIVO, f 66;
#X text 258 66 AUTO-AVANÇO;
#N canvas 83 96 1357 560 ACTIVE_SLOT 0;
#X obj 39 73 r \$0-click0;
#X msg 39 92 0;
#X obj 119 73 r \$0-click1;
#X obj 199 73 r \$0-click2;
#X obj 279 73 r \$0-click3;
#X obj 359 73 r \$0-click4;
#X obj 439 73 r \$0-click5;
#X obj 519 73 r \$0-click6;
#X obj 599 73 r \$0-click7;
#X obj 679 73 r \$0-click8;
#X obj 759 73 r \$0-click9;
#X obj 839 73 r \$0-click10;
#X obj 919 73 r \$0-click11;
#X obj 999 73 r \$0-click12;
#X obj 1079 73 r \$0-click13;
#X obj 1159 73 r \$0-click14;
#X obj 1239 73 r \$0-click15;
#X msg 1239 92 15;
#X msg 1159 92 14;
#X msg 1079 92 13;
#X msg 999 92 12;
#X msg 919 92 11;
#X msg 839 92 10;
#X msg 759 92 9;
#X msg 679 92 8;
#X msg 599 92 7;
#X msg 519 92 6;
#X msg 439 92 5;
#X msg 359 92 4;
#X msg 279 92 3;
#X msg 199 92 2;
#X msg 119 92 1;
#X obj 39 111 s \$0-clickId;
#X msg 126 325 const 0;
#X obj 126 344 s \$0-activeSlot;
#X obj 59 451 array set \$0-activeSlot;
#X msg 59 432 1;
#X obj 39 480 s \$0-setColor;
#X obj 203 391 s \$0-slot;
#N canvas 5 139 273 229 2_CLICK 0;
#X obj 103 71 inlet;
#X obj 103 100 t b b;
#X obj 103 119 timer;
#X obj 103 157 sel 1;
#X obj 103 138 < 200;
#X obj 103 176 s \$0-load;
#X text 36 16 ** LÊ SLOT ATUAL QUANDO RECEBE DUPLO CLIQUE (< 200ms), f 30;
#X connect 0 0 1 0;
#X connect 1 0 2 0;
#X connect 1 1 2 1;
#X connect 2 0 4 0;
#X connect 3 0 5 0;
#X connect 4 0 3 0;
#X restore 126 296 pd 2_CLICK;
#X obj 39 259 r \$0-clickId;
#X obj 39 278 t b b f b b;
#X text 36 40 CONVERTE BANGS NOS SLOTS DA INTERFACE NUM ID NUMÉRICO;
#X text 36 226 CONVERTE ID NUMÉRICO DO CLIQUE NO SLOT ATIVO;
#X text 260 283 ARRAY QUE ARMAZENA SLOT ATIVO;
#X obj 261 344 array define \$0-activeSlot;
#X obj 261 306 r \$0-totalSlots;
#X msg 261 325 resize \$1;
#X obj 126 373 t f f f;
#X obj 145 420 s \$0-slotSet_set;
#X text 270 391 SLOT ATIVO PARA MECANISMO INTERNO;
#X text 253 420 ARMAZENA SLOT ATIVO;
#X obj 39 140 r \$0-click16;
#X obj 119 140 r \$0-click17;
#X obj 199 140 r \$0-click18;
#X obj 279 140 r \$0-click19;
#X obj 359 140 r \$0-click20;
#X obj 439 140 r \$0-click21;
#X obj 519 140 r \$0-click22;
#X obj 599 140 r \$0-click23;
#X obj 679 140 r \$0-click24;
#X obj 759 140 r \$0-click25;
#X obj 839 140 r \$0-click26;
#X obj 919 140 r \$0-click27;
#X obj 999 140 r \$0-click28;
#X obj 1079 140 r \$0-click29;
#X obj 1159 140 r \$0-click30;
#X obj 1239 140 r \$0-click31;
#X msg 39 159 16;
#X msg 119 159 17;
#X msg 199 159 18;
#X msg 279 159 19;
#X msg 359 159 20;
#X msg 439 159 21;
#X msg 519 159 22;
#X msg 599 159 23;
#X msg 679 159 24;
#X msg 759 159 25;
#X msg 839 159 26;
#X msg 919 159 27;
#X msg 999 159 28;
#X msg 1079 159 29;
#X msg 1159 159 30;
#X msg 1239 159 31;
#X obj 39 178 s \$0-clickId;
#X connect 0 0 1 0;
#X connect 1 0 32 0;
#X connect 2 0 31 0;
#X connect 3 0 30 0;
#X connect 4 0 29 0;
#X connect 5 0 28 0;
#X connect 6 0 27 0;
#X connect 7 0 26 0;
#X connect 8 0 25 0;
#X connect 9 0 24 0;
#X connect 10 0 23 0;
#X connect 11 0 22 0;
#X connect 12 0 21 0;
#X connect 13 0 20 0;
#X connect 14 0 19 0;
#X connect 15 0 18 0;
#X connect 16 0 17 0;
#X connect 17 0 32 0;
#X connect 18 0 32 0;
#X connect 19 0 32 0;
#X connect 20 0 32 0;
#X connect 21 0 32 0;
#X connect 22 0 32 0;
#X connect 23 0 32 0;
#X connect 24 0 32 0;
#X connect 25 0 32 0;
#X connect 26 0 32 0;
#X connect 27 0 32 0;
#X connect 28 0 32 0;
#X connect 29 0 32 0;
#X connect 30 0 32 0;
#X connect 31 0 32 0;
#X connect 33 0 34 0;
#X connect 36 0 35 0;
#X connect 40 0 41 0;
#X connect 41 0 37 0;
#X connect 41 1 36 0;
#X connect 41 2 48 0;
#X connect 41 3 33 0;
#X connect 41 4 39 0;
#X connect 46 0 47 0;
#X connect 47 0 45 0;
#X connect 48 0 35 1;
#X connect 48 1 49 0;
#X connect 48 2 38 0;
#X connect 52 0 68 0;
#X connect 53 0 69 0;
#X connect 54 0 70 0;
#X connect 55 0 71 0;
#X connect 56 0 72 0;
#X connect 57 0 73 0;
#X connect 58 0 74 0;
#X connect 59 0 75 0;
#X connect 60 0 76 0;
#X connect 61 0 77 0;
#X connect 62 0 78 0;
#X connect 63 0 79 0;
#X connect 64 0 80 0;
#X connect 65 0 81 0;
#X connect 66 0 82 0;
#X connect 67 0 83 0;
#X connect 68 0 84 0;
#X connect 69 0 84 0;
#X connect 70 0 84 0;
#X connect 71 0 84 0;
#X connect 72 0 84 0;
#X connect 73 0 84 0;
#X connect 74 0 84 0;
#X connect 75 0 84 0;
#X connect 76 0 84 0;
#X connect 77 0 84 0;
#X connect 78 0 84 0;
#X connect 79 0 84 0;
#X connect 80 0 84 0;
#X connect 81 0 84 0;
#X connect 82 0 84 0;
#X connect 83 0 84 0;
#X restore 60 89 pd ACTIVE_SLOT;
#X text 58 66 CLIQUE NA INTERFACE;
#X obj 105 185 r \$0-totalSlots;
#X obj 105 223 - 1;
#X obj 60 242 clip 0 1;
#X obj 105 204 t f f;
#X obj 260 223 moses;
#X obj 260 89 r \$0-next;
#X obj 260 358 s \$0-slotSet-;
#X connect 0 0 24 0;
#X connect 1 0 2 0;
#X connect 4 0 5 1;
#X connect 5 0 7 0;
#X connect 6 0 7 1;
#X connect 7 0 8 0;
#X connect 8 0 26 0;
#X connect 9 0 10 0;
#X connect 10 0 12 0;
#X connect 10 1 14 0;
#X connect 12 0 28 0;
#X connect 14 0 16 0;
#X connect 15 0 9 0;
#X connect 15 1 12 1;
#X connect 15 2 16 1;
#X connect 16 0 8 0;
#X connect 22 0 25 0;
#X connect 23 0 24 2;
#X connect 24 0 1 0;
#X connect 25 0 23 0;
#X connect 25 1 26 1;
#X connect 26 0 15 0;
#X connect 27 0 5 0;
#X restore 51 476 pd SLOT_CLICK_SET_NEXT;
#N canvas 1795 147 430 590 COLORS 0;
#X obj 50 50 r \$0-setColor;
#X obj 50 136 until;
#X obj 50 174 f;
#X obj 73 174 + 1;
#X msg 65 155 0;
#X obj 50 69 t b b;
#X obj 50 222 text get \$0-listBox;
#X obj 50 241 route bang;
#X msg 120 407 \; \$1-canvas\$2_set color \$3;
#X obj 120 388 pack \$0 f -9.88184e+06;
#X text 262 388 RGB 150 200 240;
#X text 61 14 ** GERENCIA CORES DOS SLOTS - ATIVO \, VAZIO \, CHEIO;
#X obj 179 222 array get \$0-activeSlot 0 1;
#X obj 120 278 f;
#X obj 120 259 bang;
#X obj 120 297 sel 0 1;
#X msg 139 356 \; \$1-canvas\$2_set color \$3;
#X obj 179 241 t f f;
#X obj 50 278 f;
#X obj 50 297 sel 0 1;
#X msg 50 510 \; \$1-canvas\$2_set color \$3;
#X obj 50 491 pack \$0 f 0;
#X msg 121 478 \; \$1-canvas\$2_set color \$3;
#X obj 50 193 t f f f f f f;
#X obj 121 459 pack \$0 f 1;
#X obj 139 337 pack \$0 f -3.96047e+06;
#X text 281 338 RGB 60 110 150;
#X obj 65 98 r \$0-totalSlots;
#X obj 50 117 f 1;
#X connect 0 0 5 0;
#X connect 1 0 2 0;
#X connect 2 0 3 0;
#X connect 2 0 23 0;
#X connect 3 0 2 1;
#X connect 4 0 2 1;
#X connect 5 0 28 0;
#X connect 5 1 4 0;
#X connect 6 0 7 0;
#X connect 7 0 18 0;
#X connect 7 1 14 0;
#X connect 9 0 8 0;
#X connect 12 0 17 0;
#X connect 13 0 15 0;
#X connect 14 0 13 0;
#X connect 15 0 9 0;
#X connect 15 1 25 0;
#X connect 17 0 18 1;
#X connect 17 1 13 1;
#X connect 18 0 19 0;
#X connect 19 0 21 0;
#X connect 19 1 24 0;
#X connect 21 0 20 0;
#X connect 23 0 6 0;
#X connect 23 1 21 1;
#X connect 23 2 24 1;
#X connect 23 3 9 1;
#X connect 23 4 25 1;
#X connect 23 5 12 0;
#X connect 24 0 22 0;
#X connect 25 0 16 0;
#X connect 27 0 28 1;
#X connect 28 0 1 0;
#X restore 51 495 pd COLORS;
#X obj 77 291 cnv 15 92 15 \$0-bg2 \$0-bg2_set empty 20 12 0 14 #b8b8b8 #404040 0;
#X symbolatom 77 290 15 0 0 0 - \$0-fileName \$0-dead 0;
#X obj 196 291 bng 15 250 50 0 \$0-read \$0-read_set R 5 8 0 10 #dcdcdc #fcfcfc #000000;
#X obj 176 291 bng 15 250 50 0 \$0-write \$0-write_set W 5 8 0 10 #7c7c7c #fcfcfc #fcfcfc;
#X obj 56 291 bng 15 250 50 0 \$0-preset_gui \$0-preset_gui_set P 5 8 0 10 #96c8f0 #3c6e96 #000000;
#X obj 42 59 cnv 15 450 85 empty empty empty 20 12 0 14 #dcdcdc #404040 0;
#X obj 42 30 cnv 15 450 28 empty empty empty 20 12 0 14 #e0c4fc #404040 0;
#X text 49 85 ARGUMENTOS: [presets $CONTEXT $SUPERCONTEXT], f 71;
#X text 69 105 $CONTEXT (OPCIONAL) = CONTEXTO GERENCIADO (symbol), f 68;
#X text 49 65 GESTOR GRÁFICO DE LISTAS E MEMÓRIAS / PRESETS DE CONTEXTOS, f 71;
#X text 69 120 $SUPERCONTEXT (OPCIONAL) = CONTEXTO SUPERIOR DE AGRUPAMENTO (symbol), f 68;
#X text 49 35 ABSTRAÇÃO [presets2], f 71;
#N canvas 5 61 519 363 INFO 0;
#X text 50 43 RECURSOS;
#X text 50 73 - [list trim] interno ON/OFF - na saída da lista;
#X text 50 183 - DUMP - envia todas as listas existentes em sequência;
#X text 50 93 - Auto-Write ON/OFF - escreve slot atual assim que entra uma lista;
#X text 50 153 - Auto-Next ON/OFF - vai para próximo slot vazio assim que escreve slot atual;
#X text 50 123 - Auto-Read ON/OFF - lê o slot assim que é selecionado com clique \, se tiver conteúdo;
#X text 50 213 - Copy/Move - comando externo para copiar ou mover uma lista entre os slots - Sintaxe: comando origem destino(s) - ex:;
#X msg 52 249 cp 2 4;
#X msg 102 249 cp 2 5 6 7;
#X msg 182 249 cp 0 all;
#X msg 262 249 mv 2 4;
#X msg 312 249 mv 2 5 6 7;
#X msg 392 249 mv 0 all;
#X restore 549 77 pd INFO;
#X connect 71 0 75 0;
#X connect 75 0 72 0;
#X connect 75 1 77 0;
#X connect 77 0 73 0;
#X connect 78 0 79 2;
#X connect 80 0 79 0;
#X connect 81 0 79 1;
#X connect 94 0 95 0;
#X connect 95 0 96 0;
#X connect 95 1 97 0;
#X connect 96 0 100 0;
#X connect 97 0 99 0;
#X connect 98 0 96 1;
#X connect 99 0 100 0;
#X connect 100 0 101 0;
#X connect 103 0 102 0;
#X connect 104 0 98 0;
#X connect 104 0 97 1;
#X connect 105 0 107 0;
#X coords 0 -1 1 1 167 145 1 50 270;
