#N canvas 878 167 389 621 12;
#X declare -path ..;
#X floatatom 53 72 5 0 0 0 - \$0-p0_gui_set \$0-p0_gui 0;
#X floatatom 53 103 5 0 0 0 - \$0-p1_gui_set \$0-p1_gui 0;
#X floatatom 53 134 5 0 0 0 - \$0-p2_gui_set \$0-p2_gui 0;
#X text 58 37 GUI;
#X msg 201 226 reset;
#X obj 131 72 param \$0-p0 \$0-memo 0 100;
#X obj 131 103 param \$0-p1 \$0-memo 1 200;
#X obj 131 134 param \$0-p2 \$0-memo 2 300;
#X msg 201 200 dump;
#X obj 53 308 list;
#X obj 53 257 bng 20 250 50 0 empty empty empty 0 -10 0 12 #fcfcfc #000000 #000000;
#X msg 201 252 write;
#X msg 201 278 read;
#X text 144 37 PARAMETER DECLARATION;
#X text 51 189 MEMORY DECLARATION AND CONTROL, f 18;
#X obj 53 398 r \$0-p0;
#X floatatom 53 419 5 0 0 0 - - - 0;
#X floatatom 153 419 5 0 0 0 - - - 0;
#X floatatom 253 419 5 0 0 0 - - - 0;
#X obj 153 398 r \$0-p1;
#X obj 253 398 r \$0-p2;
#X text 50 363 GET DATA;
#X obj 53 513 s \$0-p0-;
#X obj 153 513 s \$0-p1-;
#X obj 253 513 s \$0-p2-;
#X floatatom 53 493 5 0 0 0 - - - 0;
#X floatatom 153 493 5 0 0 0 - - - 0;
#X floatatom 253 493 5 0 0 0 - - - 0;
#X text 50 458 SET DATA;
#X text 255 226 Reset data;
#X text 255 278 Load file;
#X text 255 252 Save to file;
#X text 255 200 Return data;
#X text 81 256 Reload data;
#X obj 106 308 memo \$0-memo 3;
#X obj 197 573 declare -path ..;
#X connect 4 0 34 1;
#X connect 8 0 34 1;
#X connect 9 0 34 0;
#X connect 10 0 9 0;
#X connect 11 0 34 1;
#X connect 12 0 34 1;
#X connect 15 0 16 0;
#X connect 19 0 17 0;
#X connect 20 0 18 0;
#X connect 25 0 22 0;
#X connect 26 0 23 0;
#X connect 27 0 24 0;
#X connect 34 0 9 1;
