#N canvas 510 100 398 621 12;
#X declare -path ..;
#X floatatom 53 72 5 0 0 0 - \$0-p0_gui_set \$0-p0_gui 0;
#X floatatom 53 103 5 0 0 0 - \$0-p1_gui_set \$0-p1_gui 0;
#X floatatom 53 134 5 0 0 0 - \$0-p2_gui_set \$0-p2_gui 0;
#X text 58 37 GUI;
#X msg 201 226 reset;
#X obj 131 72 param \$0-p0 \$0-memo 0 100;
#X obj 131 103 param \$0-p1 \$0-memo 1 200;
#X obj 131 134 param \$0-p2 \$0-memo 2 300;
#X msg 201 200 dump;
#X obj 53 308 list;
#X obj 53 257 bng 20 250 50 0 empty empty empty 0 -10 0 12 #fcfcfc #000000 #000000;
#X msg 201 252 write;
#X msg 201 278 read;
#X obj 53 398 r \$0-p0;
#X floatatom 53 419 5 0 0 0 - - - 0;
#X floatatom 153 419 5 0 0 0 - - - 0;
#X floatatom 253 419 5 0 0 0 - - - 0;
#X obj 153 398 r \$0-p1;
#X obj 253 398 r \$0-p2;
#X obj 53 513 s \$0-p0-;
#X obj 153 513 s \$0-p1-;
#X obj 253 513 s \$0-p2-;
#X floatatom 53 493 5 0 0 0 - - - 0;
#X floatatom 153 493 5 0 0 0 - - - 0;
#X floatatom 253 493 5 0 0 0 - - - 0;
#X obj 106 308 memo \$0-memo 3;
#X obj 197 573 declare -path ..;
#X text 135 37 DECLARAÇÃO DE PARÂMETROS;
#X text 51 189 DECLARAÇÃO E CONTROLE DA MEMÓRIA, f 12;
#X text 81 256 Recarrega dados, f 9;
#X text 255 200 Retorna dados;
#X text 255 226 Reinicia dados;
#X text 255 252 Escreve arquivo;
#X text 255 278 Carrega arquivo;
#X text 50 363 RECEBE DADOS;
#X text 50 458 ENVIA DADOS;
#X connect 4 0 25 1;
#X connect 8 0 25 1;
#X connect 9 0 25 0;
#X connect 10 0 9 0;
#X connect 11 0 25 1;
#X connect 12 0 25 1;
#X connect 13 0 14 0;
#X connect 17 0 15 0;
#X connect 18 0 16 0;
#X connect 22 0 19 0;
#X connect 23 0 20 0;
#X connect 24 0 21 0;
#X connect 25 0 9 1;
