#N canvas 143 21 1375 781 12;
#X declare -path ..;
#X obj 131 686 r \$0-p1;
#X floatatom 131 707 5 0 0 0 - - - 0;
#X floatatom 201 707 5 0 0 0 - - - 0;
#X floatatom 271 707 5 0 0 0 - - - 0;
#X obj 201 686 r \$0-p2;
#X obj 271 686 r \$0-p3;
#X floatatom 131 592 5 0 0 0 - - - 0;
#X floatatom 201 592 5 0 0 0 - - - 0;
#X floatatom 271 592 5 0 0 0 - - - 0;
#X obj 131 612 s \$0-p1-;
#X obj 201 612 s \$0-p2-;
#X obj 271 612 s \$0-p3-;
#X symbolatom 382 592 10 0 0 0 - - - 0;
#X symbolatom 382 707 10 0 0 0 - - - 0;
#X symbolatom 465 592 10 0 0 0 - - - 0;
#X symbolatom 465 707 10 0 0 0 - - - 0;
#X obj 382 612 s \$0-p4-;
#X obj 382 686 r \$0-p4;
#X obj 465 612 s \$0-p5-;
#X obj 585 612 s \$0-p6-;
#X obj 465 686 r \$0-p5;
#X text 54 257 SYMBOL;
#X text 61 160 FLOAT;
#X text 68 322 LIST;
#X obj 131 109 cnv 15 180 393 empty empty empty 20 12 0 14 #e3c6ff #404040 0;
#X floatatom 157 160 5 0 0 0 P2 \$0-p2_gui_set \$0-p2_gui 0;
#X floatatom 157 191 5 0 0 0 P3 \$0-p3_gui_set \$0-p3_gui 0;
#X floatatom 157 129 5 0 0 0 P1 \$0-p1_gui_set \$0-p1_gui 0;
#X symbolatom 158 242 10 0 0 0 P4 \$0-p4_gui_set \$0-p4_gui 0;
#X symbolatom 158 273 10 0 0 0 P5 \$0-p5_gui_set \$0-p5_gui 0;
#X text 75 612 SET;
#X text 75 686 GET;
#X obj 214 193 hsl 80 15 0 127 0 0 \$0-p3_gui \$0-p3_gui_set empty -2 -8 0 10 #fcfcfc #000000 #000000 0 1;
#X obj 211 163 hradio 14 1 0 6 \$0-p2_gui \$0-p2_gui_set empty 0 -8 0 10 #fcfcfc #000000 #000000 0;
#X obj 211 131 nbx 5 15 -1e+37 1e+37 0 0 \$0-p1_gui \$0-p1_gui_set empty 0 -8 0 10 #fcfcfc #000000 #000000 0 256;
#X listbox 158 323 19 0 0 0 P6 \$0-p6_gui_set \$0-p6_gui 0;
#X listbox 585 592 20 0 0 0 - - - 0;
#X listbox 585 707 20 0 0 0 - - - 0;
#X obj 585 686 r \$0-p6;
#N canvas 0 50 450 250 (subpatch) 0;
#X array \$0-p7 16 float 2;
#X coords 0 1 16 -1 120 60 1 0 0;
#X restore 166 381 graph;
#X obj 860 87 presets \$0-local \$0-macro;
#X obj 1090 87 presets \$0-macro;
#X text 61 402 ARRAY;
#X text 68 462 TEXT;
#X text 936 204 |;
#X text 936 200 ^;
#X text 1038 87 ---->;
#X obj 839 232 cnv 20 440 270 empty empty empty 20 12 0 12 #dfdfdf #404040 0;
#X obj 859 271 presets \$0-sub \$0-local;
#X floatatom 877 397 5 0 0 0 V1 \$0-v1_gui_set \$0-v1_gui 0;
#X floatatom 877 428 5 0 0 0 V2 \$0-v2_gui_set \$0-v2_gui 0;
#X floatatom 877 459 5 0 0 0 V3 \$0-v3_gui_set \$0-v3_gui 0;
#X obj 929 430 hsl 80 15 0 127 0 0 \$0-v2_gui \$0-v2_gui_set empty -2 -8 0 10 #fcfcfc #000000 #000000 0 1;
#X obj 926 400 hradio 14 1 0 6 \$0-v1_gui \$0-v1_gui_set empty 0 -8 0 10 #fcfcfc #000000 #000000 0;
#X obj 926 461 nbx 5 15 -1e+37 1e+37 0 0 \$0-v3_gui \$0-v3_gui_set empty 0 -8 0 10 #fcfcfc #000000 #000000 0 256;
#X obj 1057 397 param \$0-v1 \$0-submemo 0 1;
#X obj 1057 428 param \$0-v2 \$0-submemo 1 10;
#X obj 1057 459 param \$0-v3 \$0-submemo 2 100;
#X obj 1057 316 memo \$0-submemo 3 \$0-sub;
#X listbox 775 592 20 0 0 0 - - - 0;
#X listbox 775 707 20 0 0 0 - - - 0;
#X obj 775 612 s \$0-p7-;
#X listbox 965 592 20 0 0 0 - - - 0;
#X listbox 965 707 20 0 0 0 - - - 0;
#X obj 965 612 s \$0-p8-;
#N canvas 1055 419 450 300 READ_FILE 0;
#X obj 170 95 loadbang;
#X obj 170 147 outlet;
#X msg 170 116 read doc/store/memox;
#X connect 0 0 2 0;
#X connect 2 0 1 0;
#X restore 1090 66 pd READ_FILE;
#X obj 163 462 text define \$0-p8;
#X text 139 402 P7;
#X text 139 462 P8;
#X obj 775 686 r \$0-p7_data;
#X obj 965 686 r \$0-p8_data;
#X text 555 160 FLAG -int;
#X obj 347 160 param \$0-p2 \$0-memo 1 -int 1;
#X text 611 191 FLAG -clip min max;
#X obj 347 191 param \$0-p3 \$0-memo 2 -clip 0 127 10;
#X obj 347 242 param \$0-p4 \$0-memo 3 COMEMO;
#X obj 347 273 param \$0-p5 \$0-memo 4 SISTEMA;
#X obj 347 462 param \$0-p8 \$0-memo 7 -text;
#X text 555 400 FLAG -array;
#X obj 347 400 param \$0-p7 \$0-memo 6 -array;
#X text 548 462 FLAG -text;
#X obj 347 322 param \$0-p6 \$0-memo 5 uma lista aqui;
#X obj 347 374 bng 20 250 50 0 empty empty empty 0 -10 0 12 #fcfcfc #000000 #000000;
#X obj 347 436 bng 20 250 50 0 empty empty empty 0 -10 0 12 #fcfcfc #000000 #000000;
#X text 791 87 ---->;
#N canvas 278 196 1014 652 CONTROL 0;
#X msg 69 77 slew 0;
#X msg 130 77 slew 1000;
#X obj 69 96 t a;
#X msg 170 117 random 10 50;
#X msg 109 117 random;
#X obj 109 136 t a;
#X obj 149 176 t a;
#X msg 149 157 drunk;
#X msg 204 157 drunk 10 55;
#X obj 189 216 t a;
#X msg 189 197 noslew 0;
#X msg 265 197 noslew 1;
#X obj 229 256 t a;
#X msg 229 237 norandom 0;
#X msg 319 237 norandom 1;
#X obj 279 296 t a;
#X msg 279 277 nodrunk 0;
#X msg 362 277 nodrunk 1;
#X obj 329 336 t a;
#X msg 329 317 noall 0;
#X msg 398 317 noall 1;
#X obj 352 468 t a;
#X msg 352 449 skip 0;
#X msg 414 449 skip 1;
#X msg 213 77 slew 1000 1.5 10 256;
#X obj 71 581 s \$0-local_control;
#X obj 117 519 s \$0-p1_control;
#X obj 94 550 s \$0-memo_control;
#X obj 71 488 t a a a;
#X text 67 32 FEATURES EXCLUSIVE TO NUMERIC PARAMETERS (DON'T WORK WITH SYMBOLS AND LISTS), f 76;
#X text 370 70 CONTROLS INTERPOLATION MECHANISM;
#X text 371 85 ARGUMENTS = TIME \, CURVE \, GRANULARITY \, AND INTERPOLATION RAMP RESOLUTION, f 71;
#X text 272 117 RANDOMIZES PARAMETER BETWEEN 0-1 (DEFAULT) OR BETWEEN VALUES PASSED AS ARGUMENTS, f 80;
#X text 298 151 TRIGGERS DRUNKARD WALK ON THE PARAMETER VALUE;
#X text 298 166 ARGUMENTS = MAXIMUM STEP SIZE AND PERCENTAGE CHANCE OF BEING A FORWARD STEP, f 75;
#X text 339 197 TURNS LOCAL INTERPOLATION MECHANISM ON AND OFF (OVERRIDE FLAG), f 62;
#X text 407 237 TURNS LOCAL RANDOMIZATION MECHANISM ON AND OFF (OVERRIDE FLAG), f 62;
#X text 444 277 TURNS LOCAL DRUNKARD WALK MECHANISM ON AND OFF (OVERRIDE FLAG), f 62;
#X text 466 317 TURNS SLEW \, RANDOM \, AND DRUNKARD WALK ON AND OFF (OVERRIDE FLAGS), f 65;
#X text 350 404 FEATURE AVAILABLE FOR ALL PARAMETER TYPES (NUMBERS \, SYMBOLS \, LISTS \, ARRAYS \, AND TEXTS), f 86;
#X text 473 449 ENABLES AND DISABLES RECEIPT OF DATA FROM MEMORY FOR THE PARAMETER, f 66;
#X text 234 519 SENDS CONTROL TO PARAMETER INDIVIDUALLY;
#X text 232 550 SENDS CONTROL TO ALL PARAMETERS OF A MEMORY BLOCK [memo];
#X text 209 581 SENDS CONTROL TO ALL MEMORY BLOCKS [memo] GROUPED IN A HIGHER CONTEXT, f 69;
#X connect 0 0 2 0;
#X connect 1 0 2 0;
#X connect 2 0 28 0;
#X connect 3 0 5 0;
#X connect 4 0 5 0;
#X connect 5 0 28 0;
#X connect 6 0 28 0;
#X connect 7 0 6 0;
#X connect 8 0 6 0;
#X connect 9 0 28 0;
#X connect 10 0 9 0;
#X connect 11 0 9 0;
#X connect 12 0 28 0;
#X connect 13 0 12 0;
#X connect 14 0 12 0;
#X connect 15 0 28 0;
#X connect 16 0 15 0;
#X connect 17 0 15 0;
#X connect 18 0 28 0;
#X connect 19 0 18 0;
#X connect 20 0 18 0;
#X connect 21 0 28 0;
#X connect 22 0 21 0;
#X connect 23 0 21 0;
#X connect 24 0 2 0;
#X connect 28 0 25 0;
#X connect 28 1 27 0;
#X connect 28 2 26 0;
#X restore 669 353 pd CONTROL;
#N canvas 292 392 864 391 FLAGS 0;
#X text 56 39 EXTRA FEATURES SPECIFIED AS FLAGS;
#X text 56 79 -- PERMANENT FEATURES, f 93;
#X text 56 109 -array = Configures [param] to store content from an [array] declared as a parameter, f 93;
#X text 56 129 -text = Configures [param] to store content from an [text] declared as a parameter, f 93;
#X text 56 150 -int = Restricts the number managed in the parameter to integers with [int], f 93;
#X text 56 169 -clip $MIN $MAX = Limits the number managed in the parameter to values between $MIN and $MAX using [clip], f 105;
#X text 56 209 -- VARIABLE FEATURES (CAN BE OVERRIDDEN WITH EXTERNAL CONTROL), f 93;
#X text 56 239 -noslew = Disables the interpolation mechanism on the parameter, f 93;
#X text 56 259 -norandom = Disables the randomization mechanism on the parameter, f 93;
#X text 56 279 -nodrunk = Disables the drunkard walk mechanism on the parameter, f 93;
#X text 56 299 -noall = Disables the interpolation \, randomization \, and drunkard walk mechanisms, f 93;
#X text 56 319 -skip = Parameter ignores data loaded from memory, f 93;
#X restore 669 322 pd FLAGS;
#X text 61 42 DATA TYPES, f 5;
#X text 137 42 GRAPHICAL INTERFACE;
#X text 344 42 PARAMETER DECLARATION;
#X text 598 42 MEMORY DECLARATION;
#X text 857 42 PRESET MANAGER;
#X text 1088 42 MACRO MEMORY (PRESETS OF PRESETS);
#X text 666 287 EXTRA FEATURES;
#X text 858 242 MEMORY SUBCONTEXT;
#X text 376 374 REFRESH DATA;
#X text 129 547 DATA MANIPULATION;
#X text 772 661 SPECIAL _data SUFFIX FOR ACCESSING ARRAY AND TEXT DATA;
#X obj 347 129 param \$0-p1 \$0-memo 0 100;
#X obj 600 87 memo \$0-memo 8 \$0-local;
#X obj 1203 706 declare -path ..;
#X connect 0 0 1 0;
#X connect 4 0 2 0;
#X connect 5 0 3 0;
#X connect 6 0 9 0;
#X connect 7 0 10 0;
#X connect 8 0 11 0;
#X connect 12 0 16 0;
#X connect 14 0 18 0;
#X connect 17 0 13 0;
#X connect 20 0 15 0;
#X connect 36 0 19 0;
#X connect 38 0 37 0;
#X connect 59 0 61 0;
#X connect 62 0 64 0;
#X connect 65 0 41 0;
#X connect 69 0 60 0;
#X connect 70 0 63 0;
#X connect 82 0 79 0;
#X connect 83 0 77 0;
