#N canvas 188 243 603 455 10;
#X obj 67 144 list split 1;
#X obj 152 173 list;
#X obj 67 173 t b s;
#X obj 136 250 list length;
#X obj 67 269 list prepend;
#X obj 67 317 list;
#X obj 48 346 list;
#X obj 67 298 list append;
#X obj 48 86 inlet ARRAY_LIST;
#X obj 48 395 outlet LIST;
#X obj 67 202 array get;
#X obj 48 115 t b l b;
#X obj 67 231 t l l b;
#X text 46 34 ** COLETA ARRAYS E DEVOLVE LISTA DOS CONTEÚDOS SEPARADOS
POR PREFIXOS COM O NÚMERO DE ELEMENTOS \, PARA [arrayunpack];
#X text 152 144 TOMA UM ARRAY DE CADA VEZ;
#X text 188 173 LOOP QUANDO PROCESSA CADA ARRAY;
#X text 134 202 OBTÉM LISTA DE VALORES DO ARRAY;
#X text 215 250 OBTÉM NÚMERO DE ELEMENTOS NO ARRAY;
#X text 152 269 PRECEDE LISTA COM NÚMERO DE ELEMENTOS PRESENTES;
#X text 146 299 ACUMULA CONTEÚDO DE CADA ARRAY EMPACOTADO;
#X text 85 345 LISTA FINAL COM CONTEÚDO DOS ARRAYS PRECEDIDOS PELO
NÚMERO DE ELEMENTOS, f 35;
#X text 157 86 ENTRADA PARA LISTA DE ARRAYS A SEREM EMPACOTADOS;
#X text 489 54 *** LICENÇA;
#X connect 0 0 2 0;
#X connect 0 1 1 1;
#X connect 1 0 0 0;
#X connect 2 0 10 0;
#X connect 2 1 10 2;
#X connect 3 0 4 1;
#X connect 4 0 7 0;
#X connect 5 0 6 1;
#X connect 5 0 7 1;
#X connect 6 0 9 0;
#X connect 7 0 5 0;
#X connect 8 0 11 0;
#X connect 10 0 12 0;
#X connect 11 0 6 0;
#X connect 11 1 0 0;
#X connect 11 2 7 1;
#X connect 12 0 4 0;
#X connect 12 1 3 0;
#X connect 12 2 1 0;
