#N canvas 421 235 645 532 10;
#N canvas 0 50 450 250 (subpatch) 0;
#X array \$0-array1 12 float 2;
#X coords 0 1 12 -1 200 140 1 0 0;
#X restore 395 40 graph;
#N canvas 0 50 450 250 (subpatch) 0;
#X array \$0-array2 34 float 2;
#X coords 0 1 34 -1 200 140 1 0 0;
#X restore 395 200 graph;
#N canvas 0 50 450 250 (subpatch) 0;
#X array \$0-array3 56 float 2;
#X coords 0 1 56 -1 200 140 1 0 0;
#X restore 395 360 graph;
#X obj 70 314 arraymemo;
#X msg 121 239 bang;
#X obj 121 258 f \$0;
#X msg 121 277 list \$1-array1 \$1-array2 \$1-array3;
#X obj 121 220 loadbang;
#X msg 200 377 bang;
#X obj 200 396 f \$0;
#X msg 200 415 \; \$1-array1 const 0 \; \$1-array2 const 0 \; \$1-array3
const 0;
#X msg 43 146 write;
#X msg 43 165 read;
#X obj 43 184 s \$0-bus;
#X obj 43 92 s \$0-bus;
#X obj 43 275 r \$0-bus;
#X msg 179 54 write store/texxxxt;
#X msg 179 73 write store/texxxxt2;
#X msg 43 54 read store/texxxxt;
#X msg 43 73 read store/texxxxt2;
#X text 41 33 GRAVA E CARREGA COM CAMINHO PARA ARQUIVO;
#X text 41 126 ABRE JANELA PARA GRAVAR OU CARREGAR ARQUIVO;
#X text 157 258 LISTA DE ARRAYS PARA ARMAZENAR;
#X connect 4 0 5 0;
#X connect 5 0 6 0;
#X connect 6 0 3 1;
#X connect 7 0 5 0;
#X connect 8 0 9 0;
#X connect 9 0 10 0;
#X connect 11 0 13 0;
#X connect 12 0 13 0;
#X connect 15 0 3 0;
#X connect 16 0 14 0;
#X connect 17 0 14 0;
#X connect 18 0 14 0;
#X connect 19 0 14 0;
