#N canvas 100 151 536 383 10;
#X obj 46 176 list;
#X obj 139 15 loadbang;
#X obj 46 63 t b b;
#X obj 92 101 s \$1-memo_flush;
#X obj 98 120 r \$1-memo_list;
#X obj 46 195 memopack;
#X obj 222 195 memounpack;
#X obj 46 214 t b a;
#X msg 222 157 0;
#X obj 46 34 inlet SAVE;
#X obj 222 34 inlet REFRESH;
#X obj 46 272 symbol \$2;
#X obj 178 272 symbol \$2;
#X msg 46 291 write \$1;
#X msg 178 291 read \$1;
#X obj 222 176 text get \$0-memo;
#X obj 73 233 text set \$0-memo;
#X obj 46 320 text define \$0-memo;
#X obj 73 82 t b b b;
#X obj 139 53 t b b b;
#X obj 139 72 del 100;
#X obj 112 195 print MEMOS;
#X obj 139 34 del 50;
#X obj 73 158 t l l l;
#N canvas 5 61 355 248 LISTMAKER 0;
#X obj 142 105 list prepend;
#X obj 142 126 list;
#X obj 223 89 bng 15 250 50 0 empty empty empty 17 7 0 10 -262144 -1
-1;
#X obj 28 42 inlet TRIGGER;
#X obj 142 42 inlet LIST;
#X obj 223 42 inlet RESET;
#X obj 117 147 list;
#X obj 117 89 bng 15 250 50 0 empty empty empty 17 7 0 10 -262144 -1
-1;
#X obj 117 176 outlet LIST;
#X connect 0 0 1 0;
#X connect 1 0 0 1;
#X connect 1 0 6 1;
#X connect 2 0 0 1;
#X connect 3 0 7 0;
#X connect 4 0 0 0;
#X connect 5 0 2 0;
#X connect 6 0 8 0;
#X connect 7 0 6 0;
#X restore 73 139 pd LISTMAKER;
#X text 352 44 *** COMENTAR BLOCOS;
#X text 352 64 *** LICENÇA;
#X connect 0 0 5 0;
#X connect 1 0 22 0;
#X connect 2 0 0 0;
#X connect 2 1 18 0;
#X connect 4 0 24 1;
#X connect 5 0 7 0;
#X connect 7 0 11 0;
#X connect 7 1 16 0;
#X connect 8 0 15 0;
#X connect 9 0 2 0;
#X connect 10 0 19 0;
#X connect 11 0 13 0;
#X connect 12 0 14 0;
#X connect 13 0 17 0;
#X connect 14 0 17 0;
#X connect 15 0 6 0;
#X connect 18 0 24 0;
#X connect 18 1 3 0;
#X connect 18 2 24 2;
#X connect 19 0 20 0;
#X connect 19 1 18 0;
#X connect 19 2 12 0;
#X connect 20 0 8 0;
#X connect 22 0 19 0;
#X connect 23 0 0 1;
#X connect 23 1 6 1;
#X connect 23 2 21 0;
#X connect 24 0 23 0;
