#N canvas 2 53 841 449 10;
#X floatatom 249 274 5 0 0 0 - #0-teste_gui_set #0-teste_gui, f 5
;
#X symbolatom 249 321 10 0 0 0 - #0-teste2_gui_set #0-teste2_gui,
f 10;
#X obj 249 350 r \$0-teste3_gui_set;
#X obj 249 388 s \$0-teste3_gui;
#X msg 249 369 agora foi parece que sim;
#X floatatom 42 256 5 0 0 0 - - -, f 5;
#X symbolatom 42 303 10 0 0 0 - - -, f 10;
#X msg 42 350 agora foi parece que sim;
#X obj 42 369 param2 \$0-teste3 \$0-memo 2;
#X obj 42 321 param2 \$0-teste2 \$0-memo 1 teste;
#X obj 42 274 param2 \$0-teste \$0-memo 0 9;
#X floatatom 439 170 5 0 0 0 - - -, f 5;
#X floatatom 439 220 5 0 0 0 - - -, f 5;
#X floatatom 439 270 5 0 0 0 - - -, f 5;
#X floatatom 439 320 5 0 0 0 - - -, f 5;
#X floatatom 439 370 5 0 0 0 - - -, f 5;
#X floatatom 619 170 5 0 0 0 - - -, f 5;
#X floatatom 619 220 5 0 0 0 - - -, f 5;
#X floatatom 619 270 5 0 0 0 - - -, f 5;
#X floatatom 619 320 5 0 0 0 - - -, f 5;
#X floatatom 619 370 5 0 0 0 - - -, f 5;
#X obj 439 188 param2 \$0-1 \$0-memo2 0 10;
#X obj 439 238 param2 \$0-2 \$0-memo2 1 20;
#X obj 439 288 param2 \$0-3 \$0-memo2 2 30;
#X obj 439 338 param2 \$0-4 \$0-memo2 3 40;
#X obj 439 388 param2 \$0-5 \$0-memo2 4 50;
#X obj 619 188 param2 \$0-6 \$0-memo2 5 60;
#X obj 619 238 param2 \$0-7 \$0-memo2 6 70;
#X obj 619 288 param2 \$0-8 \$0-memo2 7 80;
#X obj 619 338 param2 \$0-9 \$0-memo2 8 90;
#X obj 619 388 param2 \$0-10 \$0-memo2 9 100;
#X obj 439 92 memo \$0-memo 3;
#X symbolatom 465 111 10 0 0 0 - - -, f 10;
#X symbolatom 657 111 10 0 0 0 - - -, f 10;
#X msg 520 35 dump;
#X msg 520 54 reset;
#X msg 569 35 write;
#X msg 569 54 read;
#X msg 520 73 edit;
#X msg 712 35 dump;
#X msg 712 54 reset;
#X msg 761 35 write;
#X msg 761 54 read;
#X msg 712 73 edit;
#X obj 619 92 memo \$0-memo2 10;
#X obj 129 108 listbox 1 1 0 1;
#X obj 129 89 memopack \$0;
#X obj 129 194 memounpack \$0;
#X msg 177 33 memo memo2;
#X obj 129 70 list;
#X obj 129 54 bng 15 250 50 0 empty empty empty 17 7 0 10 -262144 -1
-1;
#X obj 177 52 t a a;
#X connect 2 0 4 0;
#X connect 4 0 3 0;
#X connect 5 0 10 0;
#X connect 6 0 9 0;
#X connect 7 0 8 0;
#X connect 8 1 7 0;
#X connect 9 1 6 0;
#X connect 10 1 5 0;
#X connect 11 0 21 0;
#X connect 12 0 22 0;
#X connect 13 0 23 0;
#X connect 14 0 24 0;
#X connect 15 0 25 0;
#X connect 16 0 26 0;
#X connect 17 0 27 0;
#X connect 18 0 28 0;
#X connect 19 0 29 0;
#X connect 20 0 30 0;
#X connect 21 1 11 0;
#X connect 22 1 12 0;
#X connect 23 1 13 0;
#X connect 24 1 14 0;
#X connect 25 1 15 0;
#X connect 26 1 16 0;
#X connect 27 1 17 0;
#X connect 28 1 18 0;
#X connect 29 1 19 0;
#X connect 30 1 20 0;
#X connect 31 1 32 0;
#X connect 34 0 31 1;
#X connect 35 0 31 1;
#X connect 36 0 31 1;
#X connect 37 0 31 1;
#X connect 38 0 31 1;
#X connect 39 0 44 1;
#X connect 40 0 44 1;
#X connect 41 0 44 1;
#X connect 42 0 44 1;
#X connect 43 0 44 1;
#X connect 44 1 33 0;
#X connect 45 0 47 0;
#X connect 46 0 45 0;
#X connect 48 0 51 0;
#X connect 49 0 46 0;
#X connect 50 0 49 0;
#X connect 51 0 49 1;
#X connect 51 1 47 1;
