#N canvas 5 61 1082 562 10;
#X floatatom 249 284 5 0 0 0 - #0-teste_gui_set #0-teste_gui;
#X symbolatom 249 331 10 0 0 0 - #0-teste2_gui_set #0-teste2_gui;
#X obj 249 360 r \$0-teste3_gui_set;
#X obj 249 398 s \$0-teste3_gui;
#X msg 249 379;
#X floatatom 42 266 5 0 0 0 - - -;
#X symbolatom 42 313 10 0 0 0 - - -;
#X msg 42 360;
#X obj 42 379 param \$0-teste3 \$0-memo 2;
#X obj 42 331 param \$0-teste2 \$0-memo 1 teste;
#X obj 42 284 param \$0-teste \$0-memo 0 9;
#X floatatom 439 180 5 0 0 0 - - -;
#X floatatom 439 230 5 0 0 0 - - -;
#X floatatom 439 280 5 0 0 0 - - -;
#X floatatom 439 330 5 0 0 0 - - -;
#X floatatom 439 380 5 0 0 0 - - -;
#X floatatom 619 180 5 0 0 0 - - -;
#X floatatom 619 230 5 0 0 0 - - -;
#X floatatom 619 280 5 0 0 0 - - -;
#X floatatom 619 330 5 0 0 0 - - -;
#X floatatom 619 380 5 0 0 0 - - -;
#X obj 439 198 param \$0-1 \$0-memo2 0 10;
#X obj 439 248 param \$0-2 \$0-memo2 1 20;
#X obj 439 298 param \$0-3 \$0-memo2 2 30;
#X obj 439 348 param \$0-4 \$0-memo2 3 40;
#X obj 439 398 param \$0-5 \$0-memo2 4 50;
#X obj 619 198 param \$0-6 \$0-memo2 5 60;
#X obj 619 248 param \$0-7 \$0-memo2 6 70;
#X obj 619 298 param \$0-8 \$0-memo2 7 80;
#X obj 619 348 param \$0-9 \$0-memo2 8 90;
#X obj 619 398 param \$0-10 \$0-memo2 9 100;
#X obj 439 92 memo \$0-memo 3;
#X symbolatom 465 111 10 0 0 0 - - -;
#X symbolatom 657 111 10 0 0 0 - - -;
#X msg 520 35 dump;
#X msg 520 54 reset;
#X msg 569 35 write;
#X msg 569 54 read;
#X msg 520 73 edit;
#X msg 712 35 dump;
#X msg 712 54 reset;
#X msg 761 35 write;
#X msg 761 54 read;
#X msg 712 73 edit;
#X obj 619 92 memo \$0-memo2 10;
#X obj 129 108 listbox 1 1 0 1;
#X obj 129 89 memopack \$0;
#X obj 129 194 memounpack \$0;
#X msg 177 33 memo memo2;
#X obj 129 70 list;
#X obj 129 54 bng 15 250 50 0 empty empty empty 17 7 0 10 -262144 -1
-1;
#X obj 177 52 t a a;
#X text 546 442 RECEBE TODOS CONTROLES / VALORES;
#X text 546 458 * PARA ENVIAR A GUI EXTERNO POR EXEMPLO;
#X obj 439 447 r \$0-memo2_bus;
#X obj 439 490 print PARAM_VALUE;
#X obj 619 135 print DUMP;
#X text 908 53 *** LICENÇA;
#X text 764 111 *** ARRUMAR HELP E SEPARAR DE EXEMPLO COMPLEXO;
#X connect 2 0 4 0;
#X connect 4 0 3 0;
#X connect 5 0 10 0;
#X connect 6 0 9 0;
#X connect 7 0 8 0;
#X connect 8 1 7 0;
#X connect 9 1 6 0;
#X connect 10 1 5 0;
#X connect 11 0 21 0;
#X connect 12 0 22 0;
#X connect 13 0 23 0;
#X connect 14 0 24 0;
#X connect 15 0 25 0;
#X connect 16 0 26 0;
#X connect 17 0 27 0;
#X connect 18 0 28 0;
#X connect 19 0 29 0;
#X connect 20 0 30 0;
#X connect 21 1 11 0;
#X connect 22 1 12 0;
#X connect 23 1 13 0;
#X connect 24 1 14 0;
#X connect 25 1 15 0;
#X connect 26 1 16 0;
#X connect 27 1 17 0;
#X connect 28 1 18 0;
#X connect 29 1 19 0;
#X connect 30 1 20 0;
#X connect 31 1 32 0;
#X connect 34 0 31 1;
#X connect 35 0 31 1;
#X connect 36 0 31 1;
#X connect 37 0 31 1;
#X connect 38 0 31 1;
#X connect 39 0 44 1;
#X connect 40 0 44 1;
#X connect 41 0 44 1;
#X connect 42 0 44 1;
#X connect 43 0 44 1;
#X connect 44 0 56 0;
#X connect 44 1 33 0;
#X connect 45 0 47 0;
#X connect 46 0 45 0;
#X connect 48 0 51 0;
#X connect 49 0 46 0;
#X connect 50 0 49 0;
#X connect 51 0 49 1;
#X connect 51 1 47 1;
#X connect 54 0 55 0;
